<svg width="686" height="652" viewBox="0 0 686 652" fill="none" xmlns="http://www.w3.org/2000/svg">
<path d="M586.422 18.9661L17.2271 107.728L97.0337 619.498L666.229 530.736L586.422 18.9661Z" fill="url(#paint0_linear_400_36)"/>
<path d="M600.07 16.8379L586.433 18.9645L586.422 18.9661L663.069 510.471L662.929 510.493L662.919 510.495L662.64 510.538L662.361 510.582L662.351 510.583L662.072 510.627L661.793 510.67L661.782 510.672L661.504 510.715L661.225 510.759L661.214 510.76L660.935 510.804L660.657 510.847L660.646 510.849L660.367 510.892L660.088 510.936L660.078 510.938L659.799 510.981L659.52 511.025L659.51 511.026L659.231 511.07L658.952 511.113L658.941 511.115L658.663 511.158L658.384 511.202L658.373 511.203L658.094 511.247L657.816 511.29L657.805 511.292L657.526 511.336L657.247 511.379L657.237 511.381L656.958 511.424L656.679 511.468L656.669 511.469L656.39 511.513L656.111 511.556L656.1 511.558L655.822 511.601L655.543 511.645L655.532 511.646L655.253 511.69L654.975 511.733L654.964 511.735L654.685 511.779L654.406 511.822L654.396 511.824L654.117 511.867L653.838 511.911L653.827 511.912L653.549 511.956L653.27 511.999L653.259 512.001L652.98 512.044L652.702 512.088L652.691 512.09L652.412 512.133L652.134 512.176L652.123 512.178L651.844 512.222L651.565 512.265L651.555 512.267L651.276 512.31L650.997 512.354L650.986 512.355L650.708 512.399L650.429 512.442L650.418 512.444L650.14 512.487L649.85 512.533L652.453 529.228L642.376 530.799L642.065 530.848L630.518 532.648L630.218 532.695L618.65 534.499L618.35 534.546L606.804 536.346L606.482 536.396L594.936 538.197L594.625 538.246L583.068 540.048L582.768 540.095L571.221 541.895L570.899 541.945L559.353 543.746L559.042 543.794L547.496 545.595L547.185 545.643L535.628 547.446L535.328 547.492L523.77 549.295L523.47 549.342L511.902 551.145L511.602 551.192L500.056 552.993L499.734 553.043L488.188 554.844L487.887 554.89L476.33 556.693L476.019 556.741L464.473 558.542L464.162 558.59L452.605 560.392L452.305 560.439L440.737 562.243L440.437 562.29L428.89 564.091L428.569 564.141L417.022 565.941L416.722 565.988L405.165 567.79L404.854 567.839L393.308 569.639L392.997 569.688L381.439 571.49L381.139 571.537L369.582 573.339L369.271 573.388L357.725 575.188L357.414 575.237L345.857 577.039L345.557 577.086L333.999 578.888L333.688 578.937L322.142 580.737L321.831 580.786L310.274 582.588L309.974 582.635L298.417 584.437L298.106 584.485L286.559 586.286L286.248 586.334L274.691 588.137L274.391 588.184L262.845 589.984L262.523 590.034L250.977 591.835L250.676 591.882L239.109 593.686L238.808 593.732L227.251 595.535L226.94 595.583L215.394 597.384L215.083 597.432L203.537 599.233L203.226 599.281L191.679 601.082L191.368 601.13L179.811 602.933L179.511 602.979L167.943 604.783L167.643 604.83L156.086 606.632L155.775 606.681L144.228 608.481L143.917 608.53L132.371 610.33L132.06 610.379L120.514 612.18L120.203 612.228L110.125 613.8L107.522 597.105L107.232 597.15L106.954 597.193L106.943 597.195L106.664 597.238L106.385 597.282L106.375 597.283L106.107 597.325L106.096 597.327L105.817 597.37L105.806 597.372L105.528 597.415L105.249 597.459L105.238 597.461L104.959 597.504L104.681 597.548L104.67 597.549L104.391 597.593L104.112 597.636L104.102 597.638L103.823 597.681L103.544 597.725L103.534 597.726L103.255 597.77L102.976 597.813L102.965 597.815L102.687 597.859L102.408 597.902L102.397 597.904L102.118 597.947L101.84 597.991L101.829 597.992L101.55 598.036L101.271 598.079L101.261 598.081L100.982 598.124L100.703 598.168L100.693 598.169L100.414 598.213L100.135 598.256L100.124 598.258L99.8456 598.302L99.5668 598.345L99.5561 598.347L99.2773 598.39L98.9986 598.434L98.9879 598.435L98.7091 598.479L98.4304 598.522L98.4197 598.524L98.141 598.567L97.8622 598.611L97.8515 598.613L97.5728 598.656L97.294 598.699L97.2833 598.701L97.0045 598.745L96.7258 598.788L96.715 598.79L96.4363 598.833L96.1575 598.877L96.1469 598.878L95.8682 598.922L95.5894 598.965L95.5787 598.967L95.2999 599.01L95.0212 599.054L95.0104 599.056L94.7317 599.099L94.4529 599.143L94.4422 599.144L94.1634 599.188L93.8847 599.231L92.2493 588.744L73.5012 468.519L54.753 348.294L54.7366 348.189L35.9884 227.964L19.8437 124.434L20.1225 124.391L20.1332 124.389L20.412 124.346L20.6907 124.302L20.7015 124.3L20.9802 124.257L21.259 124.214L21.2697 124.212L21.5485 124.168L21.8272 124.125L21.8379 124.123L22.1166 124.08L22.3953 124.036L22.406 124.035L22.6848 123.991L22.9636 123.948L22.9743 123.946L23.253 123.903L23.5318 123.859L23.5425 123.857L23.8213 123.814L24.1 123.77L24.1108 123.769L24.3894 123.725L24.6681 123.682L24.6789 123.68L24.9576 123.637L25.2364 123.593L25.2471 123.592L25.5259 123.548L25.8046 123.505L25.8154 123.503L26.0941 123.46L26.3729 123.416L26.3836 123.414L26.6623 123.371L26.941 123.327L26.9517 123.326L27.2305 123.282L27.5092 123.239L27.5199 123.237L27.7987 123.194L28.0775 123.15L28.0882 123.149L28.3669 123.105L28.6457 123.062L28.6564 123.06L28.9352 123.016L28.9458 123.015L29.2138 122.973L29.2245 122.971L29.5033 122.928L29.514 122.926L29.782 122.884L29.7928 122.883L30.0715 122.839L30.0823 122.838L30.3503 122.796L30.361 122.794L30.6398 122.751L30.6505 122.749L30.9185 122.707L30.9293 122.706L31.208 122.662L31.2187 122.66L31.4868 122.619L31.4974 122.617L31.7761 122.573L31.7868 122.572L32.0549 122.53L32.0656 122.528L32.3444 122.485L32.3551 122.483L32.6231 122.441L32.6338 122.44L32.9126 122.396L32.9233 122.395L33.1914 122.353L33.2021 122.351L33.4916 122.306L30.8861 105.598L40.9423 104.03L41.2424 103.983L52.7888 102.182L53.0998 102.134L64.6355 100.335L64.9463 100.286L76.482 98.4874L76.793 98.439L88.3394 96.6384L88.6396 96.5916L100.197 94.7893L100.497 94.7425L112.054 92.9403L112.354 92.8934L123.901 91.0929L124.212 91.0444L135.737 89.2472L136.058 89.197L147.594 87.3981L147.905 87.3496L159.451 85.549L159.751 85.5022L171.309 83.7L171.609 83.6532L183.155 81.8526L183.466 81.8041L195.002 80.0052L195.313 79.9567L206.848 78.1578L207.17 78.1077L218.706 76.3087L219.017 76.2603L230.563 74.4597L230.863 74.4129L242.42 72.6106L242.721 72.5638L254.267 70.7632L254.578 70.7148L266.124 68.9142L266.425 68.8674L277.96 67.0685L278.282 67.0183L289.818 65.2194L290.128 65.1709L301.675 63.3703L301.975 63.3235L313.532 61.5213L313.832 61.4745L325.379 59.6739L325.69 59.6254L337.226 57.8265L337.536 57.778L349.072 55.9791L349.394 55.9289L360.929 54.13L361.23 54.0832L372.787 52.281L373.087 52.2342L384.644 50.4319L384.944 50.3851L396.491 48.5845L396.802 48.5361L408.337 46.7371L408.648 46.6887L420.184 44.8898L420.506 44.8396L432.041 43.0407L432.341 42.9939L443.899 41.1916L444.199 41.1448L455.756 39.3426L456.056 39.2958L467.603 37.4952L467.913 37.4467L479.449 35.6478L479.76 35.5993L491.296 33.8004L491.617 33.7502L503.153 31.9514L503.453 31.9045L515.01 30.1023L515.311 30.0555L526.857 28.2549L527.168 28.2064L538.714 26.4058L539.015 26.359L550.561 24.5584L550.872 24.51L562.408 22.7111L562.729 22.6609L572.785 21.0927L575.391 37.8009L575.67 37.7574L575.68 37.7557L575.959 37.7122L576.238 37.6688L576.249 37.6671L576.527 37.6236L576.806 37.5802L576.817 37.5785L577.096 37.535L577.374 37.4916L577.385 37.4899L577.664 37.4464L577.943 37.403L577.953 37.4013L578.232 37.3578L578.511 37.3143L578.522 37.3127L578.8 37.2692L579.079 37.2257L579.09 37.2241L579.368 37.1806L579.647 37.1371L579.658 37.1355L579.937 37.092L580.215 37.0485L580.226 37.0469L580.505 37.0034L580.784 36.9599L580.794 36.9582L581.073 36.9148L581.352 36.8713L581.362 36.8696L581.641 36.8262L581.92 36.7827L581.931 36.781L582.209 36.7376L582.488 36.6941L582.499 36.6924L582.778 36.6489L583.056 36.6055L583.067 36.6038L583.346 36.5603L583.625 36.5169L583.635 36.5152L583.914 36.4717L584.193 36.4283L584.204 36.4266L584.482 36.3831L584.761 36.3397L584.772 36.338L585.051 36.2945L585.329 36.251L585.34 36.2494L585.619 36.2059L585.897 36.1625L585.908 36.1608L586.187 36.1173L586.466 36.0738L586.476 36.0722L586.755 36.0287L587.034 35.9852L587.045 35.9836L587.323 35.9401L587.602 35.8966L587.613 35.8949L587.892 35.8515L588.17 35.808L588.181 35.8063L588.46 35.7629L588.738 35.7194L588.749 35.7177L589.028 35.6743L586.422 18.9661L583.819 2.27112L571.962 4.12018L571.661 4.16699L560.126 5.9659L559.804 6.01607L548.268 7.81497L547.958 7.86344L536.411 9.66402L536.111 9.71084L524.564 11.5114L524.254 11.5599L512.707 13.3605L512.407 13.4073L500.85 15.2095L500.55 15.2564L489.014 17.0552L488.692 17.1054L477.157 18.9043L476.846 18.9528L465.31 20.7517L464.999 20.8002L453.453 22.6008L453.152 22.6476L441.595 24.4498L441.295 24.4966L429.738 26.2989L429.438 26.3457L417.902 28.1446L417.581 28.1947L406.045 29.9937L405.734 30.0421L394.198 31.8411L393.887 31.8895L382.341 33.6901L382.041 33.7369L370.483 35.5392L370.183 35.586L358.626 37.3882L358.326 37.435L346.79 39.2339L346.469 39.2841L334.933 41.083L334.622 41.1315L323.086 42.9304L322.775 42.9789L311.229 44.7795L310.929 44.8263L299.372 46.6285L299.071 46.6753L287.525 48.4759L287.214 48.5244L275.678 50.3233L275.357 50.3735L263.821 52.1724L263.521 52.2192L251.974 54.0198L251.664 54.0682L240.117 55.8688L239.817 55.9156L228.26 57.7179L227.96 57.7647L216.413 59.5653L216.102 59.6137L204.567 61.4126L204.245 61.4628L192.709 63.2617L192.398 63.3102L180.863 65.1091L180.552 65.1576L169.005 66.9582L168.705 67.005L157.148 68.8072L156.848 68.854L145.301 70.6546L144.99 70.7031L133.455 72.502L133.133 72.5522L121.608 74.3494L121.297 74.3979L109.751 76.1984L109.451 76.2453L97.8934 78.0475L97.5932 78.0943L86.0362 79.8966L85.736 79.9434L74.1895 81.744L73.8786 81.7924L62.3428 83.5914L62.032 83.6398L50.4963 85.4387L50.1854 85.4872L38.6389 87.2878L38.3388 87.3346L26.7816 89.1368L26.4814 89.1837L14.624 91.0327L17.2275 107.728L3.59052 109.854L22.3407 230.092L41.0889 350.318L41.1053 350.423L59.8535 470.647L78.6016 590.873L82.8404 618.054L96.4774 615.928L99.0829 632.636L110.951 630.785L111.251 630.738L122.808 628.936L123.119 628.888L134.666 627.087L134.977 627.039L146.523 625.238L146.834 625.19L158.38 623.389L158.691 623.34L170.248 621.538L170.549 621.491L182.117 619.688L182.417 619.641L193.974 617.838L194.285 617.79L205.831 615.989L206.142 615.941L217.688 614.14L217.999 614.092L229.546 612.291L229.857 612.243L241.414 610.441L241.714 610.394L253.282 608.59L253.582 608.543L265.128 606.742L265.45 606.692L276.997 604.892L277.297 604.845L288.854 603.043L289.165 602.994L300.711 601.194L301.022 601.145L312.579 599.343L312.879 599.296L324.437 597.494L324.748 597.445L336.294 595.645L336.605 595.596L348.162 593.794L348.462 593.747L360.019 591.945L360.33 591.896L371.877 590.096L372.188 590.047L383.745 588.245L384.045 588.198L395.602 586.396L395.913 586.348L407.459 584.547L407.77 584.499L419.328 582.696L419.628 582.649L431.174 580.849L431.496 580.799L443.042 578.998L443.342 578.951L454.91 577.147L455.21 577.101L466.768 575.298L467.078 575.25L478.625 573.449L478.936 573.401L490.493 571.599L490.793 571.552L502.339 569.751L502.661 569.701L514.208 567.9L514.508 567.854L526.076 566.05L526.376 566.003L537.933 564.201L538.233 564.154L549.79 562.352L550.101 562.303L561.648 560.503L561.958 560.454L573.505 558.653L573.827 558.603L585.373 556.803L585.673 556.756L597.23 554.954L597.541 554.905L609.088 553.105L609.409 553.054L620.956 551.254L621.256 551.207L632.824 549.403L633.124 549.356L644.67 547.556L644.981 547.507L656.538 545.705L656.839 545.658L668.707 543.807L666.101 527.099L679.32 525.038L600.07 16.8379Z" fill="url(#paint1_linear_400_36)"/>
<path d="M100.41 649.53L100.142 649.571L100.131 649.573L99.8524 649.617L99.8417 649.618L99.5737 649.66L99.5629 649.662L99.2842 649.705L99.2734 649.707L99.0054 649.749L98.9948 649.75L98.7161 649.794L98.7053 649.795L98.4373 649.837L98.4266 649.839L98.1478 649.882L98.1371 649.884L97.8691 649.926L97.8583 649.928L97.5796 649.971L97.5689 649.973L97.3008 650.015L97.2901 650.016L97.0113 650.06L97.0006 650.061L96.7326 650.103L96.722 650.105L96.4432 650.148L96.4325 650.15L96.1645 650.192L96.1538 650.193L95.875 650.237L95.8643 650.239L95.5962 650.28L95.5855 650.282L95.3068 650.325L95.296 650.327L95.028 650.369L95.0173 650.371L94.7385 650.414L94.7278 650.416L94.4598 650.458L94.449 650.459L94.1704 650.503L94.1597 650.504L93.8917 650.546L93.8809 650.548L93.6022 650.591L93.5914 650.593L93.3234 650.635L93.3127 650.636L93.0339 650.68L93.0232 650.682L92.7552 650.723L92.7444 650.725L92.4657 650.769L92.455 650.77L92.1869 650.812L92.1762 650.814L91.8976 650.857L91.8868 650.859L91.6188 650.901L91.6081 650.902L91.3293 650.946L91.3186 650.947L91.0506 650.989L91.0399 650.991L90.7611 651.034L90.7504 651.036L90.4823 651.078L90.4716 651.079L90.1929 651.123L90.1821 651.125L89.9141 651.166L89.9034 651.168L89.6246 651.212L89.614 651.213L89.346 651.255L89.3353 651.257L89.0565 651.3L89.0458 651.302L88.7778 651.344L88.767 651.345L88.4883 651.389L88.4775 651.39L88.2095 651.432L88.1988 651.434L87.92 651.477L87.9093 651.479L87.6413 651.521L87.6305 651.523L87.3518 651.566L87.3412 651.568L87.0624 651.611L84.459 634.916L84.7377 634.873L84.7483 634.871L85.0271 634.828L85.0378 634.826L85.3058 634.784L85.3166 634.782L85.5953 634.739L85.6061 634.737L85.8741 634.695L85.8848 634.694L86.1636 634.65L86.1743 634.649L86.4423 634.607L86.4531 634.605L86.7318 634.562L86.7425 634.56L87.0106 634.518L87.0212 634.517L87.2999 634.473L87.3107 634.471L87.5787 634.43L87.5894 634.428L87.8682 634.385L87.8789 634.383L88.1469 634.341L88.1576 634.339L88.4364 634.296L88.4471 634.294L88.7152 634.252L88.7259 634.251L89.0046 634.207L89.0154 634.206L89.2834 634.164L89.2941 634.162L89.5728 634.119L89.5835 634.117L89.8515 634.075L89.8622 634.074L90.141 634.03L90.1517 634.028L90.4197 633.987L90.4305 633.985L90.7092 633.941L90.72 633.94L90.988 633.898L90.9987 633.896L91.2775 633.853L91.2882 633.851L91.5562 633.809L91.567 633.808L91.8456 633.764L91.8563 633.763L92.1243 633.721L92.1351 633.719L92.4138 633.676L92.4246 633.674L92.6926 633.632L92.7033 633.631L92.9821 633.587L92.9928 633.585L93.2608 633.544L93.2715 633.542L93.5503 633.498L93.561 633.497L93.8291 633.455L93.8398 633.453L94.1185 633.41L94.1291 633.408L94.3972 633.366L94.4079 633.365L94.6866 633.321L94.6974 633.32L94.9654 633.278L94.9761 633.276L95.2549 633.233L95.2656 633.231L95.5336 633.189L95.5444 633.187L95.8231 633.144L95.8339 633.142L96.1019 633.101L96.1126 633.099L96.3914 633.055L96.402 633.054L96.67 633.012L96.6807 633.01L96.9595 632.967L96.9702 632.965L97.2382 632.923L97.249 632.922L97.5277 632.878L97.5385 632.877L97.8065 632.835L97.8172 632.833L98.1067 632.788L100.71 649.483L100.421 649.528L100.41 649.53Z" fill="url(#paint2_linear_400_36)"/>
<path d="M685.152 558.326L684.874 558.369L684.595 558.413L684.584 558.414L684.305 558.458L684.027 558.501L684.016 558.503L683.737 558.547L683.458 558.59L683.448 558.592L683.169 558.635L682.89 558.679L682.88 558.68L682.601 558.724L682.322 558.767L682.311 558.769L682.033 558.812L681.754 558.856L681.743 558.858L681.464 558.901L681.186 558.944L681.175 558.946L680.896 558.99L680.617 559.033L680.607 559.035L680.328 559.078L680.049 559.122L680.038 559.123L679.76 559.167L679.481 559.21L679.47 559.212L679.191 559.255L678.913 559.299L678.902 559.301L678.623 559.344L678.345 559.387L678.334 559.389L678.055 559.433L678.044 559.434L677.776 559.476L677.766 559.478L677.487 559.521L677.476 559.523L677.208 559.565L677.197 559.566L676.919 559.61L676.908 559.612L676.64 559.653L676.629 559.655L676.351 559.698L676.34 559.7L676.072 559.742L676.061 559.744L675.782 559.787L675.772 559.789L675.504 559.831L675.493 559.832L675.214 559.876L675.203 559.877L674.935 559.919L674.925 559.921L674.646 559.964L674.635 559.966L674.367 560.008L674.356 560.009L674.078 560.053L674.067 560.055L673.799 560.096L673.788 560.098L673.509 560.141L673.499 560.143L673.231 560.185L673.22 560.187L672.941 560.23L672.93 560.232L672.662 560.274L672.652 560.275L672.373 560.319L672.362 560.32L672.094 560.362L672.083 560.364L671.794 560.409L669.191 543.714L669.48 543.669L669.491 543.667L669.759 543.625L669.77 543.624L670.048 543.58L670.059 543.579L670.327 543.537L670.338 543.535L670.617 543.492L670.627 543.49L670.895 543.448L670.906 543.447L671.185 543.403L671.195 543.401L671.464 543.36L671.474 543.358L671.753 543.314L671.764 543.313L672.032 543.271L672.042 543.269L672.321 543.226L672.332 543.224L672.6 543.182L672.611 543.181L672.889 543.137L672.9 543.136L673.168 543.094L673.179 543.092L673.458 543.049L673.468 543.047L673.736 543.005L673.747 543.003L674.026 542.96L674.036 542.958L674.304 542.917L674.315 542.915L674.594 542.871L674.605 542.87L674.873 542.828L674.883 542.826L675.162 542.783L675.173 542.781L675.441 542.739L675.452 542.738L675.73 542.694L675.741 542.693L676.02 542.649L676.299 542.606L676.309 542.604L676.588 542.56L676.867 542.517L676.877 542.515L677.156 542.472L677.435 542.428L677.446 542.427L677.724 542.383L678.003 542.34L678.014 542.338L678.293 542.295L678.571 542.251L678.582 542.249L678.861 542.206L679.14 542.163L679.15 542.161L679.429 542.117L679.708 542.074L679.719 542.072L679.997 542.029L680.276 541.985L680.287 541.984L680.566 541.94L680.844 541.897L680.855 541.895L681.134 541.852L681.412 541.808L681.423 541.806L681.702 541.763L681.981 541.72L681.991 541.718L682.27 541.674L682.549 541.631L682.56 541.629L682.838 541.586L685.442 558.281L685.163 558.324L685.152 558.326Z" fill="url(#paint3_linear_400_36)"/>
<defs>
<linearGradient id="paint0_linear_400_36" x1="626.327" y1="274.864" x2="57.1324" y2="363.626" gradientUnits="userSpaceOnUse">
<stop stop-color="#224983"/>
<stop offset="1" stop-color="#162A4B"/>
</linearGradient>
<linearGradient id="paint1_linear_400_36" x1="-61.2738" y1="279.807" x2="706.824" y2="289.493" gradientUnits="userSpaceOnUse">
<stop stop-color="white"/>
<stop offset="1" stop-color="white"/>
</linearGradient>
<linearGradient id="paint2_linear_400_36" x1="101.559" y1="638.38" x2="83.9706" y2="644.242" gradientUnits="userSpaceOnUse">
<stop stop-color="white"/>
<stop offset="1" stop-color="white"/>
</linearGradient>
<linearGradient id="paint3_linear_400_36" x1="686.302" y1="547.176" x2="668.713" y2="553.038" gradientUnits="userSpaceOnUse">
<stop stop-color="white"/>
<stop offset="1" stop-color="white"/>
</linearGradient>
</defs>
</svg>
