<svg width="256" height="75" viewBox="0 0 256 75" fill="none" xmlns="http://www.w3.org/2000/svg">
<path d="M247.804 61.3618H243.72H239.622H235.524H135.097H130.999H126.896H122.798H118.714H114.616H110.518H106.42H102.336H98.27H94.172H90.0878H85.9897H81.8917H77.7937H73.7049H69.6069H65.5089H61.4246H57.3266H53.2286H49.1306H45.0463H40.9483H36.8457H32.7615H28.6635H24.5654H20.4675H16.3832H12.2852V68.1891H16.3832H20.4675H24.5654H28.6635H32.7615H36.8457H40.9483H45.0463H49.1306H53.2286H57.3266H61.4246H65.5089H69.6069H73.7049H77.7937H81.8917H85.9897H90.0878H94.172H98.2379H102.336H106.42H110.518H114.616H118.714H122.798H126.896H130.999H135.097H235.524H239.622H243.72H247.804H251.902V61.3618H247.804Z" fill="#B3BEFF"/>
<path d="M12.2845 54.5503H8.18652V61.3546H12.2845V54.5503Z" fill="#B3BEFF"/>
<path d="M8.1869 40.9173V34.0824V27.2781V20.4508V13.6388V6.81152H4.08887V13.6388V20.4508V27.2781V34.0824V40.9173V47.7216V54.5489H8.1869V47.7216V40.9173Z" fill="#B3BEFF"/>
<path d="M243.719 20.4511V13.6392H239.621H235.523H135.096H130.998H126.896H122.798H118.714H114.616H110.518H106.419H102.335H98.2694H94.1714H90.0871H85.9891H81.8911H77.7931H73.7043H69.6062H65.5082H61.424H57.3259H53.228H49.1299H45.0457H40.9477H36.8451H32.7608H28.6628H24.5648H20.4668H16.3825H12.2845H8.18652V20.4511V27.2784V34.0827V40.9177V47.7219V54.5492H12.2845V61.3612H16.3825H20.4668H24.5648H28.6628H32.7608H36.8451H40.9477H45.0457H49.1299H53.228H57.3259H61.424H65.5082H69.6062H73.7043H77.7931H81.8911H85.9891H90.0871H94.1714H98.2373H102.335H106.419H110.518H114.616H118.714H122.798H126.896H130.998H135.096H235.523H239.621H243.719H247.803V54.5492V47.7219V40.9177V34.0827V27.2784V20.4511H243.719Z" fill="url(#paint0_linear_473_23)"/>
<path d="M247.804 20.4507V27.278V34.0823V40.9172V47.7215V54.5488V61.3608H251.902V54.5488V47.7215V40.9172V34.0823V27.278V20.4507H247.804Z" fill="white"/>
<path d="M247.803 13.6392H243.719V20.4434H247.803V13.6392Z" fill="white"/>
<path d="M239.621 6.81152H235.523H135.096H130.998H126.896H122.798H118.714H114.616H110.518H106.419H102.335H98.2694H94.1714H90.0871H85.9891H81.8911H77.7931H73.7043H69.6062H65.5082H61.424H57.3259H53.228H49.1299H45.0457H40.9477H36.8451H32.7608H28.6628H24.5648H20.4668H16.3825H12.2845H8.18652V13.6388H12.2845H16.3825H20.4668H24.5648H28.6628H32.7608H36.8451H40.9477H45.0457H49.1299H53.228H57.3259H61.424H65.5082H69.6062H73.7043H77.7931H81.8911H85.9891H90.0871H94.1714H98.2373H102.335H106.419H110.518H114.616H118.714H122.798H126.896H130.998H135.096H235.523H239.621H243.719V6.81152H239.621Z" fill="white"/>
<path d="M251.902 20.4507V27.278V34.0823V40.9172V47.7215V54.5488V61.3608V68.188H247.804H243.72H239.622H235.524H135.097H130.999H126.896H122.798H118.714H114.616H110.518H106.42H102.336H98.27H94.172H90.0878H85.9897H81.8918H77.7937H73.7049H69.6069H65.5089H61.4246H57.3266H53.2286H49.1306H45.0463H40.9483H36.8457H32.7615H28.6635H24.5654H20.4675H16.3832H12.2852V75H16.3832H20.4675H24.5654H28.6635H32.7615H36.8457H40.9483H45.0463H49.1306H53.2286H57.3266H61.4246H65.5089H69.6069H73.7049H77.7937H81.8918H85.9897H90.0878H94.172H98.2379H102.336H106.42H110.518H114.616H118.714H122.798H126.896H130.999H135.097H235.524H239.622H243.72H247.804H251.902H256V68.188V61.3608V54.5488V47.7215V40.9172V34.0823V27.278V20.4507H251.902Z" fill="url(#paint1_linear_473_23)"/>
<path d="M251.902 13.6392H247.804V20.4434H251.902V13.6392Z" fill="url(#paint2_linear_473_23)"/>
<path d="M247.803 6.81152H243.719V13.6388H247.803V6.81152Z" fill="url(#paint3_linear_473_23)"/>
<path d="M12.2845 61.3618H8.18652V68.1891H12.2845V61.3618Z" fill="url(#paint4_linear_473_23)"/>
<path d="M8.1869 54.5503H4.08887V61.3546H8.1869V54.5503Z" fill="url(#paint5_linear_473_23)"/>
<path d="M4.08879 40.9178V34.0828V27.2785V20.4512V13.6393V6.81196H8.18683H12.2848H16.3829H20.4671H24.5651H28.6631H32.7611H36.8454H40.948H45.046H49.1302H53.2283H57.3263H61.4243H65.5086H69.6065H73.7046H77.7934H81.8914H85.9894H90.0874H94.1717H98.2376H102.336H106.42H110.518H114.616H118.714H122.798H126.896H130.999H135.097H235.523H239.621H243.719V0H239.621H235.523H135.097H130.999H126.896H122.798H118.714H114.616H110.518H106.42H102.336H98.2697H94.1717H90.0874H85.9894H81.8914H77.7934H73.7046H69.6065H65.5086H61.4243H57.3263H53.2283H49.1302H45.046H40.948H36.8454H32.7611H28.6631H24.5651H20.4671H16.3829H12.2848H8.18683H4.08879H0V6.81196V13.6393V20.4512V27.2785V34.0828V40.9178V47.722V54.5494H4.08879V47.722V40.9178Z" fill="url(#paint6_linear_473_23)"/>
<defs>
<linearGradient id="paint0_linear_473_23" x1="8.18652" y1="37.4963" x2="247.803" y2="37.4963" gradientUnits="userSpaceOnUse">
<stop stop-color="#6427A6"/>
<stop offset="1" stop-color="#2E208C"/>
</linearGradient>
<linearGradient id="paint1_linear_473_23" x1="12.2852" y1="47.7215" x2="256" y2="47.7215" gradientUnits="userSpaceOnUse">
<stop stop-color="#FBC101"/>
<stop offset="1" stop-color="#FEEEBA"/>
</linearGradient>
<linearGradient id="paint2_linear_473_23" x1="247.804" y1="17.0451" x2="251.902" y2="17.0451" gradientUnits="userSpaceOnUse">
<stop stop-color="#FBC101"/>
<stop offset="1" stop-color="#FEEEBA"/>
</linearGradient>
<linearGradient id="paint3_linear_473_23" x1="243.719" y1="10.2252" x2="247.803" y2="10.2252" gradientUnits="userSpaceOnUse">
<stop stop-color="#FBC101"/>
<stop offset="1" stop-color="#FEEEBA"/>
</linearGradient>
<linearGradient id="paint4_linear_473_23" x1="8.18652" y1="64.7754" x2="12.2845" y2="64.7754" gradientUnits="userSpaceOnUse">
<stop stop-color="#FBC101"/>
<stop offset="1" stop-color="#FEEEBA"/>
</linearGradient>
<linearGradient id="paint5_linear_473_23" x1="4.08887" y1="57.9563" x2="8.1869" y2="57.9563" gradientUnits="userSpaceOnUse">
<stop stop-color="#FBC101"/>
<stop offset="1" stop-color="#FEEEBA"/>
</linearGradient>
<linearGradient id="paint6_linear_473_23" x1="0" y1="27.2785" x2="243.719" y2="27.2785" gradientUnits="userSpaceOnUse">
<stop stop-color="#FBC101"/>
<stop offset="1" stop-color="#FEEEBA"/>
</linearGradient>
</defs>
</svg>
