<svg width="151" height="179" viewBox="0 0 151 179" fill="none" xmlns="http://www.w3.org/2000/svg">
<path d="M147.328 5.33301H3.69019V168.814H147.328V5.33301Z" fill="url(#paint0_linear_278_2465)" fill-opacity="0.9"/>
<g opacity="0.6">
<mask id="mask0_278_2465" style="mask-type:luminance" maskUnits="userSpaceOnUse" x="3" y="5" width="145" height="164">
<path d="M147.22 5.50098H3.58203V168.982H147.22V5.50098Z" fill="white"/>
</mask>
<g mask="url(#mask0_278_2465)">
<path style="mix-blend-mode:multiply" d="M75.6794 275.643C149.021 275.643 208.476 186.228 208.476 75.9295C208.476 -34.3693 149.021 -123.784 75.6794 -123.784C2.33768 -123.784 -57.1176 -34.3693 -57.1176 75.9295C-57.1176 186.228 2.33768 275.643 75.6794 275.643Z" fill="url(#paint1_radial_278_2465)"/>
<g opacity="0.64">
<path style="mix-blend-mode:overlay" d="M-33.8845 -14.591L-44.6182 -3.93262L39.8215 200.29L50.5551 189.632L-33.8845 -14.591Z" fill="url(#paint2_linear_278_2465)"/>
<path style="mix-blend-mode:overlay" d="M17.8062 -17.3986L7.07251 -6.74023L91.5122 197.483L102.246 186.824L17.8062 -17.3986Z" fill="url(#paint3_linear_278_2465)"/>
<path style="mix-blend-mode:overlay" d="M69.4951 -20.2072L58.7615 -9.54883L143.201 194.674L153.935 184.016L69.4951 -20.2072Z" fill="url(#paint4_linear_278_2465)"/>
<path style="mix-blend-mode:overlay" d="M121.185 -23.0124L110.452 -12.354L194.891 191.869L205.625 181.21L121.185 -23.0124Z" fill="url(#paint5_linear_278_2465)"/>
</g>
</g>
</g>
<path d="M150.772 5.33308H147.331H147.328V162.34H147.293H147.29H147.22H147.15H147.147H147.077H147.006H147.003H146.933H146.863H146.86H146.79H146.719H146.717H146.646H146.576H146.573H146.503H146.433H146.43H146.36H146.289H146.286H146.216H146.146H146.143H146.073H146.002H146H145.929H145.859H145.856H145.786H145.716H145.713H145.643H145.572H145.57H145.499H145.429H145.426H145.356H145.286H145.283H145.212H145.142H145.139H145.069H144.999H144.996H144.926H144.855H144.853H144.782H144.712H144.709H144.639H144.569H144.566H144.495H144.425H144.422H144.352H144.282H144.279H144.209H144.138H144.136H144.065H143.992V167.673H141.449H141.371H138.457H138.381H135.462H135.386H132.472H132.391H129.478H129.399H126.483H126.407H123.493H123.412H120.498H120.42H117.506H117.427H114.511H114.435H111.519H111.443H108.524H108.448H105.534H105.453H102.539H102.464H99.5472H99.4687H96.5549H96.4765H93.56H93.4842H90.5651H90.4893H87.5755H87.4944H84.5806H84.5049H81.5884H81.5099H78.5962H78.5177H75.6012H75.5255H72.609H72.5305H69.6168H69.5383H66.6218H66.5461H63.6296H63.5511H60.6374H60.5589H57.6424H57.5667H54.6502H54.5718H51.658H51.5795H48.6631H48.5873H45.6735H45.5924H42.6786H42.6029H39.6837H39.6079H36.6915H36.613H33.6992H33.6207H30.707H30.6285H27.7148H27.6363H24.7198H24.6441H21.7249H21.6491H18.7327H18.6542H15.7404H15.662H12.7482H12.6698H9.75598H9.67751H7.13441V162.34H7.06136H6.99102H6.98831H6.91796H6.84762H6.84491H6.77728H6.77457H6.70422H6.70151H6.6312H6.56086H6.55815H6.48781H6.41746H6.41475H6.34441H6.27407H6.27136H6.20101H6.13067H6.12796H6.05762H5.9873H5.9846H5.91425H5.84391H5.8412H5.77086H5.70051H5.6978H5.62746H5.55711H5.55441H5.48406H5.41375H5.41104H5.3407H5.27035H5.26765H5.1973H5.12696H5.12425H5.05391H4.98356H4.98085H4.91051H4.84016H4.83749H4.76714H4.6968H4.69409H4.62375H4.5534H4.55069H4.48035H4.41001H4.4073H4.33695H4.26661H4.26393H4.19359H4.12325H4.12054H4.05019H3.97985H3.97714H3.9068H3.83645H3.83374H3.7634H3.69306V158.99V120.585V82.1806V82.147V43.7421V10.6704H3.7634H3.76611H3.83645H3.9068H3.9095H3.97985H4.05019H4.0529H4.12325H4.19359H4.1963H4.26661H4.33695H4.33966H4.41001H4.48035H4.48306H4.5534H4.62375H4.62646H4.6968H4.76714H4.76985H4.84016H4.91051H4.91322H4.98356H5.05391H5.05661H5.12696H5.1973H5.20001H5.27035H5.3407H5.34341H5.41375H5.48406H5.48677H5.55711H5.62746H5.63017H5.70051H5.77086H5.77356H5.84391H5.91425H5.91696H5.9873H5.98998H6.05762H6.06032H6.13067H6.13338H6.20101H6.20372H6.27407H6.27677H6.34441H6.34712H6.41746H6.42017H6.48781H6.49051H6.56086H6.56357H6.6312H6.63388H6.70422H6.70693H6.77457H6.77728H6.84762H6.85033H6.91796H6.92067H6.99102H6.99372H7.06136H7.06407H7.13712V5.33308H9.67483H9.75056H12.6643H12.7428H15.6539H15.7323H18.6434H18.7218H21.6356H21.7114H24.6278H24.7036H27.6201H27.6958H30.6096H30.688H33.5964H33.6776H36.5886H36.6671H39.5809H39.6566H42.5731H42.6488H45.5626H45.6411H48.5521H48.6306H51.5417H51.6228H54.5339H54.6123H57.5261H57.6018H60.5183H60.5941H63.5079H63.5863H66.5001H66.5758H69.4869H69.568H72.4791H72.5576H75.4714H75.5471H78.4636H78.5393H81.4531H81.5316H84.4426H84.5211H87.4321H87.5133H90.4244H90.5001H93.4166H93.4924H96.4088H96.4846H99.3983H99.4768H102.388H102.466H105.377H105.459H108.37H108.445H111.362H111.438H114.354H114.43H117.344H117.422H120.333H120.412H123.323H123.404H126.315H126.391H129.307H129.383H132.297H132.375H135.289H135.365H138.278H138.357H141.268H141.349H143.887V10.6704H143.957H143.96H144.03H144.101H144.103H144.174H144.244H144.247H144.317H144.387H144.39H144.46H144.531H144.533H144.604H144.674H144.677H144.747H144.817H144.82H144.89H144.961H144.964H145.034H145.104H145.107H145.177H145.248H145.25H145.321H145.391H145.394H145.464H145.534H145.537H145.607H145.678H145.68H145.751H145.821H145.824H145.894H145.965H145.967H146.038H146.108H146.111H146.181H146.251H146.254H146.324H146.395H146.397H146.468H146.538H146.541H146.611H146.681H146.684H146.755H146.825H146.828H146.898H146.968H146.971H147.041H147.112H147.114H147.185H147.255H147.258H147.328V5.33308V0H144.336H144.26H141.349H141.268H138.357H138.278H135.365H135.289H132.375H132.297H129.383H129.307H126.391H126.315H123.404H123.323H120.412H120.333H117.422H117.344H114.43H114.354H111.438H111.362H108.445H108.37H105.459H105.377H102.466H102.388H99.4768H99.3983H96.4846H96.4088H93.4924H93.4166H90.5001H90.4244H87.5133H87.4321H84.5211H84.4426H81.5316H81.4531H78.5393H78.4636H75.5471H75.4714H72.5576H72.4791H69.568H69.4869H66.5758H66.5001H63.5863H63.5079H60.5941H60.5183H57.6018H57.5261H54.6123H54.5339H51.6228H51.5417H48.6306H48.5521H45.6411H45.5626H42.6488H42.5731H39.6566H39.5809H36.6671H36.5886H33.6776H33.5964H30.688H30.6096H27.6958H27.6201H24.7036H24.6278H21.7114H21.6356H18.7218H18.6434H15.7323H15.6539H12.7428H12.6643H9.75056H9.67483H6.75835H6.68259H3.69035V5.33308H0.249023V43.7421V82.147V82.1806V120.585V158.99V167.673H3.69035V173.011H6.6853H6.76106H9.67751H9.75598H12.6698H12.7482H15.662H15.7404H18.6542H18.7327H21.6491H21.7249H24.6441H24.7198H27.6363H27.7148H30.6285H30.707H33.6207H33.6992H36.613H36.6915H39.6079H39.6837H42.6029H42.6786H45.5924H45.6735H48.5873H48.6631H51.5795H51.658H54.5718H54.6502H57.5667H57.6424H60.5589H60.6374H63.5511H63.6296H66.5461H66.6218H69.5383H69.6168H72.5305H72.609H75.5255H75.6012H78.5177H78.5962H81.5099H81.5884H84.5049H84.5806H87.4944H87.5755H90.4893H90.5651H93.4842H93.56H96.4765H96.5549H99.4687H99.5472H102.464H102.539H105.453H105.534H108.448H108.524H111.443H111.519H114.435H114.511H117.427H117.506H120.42H120.498H123.412H123.493H126.407H126.483H129.399H129.478H132.391H132.472H135.386H135.462H138.381H138.457H141.371H141.449H144.366H144.441H147.436V167.673H150.772V5.33308Z" fill="url(#paint6_linear_278_2465)"/>
<path d="M3.36827 178.344H3.30064H3.29793H3.22758H3.22487H3.15724H3.15453H3.08419H3.08148H3.01384H3.01117H2.94082H2.93811H2.87048H2.86777H2.79743H2.79472H2.72708H2.72437H2.65403H2.65132H2.58368H2.58098H2.51063H2.50792H2.44029H2.43761H2.36727H2.36456H2.29692H2.29422H2.22387H2.22116H2.15353H2.15082H2.08048H2.07777H2.01013H2.00742H1.93708H1.93437H1.86673H1.86403H1.79371H1.79101H1.72337H1.72066H1.65032H1.64761H1.57997H1.57727H1.50692H1.50421H1.43658H1.43387H1.36352H1.36082H1.29318H1.29047H1.22016H1.21745H1.14982H1.14711H1.07676H1.07406H1.00642H1.00371H0.933367H0.930659H0.863023H0.860315H0.78997H0.787262H0.719626H0.716918H0.646573H0.643898H0.576262H0.573554H0.50321H0.500502H0.432865H0.430157H0.359813H0.357105H0.289469H0.286761H0.216416H0.213708H0.146072H0.143364H0.0730194H0.0703443H0V173.011H0.0703443H0.0730194H0.143364H0.146072H0.213708H0.216416H0.286761H0.289469H0.357105H0.359813H0.430157H0.432865H0.500502H0.50321H0.573554H0.576262H0.643898H0.646573H0.716918H0.719626H0.787262H0.78997H0.860315H0.863023H0.930659H0.933367H1.00371H1.00642H1.07406H1.07676H1.14711H1.14982H1.21745H1.22016H1.29047H1.29318H1.36082H1.36352H1.43387H1.43658H1.50421H1.50692H1.57727H1.57997H1.64761H1.65032H1.72066H1.72337H1.79101H1.79371H1.86403H1.86673H1.93437H1.93708H2.00742H2.01013H2.07777H2.08048H2.15082H2.15353H2.22116H2.22387H2.29422H2.29692H2.36456H2.36727H2.43761H2.44029H2.50792H2.51063H2.58098H2.58368H2.65132H2.65403H2.72437H2.72708H2.79472H2.79743H2.86777H2.87048H2.93811H2.94082H3.01117H3.01384H3.08148H3.08419H3.15453H3.15724H3.22487H3.22758H3.29793H3.30064H3.36827H3.37098H3.44403V178.344H3.37098H3.36827Z" fill="url(#paint7_linear_278_2465)"/>
<path d="M150.921 178.344H150.85H150.78H150.777H150.707H150.637H150.634H150.564H150.493H150.491H150.42H150.35H150.347H150.277H150.207H150.204H150.133H150.063H150.06H149.99H149.92H149.917H149.847H149.776H149.774H149.703H149.633H149.63H149.56H149.49H149.487H149.417H149.346H149.344H149.273H149.203H149.2H149.13H149.127H149.059H149.057H148.986H148.984H148.916H148.913H148.843H148.84H148.773H148.77H148.7H148.697H148.629H148.627H148.556H148.554H148.486H148.483H148.413H148.41H148.342H148.34H148.269H148.267H148.199H148.196H148.126H148.123H148.056H148.053H147.983H147.98H147.912H147.91H147.839H147.837H147.769H147.766H147.696H147.693H147.626H147.623H147.55V173.011H147.623H147.626H147.693H147.696H147.766H147.769H147.837H147.839H147.91H147.912H147.98H147.983H148.053H148.056H148.123H148.126H148.196H148.199H148.267H148.269H148.34H148.342H148.41H148.413H148.483H148.486H148.554H148.556H148.627H148.629H148.697H148.7H148.77H148.773H148.84H148.843H148.913H148.916H148.984H148.986H149.057H149.059H149.127H149.13H149.2H149.203H149.273H149.344H149.346H149.417H149.487H149.49H149.56H149.63H149.633H149.703H149.774H149.776H149.847H149.917H149.92H149.99H150.06H150.063H150.133H150.204H150.207H150.277H150.347H150.35H150.42H150.491H150.493H150.564H150.634H150.637H150.707H150.777H150.78H150.85H150.921H150.923H150.994V178.344H150.923H150.921Z" fill="url(#paint8_linear_278_2465)"/>
<defs>
<linearGradient id="paint0_linear_278_2465" x1="147.328" y1="87.0775" x2="3.69019" y2="87.0775" gradientUnits="userSpaceOnUse">
<stop stop-color="#E979EE"/>
<stop offset="1" stop-color="#6427A6"/>
</linearGradient>
<radialGradient id="paint1_radial_278_2465" cx="0" cy="0" r="1" gradientUnits="userSpaceOnUse" gradientTransform="translate(75.6794 75.9458) rotate(-180) scale(132.797 199.623)">
<stop offset="0.33" stop-color="#140037" stop-opacity="0"/>
<stop offset="0.75" stop-color="#1E4275"/>
</radialGradient>
<linearGradient id="paint2_linear_278_2465" x1="-90.0767" y1="71.2423" x2="-17.852" y2="78.0662" gradientUnits="userSpaceOnUse">
<stop stop-color="#FDE699"/>
<stop offset="1" stop-color="#B1CDF6"/>
</linearGradient>
<linearGradient id="paint3_linear_278_2465" x1="-35.2177" y1="69.1794" x2="37.007" y2="76.0033" gradientUnits="userSpaceOnUse">
<stop stop-color="#FDE699"/>
<stop offset="1" stop-color="#B1CDF6"/>
</linearGradient>
<linearGradient id="paint4_linear_278_2465" x1="19.6412" y1="67.1191" x2="91.8659" y2="73.9429" gradientUnits="userSpaceOnUse">
<stop stop-color="#FDE699"/>
<stop offset="1" stop-color="#B1CDF6"/>
</linearGradient>
<linearGradient id="paint5_linear_278_2465" x1="74.4981" y1="65.0587" x2="146.723" y2="71.8826" gradientUnits="userSpaceOnUse">
<stop stop-color="#FDE699"/>
<stop offset="1" stop-color="#B1CDF6"/>
</linearGradient>
<linearGradient id="paint6_linear_278_2465" x1="-22.2603" y1="55.1798" x2="168.587" y2="80.6418" gradientUnits="userSpaceOnUse">
<stop stop-color="#AFCBF4"/>
<stop offset="1" stop-color="#AAF3D5"/>
</linearGradient>
<linearGradient id="paint7_linear_278_2465" x1="4.07981" y1="174.923" x2="-0.52646" y2="175.536" gradientUnits="userSpaceOnUse">
<stop stop-color="#AFCBF4"/>
<stop offset="1" stop-color="#AAF3D5"/>
</linearGradient>
<linearGradient id="paint8_linear_278_2465" x1="151.632" y1="174.923" x2="147.026" y2="175.536" gradientUnits="userSpaceOnUse">
<stop stop-color="#AFCBF4"/>
<stop offset="1" stop-color="#AAF3D5"/>
</linearGradient>
</defs>
</svg>
