<svg width="1002" height="305" viewBox="0 0 1002 305" fill="none" xmlns="http://www.w3.org/2000/svg">
<g clip-path="url(#clip0_278_2307)">
<path d="M766.882 305C763.406 305 760.016 303.987 757.125 302.157C754.235 303.987 750.844 305 747.368 305H729.074C723.61 305 718.708 302.596 715.354 298.789C712 302.596 707.097 305 701.633 305H674.192C670.947 305 667.801 304.134 665.044 302.548C662.288 304.146 659.141 305 655.897 305H637.603C634.359 305 631.212 304.134 628.456 302.548C625.7 304.146 622.553 305 619.309 305H582.72C577.293 305 572.366 302.657 568.987 298.826C565.621 302.633 560.706 305 555.279 305H536.985C531.521 305 526.618 302.596 523.264 298.789C519.91 302.596 515.007 305 509.543 305H491.249C488.005 305 484.858 304.134 482.102 302.548C479.346 304.146 476.199 305 472.955 305H418.072C407.986 305 399.778 296.788 399.778 286.698V222.64C399.778 217.149 402.181 212.171 406.083 208.804C405.193 207.669 404.327 206.485 403.51 205.265C401.485 202.849 399.668 200.263 398.034 197.493V210.622C398.034 220.712 389.826 228.924 379.74 228.924H344.664C344.81 229.863 344.895 230.827 344.895 231.791V240.942C344.895 241.735 344.846 242.516 344.749 243.297C350.396 246.47 354.042 252.473 354.042 259.245V277.547C354.042 284.892 349.762 291.334 343.285 294.238C340.383 300.717 333.943 305 326.601 305H280.865C277.621 305 274.475 304.134 271.718 302.548C268.962 304.146 265.815 305 262.571 305H207.688C197.602 305 189.394 296.788 189.394 286.698V277.547C189.394 267.456 197.602 259.245 207.688 259.245V250.093C197.602 250.093 189.394 241.882 189.394 231.791V228.924H127.486C126.852 228.924 126.206 228.887 125.547 228.814C124.608 228.96 123.657 229.034 122.718 229.034H88.4587C82.8485 229.034 77.9335 227.936 73.7746 225.764C70.7865 227.801 67.2374 228.924 63.5176 228.924H21.9531C15.0379 228.924 8.81782 225.08 5.69561 219.004C2.06115 215.563 0 210.805 0 205.741V21.4014C0 11.3108 8.20802 3.09917 18.2942 3.09917H69.384C76.348 3.09917 83.251 3.63604 89.8979 4.69756C96.6058 5.77129 102.887 7.95535 108.631 11.2131C111.936 6.30816 117.534 3.09917 123.828 3.09917H201.249C207.323 3.09917 212.86 6.06413 216.238 10.9081C226.971 3.67264 240.362 0 256.156 0C271.95 0 284.256 3.42861 294.696 10.2248C298.074 5.8689 303.355 3.09917 309.16 3.09917H401.461C407.425 3.09917 412.889 5.96652 416.279 10.6641C427.171 3.58723 440.659 0 456.49 0C472.321 0 485.639 3.53842 496.42 10.5299C499.762 5.99092 505.128 3.09917 511.153 3.09917H562.243C569.207 3.09917 576.11 3.63604 582.757 4.69756C591.197 6.05193 598.966 9.1633 605.832 13.9585C610.637 17.3139 614.833 21.682 618.321 26.9286C621.675 30.8697 624.517 35.4575 626.761 40.5577C630.578 49.1963 632.432 59.6774 632.432 72.6231V82.2745C632.432 97.99 629.59 110.057 623.748 119.16C623.59 119.404 623.431 119.648 623.273 119.892C623.529 120.306 623.797 120.746 624.065 121.185C628.651 128.872 631.139 138.23 631.688 149.81C631.7 150.102 631.712 150.407 631.712 150.712C631.554 190.282 632.383 201.483 632.761 204.484C632.822 204.643 632.871 204.789 632.92 204.948C634.432 204.545 636.005 204.338 637.603 204.338H655.897C661.325 204.338 666.24 206.705 669.606 210.512C671.106 208.804 672.911 207.4 674.923 206.363C674.765 206.144 674.618 205.912 674.472 205.692C664.13 193.32 658.885 176.067 658.885 154.385V72.8793C658.885 49.9528 664.727 31.9922 676.228 19.4857C688.132 6.55219 704.914 0 726.135 0C741.307 0 754.235 3.42861 764.675 10.2248C768.053 5.88111 773.334 3.09917 779.14 3.09917H818.082C821.033 3.09917 823.899 3.80686 826.473 5.13682C829.046 3.80686 831.912 3.09917 834.876 3.09917H876.44C877.233 3.09917 878.026 3.14798 878.819 3.25779C879.612 3.14798 880.404 3.09917 881.197 3.09917H929.909C937.263 3.09917 944.678 3.92887 951.971 5.57607C960.582 7.5161 968.461 11.2253 975.376 16.6062C979.766 20.0226 983.657 24.2321 986.926 29.1371C990.572 33.493 993.67 38.581 996.134 44.2547C1000.02 53.2106 1002 64.2041 1002 76.9302V103.383C1002 116.134 1000.01 127.115 996.109 136.01C992.023 145.307 986.365 152.884 979.291 158.546C972.351 164.097 964.399 167.904 955.655 169.857C952.044 170.662 948.373 171.284 944.702 171.687V210.609C944.702 220.7 936.494 228.912 926.408 228.912H884.844C879.111 228.912 873.855 226.264 870.452 221.908C859.829 228.619 846.718 232.011 831.363 232.011C824.704 232.011 818.423 231.364 812.606 230.095V250.081C812.606 256.743 809.008 262.722 803.459 265.931V268.383C803.459 269.945 803.264 271.47 802.885 272.959C803.264 274.448 803.459 275.973 803.459 277.535V286.686C803.459 296.776 795.251 304.988 785.164 304.988H766.87L766.882 305ZM709.146 260.843C709.707 261.099 710.256 261.368 710.78 261.673V247.653C710.256 247.958 709.707 248.227 709.146 248.483C708.06 250.85 706.487 252.961 704.56 254.669C706.499 256.377 708.073 258.476 709.146 260.855V260.843ZM316.222 204.338V202.971C315.954 203.435 315.673 203.886 315.405 204.338H316.222Z" fill="url(#paint0_linear_278_2307)"/>
<path d="M766.882 296.459C762.894 296.459 759.357 294.531 757.125 291.566C754.894 294.531 751.357 296.459 747.369 296.459H729.074C722.354 296.459 716.878 290.981 716.878 284.258V275.107C716.878 273.533 717.183 271.971 717.769 270.531C717.183 269.091 716.878 267.53 716.878 265.956V222.506C715.854 222.347 714.829 222.164 713.829 221.957V229.351C713.829 235.135 709.78 239.991 704.377 241.248C703.328 245.774 699.755 249.349 695.23 250.399C695.084 251.021 694.888 251.643 694.657 252.229C694.901 252.827 695.096 253.437 695.23 254.059C699.755 255.108 703.328 258.683 704.377 263.21C709.792 264.455 713.829 269.311 713.829 275.107V284.258C713.829 290.981 708.353 296.459 701.633 296.459H674.192C670.557 296.459 667.276 294.861 665.044 292.323C662.813 294.861 659.532 296.459 655.897 296.459H637.603C633.969 296.459 630.688 294.861 628.456 292.323C626.224 294.861 622.943 296.459 619.309 296.459H582.72C576.939 296.459 572.085 292.408 570.829 287.003C569.61 286.722 568.451 286.247 567.39 285.636C566.707 291.725 561.536 296.471 555.267 296.471H536.973C530.253 296.471 524.776 290.993 524.776 284.27V278.169H521.727V284.27C521.727 290.993 516.251 296.471 509.531 296.471H491.237C487.603 296.471 484.322 294.873 482.09 292.335C479.858 294.873 476.577 296.471 472.943 296.471H418.06C411.34 296.471 405.864 290.993 405.864 284.27V220.212C405.864 214.197 410.242 209.17 415.987 208.182C415.292 207.535 414.621 206.876 413.974 206.193C411.95 204.07 410.072 201.703 408.389 199.165C398.851 187.927 394.009 172.041 394.009 151.957V74.905H391.924V208.194C391.924 214.917 386.448 220.395 379.728 220.395H338.163C336.687 220.395 335.26 220.127 333.931 219.627C336.882 221.859 338.785 225.398 338.785 229.363V238.514C338.785 240.088 338.48 241.65 337.895 243.09C338.139 243.688 338.334 244.298 338.468 244.92C343.883 246.165 347.92 251.021 347.92 256.817V275.119C347.92 280.902 343.871 285.758 338.468 287.015C337.224 292.433 332.37 296.471 326.577 296.471H280.841C277.207 296.471 273.926 294.873 271.694 292.335C269.462 294.873 266.181 296.471 262.547 296.471H207.664C200.944 296.471 195.468 290.993 195.468 284.27V275.119C195.468 268.396 200.944 262.917 207.664 262.917H213.762V241.565H207.664C200.944 241.565 195.468 236.086 195.468 229.363V220.395H127.462C126.779 220.395 126.072 220.334 125.377 220.212C124.486 220.42 123.596 220.517 122.706 220.517H88.4466C81.0801 220.517 76.2748 218.272 73.1526 215.624C70.9085 218.528 67.4082 220.395 63.5055 220.395H21.9532C17.0015 220.395 12.5377 217.345 10.6839 212.83C7.79341 210.524 6.09814 207.059 6.09814 203.313V18.9613C6.09814 12.2383 11.5742 6.75982 18.2943 6.75982H69.384C76.0309 6.75982 82.6047 7.27228 88.9345 8.285C96.4595 9.49294 103.375 12.2627 109.473 16.521C110.205 17.0334 110.936 17.5825 111.644 18.156C112.058 11.799 117.364 6.75982 123.815 6.75982H201.237C206.188 6.75982 210.652 9.81018 212.506 14.3247C213.482 15.1056 214.323 16.0207 215.006 17.0457C225.361 8.16298 239.167 3.67285 256.132 3.67285C273.096 3.67285 286.817 8.23619 297.062 17.2409C297.904 11.3354 303.001 6.77202 309.136 6.77202H401.437C406.388 6.77202 410.852 9.82238 412.706 14.3247C413.572 15.0202 414.34 15.8255 414.987 16.704C425.549 8.05317 439.464 3.67285 456.466 3.67285C473.467 3.67285 488.42 8.39481 499.006 17.7045C499.64 11.5672 504.836 6.77202 511.141 6.77202H562.231C568.878 6.77202 575.451 7.28448 581.781 8.2972C589.306 9.50515 596.222 12.2749 602.32 16.5332C606.588 19.5103 610.32 23.427 613.418 28.1856C616.492 31.7484 619.102 35.9213 621.163 40.6067C624.626 48.4522 626.31 58.128 626.31 70.2074V79.8588C626.31 94.3785 623.785 105.36 618.602 113.437C617.675 114.877 616.797 116.183 615.943 117.378C616.87 118.733 617.821 120.233 618.845 121.917C622.895 128.701 625.102 137.12 625.602 147.675C625.602 147.87 625.614 148.077 625.614 148.285C625.444 190.636 626.419 201.117 626.822 203.606C627.822 206.01 628.029 208.633 627.432 211.122C627.785 211.439 628.127 211.793 628.444 212.147C630.676 209.609 633.956 207.999 637.603 207.999H655.897C662.154 207.999 667.337 212.745 668.02 218.833C669.069 218.211 670.228 217.748 671.46 217.467C672.704 212.049 677.558 208.011 683.351 208.011H686.315C685.656 207.376 685.022 206.717 684.4 206.046C682.607 204.106 680.912 201.934 679.375 199.592C669.825 188.342 664.996 172.309 664.996 151.945V70.4393C664.996 49.0867 670.289 32.5171 680.729 21.1819C691.425 9.55395 706.707 3.66064 726.147 3.66064C743.1 3.66064 756.833 8.22399 767.078 17.2287C767.919 11.3232 773.017 6.75982 779.152 6.75982H818.094C821.29 6.75982 824.265 8.01657 826.485 10.1152C828.766 7.94336 831.729 6.75982 834.888 6.75982H876.453C877.245 6.75982 878.05 6.84523 878.831 7.00385C879.624 6.84523 880.417 6.75982 881.209 6.75982H929.921C936.824 6.75982 943.8 7.54071 950.642 9.07809C958.374 10.8229 965.436 14.1539 971.644 18.9735C975.595 22.0483 979.096 25.8795 982.059 30.3452C985.413 34.2985 988.279 38.9717 990.56 44.2305C994.121 52.4177 995.914 62.5937 995.914 74.4779V100.931C995.914 112.827 994.109 122.979 990.536 131.105C986.852 139.487 981.791 146.296 975.498 151.335C969.29 156.301 962.18 159.705 954.337 161.462C949.142 162.621 943.873 163.353 938.629 163.646V208.182C938.629 214.905 933.153 220.383 926.433 220.383H884.868C879.917 220.383 875.453 217.333 873.599 212.83C872.94 212.306 872.33 211.708 871.806 211.061C861.488 219.309 847.926 223.482 831.4 223.482C822.143 223.482 813.838 222.189 806.52 219.627C806.52 219.822 806.532 220.017 806.532 220.212V247.666C806.532 253.339 802.642 258.122 797.385 259.477V265.968C797.385 267.542 797.08 269.103 796.495 270.543C797.08 271.983 797.385 273.545 797.385 275.119V284.27C797.385 290.993 791.909 296.471 785.189 296.471H766.895L766.882 296.459ZM259.9 262.905C260.522 260.514 261.852 258.391 263.657 256.804C261.12 254.572 259.522 251.289 259.522 247.653V241.553H256.473V262.905H259.912H259.9ZM594.917 254.132C597.307 254.755 599.429 256.085 601.015 257.89C603.247 255.352 606.527 253.754 610.162 253.754H625.407V250.704H610.162C606.527 250.704 603.247 249.105 601.015 246.567C599.429 248.373 597.307 249.703 594.917 250.325V254.145V254.132ZM558.011 226.606C558.633 226.752 559.255 226.947 559.84 227.191C560.438 226.947 561.048 226.752 561.67 226.606C562.597 222.567 565.536 219.285 569.378 217.882C568.073 217.198 566.963 216.43 565.999 215.612C563.755 218.504 560.255 220.371 556.352 220.371H554.364C556.145 222.006 557.438 224.166 557.999 226.606H558.011ZM487.798 218.565C489.103 219.261 490.274 220.188 491.249 221.286C492.908 219.407 495.14 218.04 497.664 217.455C498.262 214.905 499.665 212.611 501.64 210.927C501.543 210.817 501.457 210.695 501.372 210.573C497.359 213.855 492.823 216.527 487.81 218.565H487.798ZM329.333 217.455C329.845 217.577 330.345 217.723 330.833 217.906C330.15 217.394 329.516 216.796 328.943 216.149C329.089 216.576 329.223 217.015 329.321 217.455H329.333ZM317.454 207.999C320.064 207.999 322.491 208.828 324.479 210.231C323.089 208.23 322.32 205.827 322.32 203.301V74.8928H320.235C320.235 75.0392 320.235 99.2713 320.235 99.2713C320.235 105.543 315.478 110.728 309.392 111.4C312.185 112.669 314.454 114.962 315.649 117.866C318.539 120.172 320.235 123.638 320.235 127.396V156.826C320.235 178.044 315.051 194.553 304.819 205.876C304.16 206.608 303.477 207.315 302.782 207.999H317.454ZM787.457 207.999C787.14 207.694 786.823 207.376 786.506 207.047C784.445 204.936 782.53 202.545 780.81 199.933C780.542 199.616 780.274 199.299 780.005 198.969C778.444 201.459 776.7 203.765 774.798 205.863C774.139 206.595 773.456 207.303 772.761 207.986H787.457V207.999ZM194.992 152.25V144.124H181.235V152.25H194.992ZM194.992 75.9909V74.8928H181.235V75.9909H194.992Z" fill="white"/>
<path d="M987.194 45.6944C985.011 40.6674 982.303 36.2627 979.108 32.5534C976.339 28.3317 973.095 24.7445 969.387 21.865C963.606 17.3748 957.033 14.2756 949.825 12.6528C943.239 11.1765 936.543 10.42 929.908 10.42H881.197C880.368 10.42 879.575 10.542 878.819 10.7616C878.062 10.542 877.27 10.42 876.44 10.42H834.876C832.607 10.42 830.437 11.3229 828.827 12.9335C827.741 14.0194 826.997 15.386 826.631 16.8501C826.522 16.7769 826.412 16.7037 826.29 16.6305C825.278 13.0555 821.985 10.4322 818.082 10.4322H779.139C774.42 10.4322 770.602 14.2512 770.602 18.9732V26.3307C769.907 25.44 769.2 24.5615 768.443 23.7318C758.613 12.8481 744.38 7.33301 726.135 7.33301C707.889 7.33301 693.388 12.8237 683.412 23.6708C673.618 34.3104 668.642 50.0503 668.642 70.4512V151.957C668.642 171.565 673.24 186.829 682.302 197.407C683.741 199.616 685.327 201.678 687.083 203.569C690.01 206.729 693.327 209.426 696.998 211.671H683.351C678.631 211.671 674.813 215.49 674.813 220.212V220.822H674.204C669.484 220.822 665.666 224.641 665.666 229.363V229.973H665.057C664.849 229.973 664.654 229.973 664.447 229.998V220.212C664.447 215.49 660.629 211.671 655.909 211.671H637.615C632.895 211.671 629.078 215.49 629.078 220.212V220.859C628.871 220.846 628.675 220.822 628.468 220.822H627.858V220.212C627.858 216.808 625.87 213.879 622.992 212.513C623.102 212.318 623.224 212.135 623.309 211.939C624.395 209.609 624.37 206.961 623.309 204.692C622.785 202.056 621.785 191.368 621.968 148.297C621.968 148.15 621.968 148.004 621.968 147.857C621.504 137.925 619.467 130.08 615.747 123.82C614.235 121.307 612.808 119.159 611.454 117.341C612.759 115.67 614.113 113.73 615.565 111.472C620.358 104.005 622.699 93.6584 622.699 79.8707V70.2193C622.699 58.6646 621.114 49.4647 617.857 42.095C615.869 37.5926 613.406 33.7004 610.528 30.406C607.674 25.989 604.246 22.3408 600.271 19.5467C594.624 15.6056 588.221 13.0311 581.245 11.9208C575.11 10.9446 568.719 10.4444 562.267 10.4444H511.178C506.458 10.4444 502.64 14.2634 502.64 18.9854V26.8675C501.762 25.745 500.86 24.6469 499.896 23.622C489.761 12.8237 475.162 7.34521 456.514 7.34521C437.866 7.34521 423.853 12.604 413.633 22.9387C413.352 20.2788 411.84 17.9971 409.693 16.6427C408.681 13.0677 405.388 10.4444 401.485 10.4444H309.185C304.465 10.4444 300.647 14.2634 300.647 18.9854V26.3429C299.952 25.4522 299.245 24.5737 298.489 23.744C288.659 12.8603 274.426 7.34521 256.18 7.34521C237.935 7.34521 223.446 12.8359 213.457 23.683C213.396 20.718 211.823 18.1313 209.481 16.6427C208.469 13.0677 205.176 10.4444 201.273 10.4444H123.852C119.132 10.4444 115.315 14.2634 115.315 18.9854V27.0506C112.985 24.11 110.351 21.5965 107.424 19.5467C101.777 15.6056 95.3739 13.0311 88.3977 11.9208C82.263 10.9446 75.8722 10.4444 69.4205 10.4444H18.2941C13.5742 10.4444 9.75684 14.2634 9.75684 18.9854V203.313C9.75684 206.351 11.3545 209.023 13.745 210.536C14.7573 214.111 18.0502 216.735 21.953 216.735H63.5175C68.1764 216.735 71.9695 212.989 72.0548 208.352C74.3843 213.123 79.4579 216.857 88.4587 216.857H122.718C123.608 216.857 124.474 216.71 125.303 216.442C125.998 216.625 126.73 216.735 127.486 216.735H199.907C199.432 217.796 199.163 218.98 199.163 220.212V229.363C199.163 234.085 202.981 237.904 207.701 237.904H217.457V266.577H207.701C202.981 266.577 199.163 270.397 199.163 275.119V284.27C199.163 288.992 202.981 292.811 207.701 292.811H262.583C267.303 292.811 271.121 288.992 271.121 284.27V283.623C271.328 283.635 271.523 283.66 271.73 283.66H272.34V284.27C272.34 288.992 276.158 292.811 280.878 292.811H326.613C331.333 292.811 335.15 288.992 335.15 284.27V283.66H335.76C340.48 283.66 344.298 279.84 344.298 275.119V256.816C344.298 252.094 340.48 248.275 335.76 248.275H335.15V247.665C335.15 245.981 334.663 244.407 333.821 243.09C334.663 241.772 335.15 240.198 335.15 238.514V229.363C335.15 224.641 331.333 220.822 326.613 220.822H326.003V220.212C326.003 215.49 322.186 211.671 317.466 211.671H292.232C295.903 209.389 299.208 206.656 302.123 203.435C311.722 192.807 316.588 177.129 316.588 156.838V127.408C316.588 124.369 314.99 121.697 312.6 120.184C311.587 116.609 308.294 113.986 304.392 113.986H265.803C264.01 113.986 262.339 114.547 260.973 115.499V101.443C261.071 101.504 261.156 101.577 261.266 101.638C262.291 105.213 265.571 107.836 269.474 107.836H308.063C312.783 107.836 316.6 104.017 316.6 99.2954V75.344C316.6 73.953 316.576 72.5986 316.527 71.2565H326.003V203.325C326.003 206.363 327.601 209.035 329.991 210.548C331.004 214.123 334.297 216.747 338.199 216.747H379.764C384.484 216.747 388.301 212.928 388.301 208.206V71.2199H397.704V151.933C397.704 171.26 402.302 186.377 411.352 196.944C412.938 199.36 414.694 201.605 416.645 203.642C419.633 206.766 422.999 209.426 426.719 211.647H418.096C413.377 211.647 409.559 215.466 409.559 220.188V284.245C409.559 288.967 413.377 292.786 418.096 292.786H472.979C477.699 292.786 481.517 288.967 481.517 284.245V283.635H482.126C482.334 283.635 482.529 283.623 482.736 283.599V284.245C482.736 288.967 486.554 292.786 491.273 292.786H509.568C514.288 292.786 518.105 288.967 518.105 284.245V274.484H528.472V284.245C528.472 288.967 532.289 292.786 537.009 292.786H555.303C560.023 292.786 563.841 288.967 563.841 284.245V274.447C564.048 274.46 564.243 274.484 564.45 274.484H565.06V275.094C565.06 279.816 568.878 283.635 573.598 283.635H574.207V284.245C574.207 288.967 578.025 292.786 582.745 292.786H619.333C624.053 292.786 627.87 288.967 627.87 284.245V283.635H628.48C628.688 283.635 628.883 283.623 629.09 283.599V284.245C629.09 288.967 632.907 292.786 637.627 292.786H655.922C660.642 292.786 664.459 288.967 664.459 284.245V283.611C664.666 283.623 664.861 283.635 665.069 283.635H665.679V284.245C665.679 288.967 669.496 292.786 674.216 292.786H701.657C706.377 292.786 710.195 288.967 710.195 284.245V275.094C710.195 270.372 706.377 266.553 701.657 266.553H701.047V265.943C701.047 261.221 697.23 257.402 692.51 257.402H691.9V256.792C691.9 255.108 691.412 253.534 690.571 252.216C691.412 250.899 691.9 249.325 691.9 247.641V247.031H692.51C697.23 247.031 701.047 243.212 701.047 238.49V237.88H701.657C706.377 237.88 710.195 234.061 710.195 229.339V220.188C710.195 219.114 709.987 218.089 709.621 217.137C713.073 218.138 716.732 218.858 720.598 219.297C720.573 219.59 720.549 219.883 720.549 220.188V265.943C720.549 267.627 721.037 269.201 721.878 270.519C721.037 271.836 720.549 273.41 720.549 275.094V284.245C720.549 288.967 724.366 292.786 729.086 292.786H747.381C752.101 292.786 755.918 288.967 755.918 284.245V275.094C755.918 273.41 755.43 271.836 754.589 270.519C755.43 269.201 755.918 267.627 755.918 265.943V256.182H756.528C757.162 256.182 757.772 256.109 758.357 255.974V265.943C758.357 267.627 758.845 269.201 759.687 270.519C758.845 271.836 758.357 273.41 758.357 275.094V284.245C758.357 288.967 762.175 292.786 766.894 292.786H785.189C789.909 292.786 793.726 288.967 793.726 284.245V275.094C793.726 273.41 793.238 271.836 792.397 270.519C793.238 269.201 793.726 267.627 793.726 265.943V256.182H794.336C799.056 256.182 802.873 252.363 802.873 247.641V220.188C802.873 215.466 799.056 211.647 794.336 211.647H766.894C764.943 211.647 763.15 212.305 761.711 213.416C761.333 213.123 760.943 212.867 760.516 212.647C764.87 210.195 768.748 207.12 772.102 203.411C775.066 200.128 777.578 196.358 779.639 192.124C780.883 194.113 782.249 195.992 783.762 197.737C785.359 200.189 787.152 202.447 789.14 204.496C799.068 214.66 813.276 219.822 831.4 219.822C849.523 219.822 862.939 214.904 872.904 205.216C873.416 207.449 874.794 209.34 876.672 210.524C877.684 214.099 880.977 216.722 884.88 216.722H926.445C931.165 216.722 934.982 212.903 934.982 208.181V160.108C941.165 160.01 947.41 159.266 953.557 157.887C960.838 156.252 967.46 153.092 973.229 148.48C979.059 143.819 983.754 137.474 987.206 129.64C990.572 121.99 992.279 112.327 992.279 100.943V74.4899C992.279 63.1181 990.584 53.4301 987.23 45.7066L987.194 45.6944ZM198.651 80.2123C197.712 79.8585 196.7 79.6511 195.639 79.6511H177.588V71.2321H198.663V80.2123H198.651ZM177.588 140.451H198.663V151.933C198.663 153.275 198.688 154.605 198.736 155.898H177.6V140.451H177.588ZM213.872 211.659C214.347 210.597 214.616 209.414 214.616 208.181V200.616C215.408 201.629 216.213 202.617 217.079 203.557C220.006 206.717 223.324 209.414 226.995 211.659H213.86H213.872ZM271.718 257.414C266.998 257.414 263.181 261.233 263.181 265.955V266.602C262.974 266.59 262.778 266.565 262.571 266.565H252.814V237.892H262.571C262.778 237.892 262.974 237.88 263.181 237.855V247.653C263.181 252.375 266.998 256.194 271.718 256.194H272.328V256.804C272.328 257.012 272.328 257.207 272.352 257.414H271.718ZM298.55 237.892H299.769V238.502C299.769 238.709 299.769 238.905 299.794 239.112H298.55V237.892ZM308.916 265.345V266.565H298.55V265.955C298.55 265.748 298.55 265.553 298.525 265.345H308.916ZM272.328 220.2V220.81H271.718C271.511 220.81 271.316 220.822 271.108 220.846V220.2C271.108 219.809 271.072 219.419 271.023 219.028C271.499 218.955 271.986 218.894 272.45 218.821C272.377 219.272 272.328 219.724 272.328 220.2ZM455.27 266.565H444.904V265.345H455.27V266.565ZM455.27 239.112H444.904V237.892H455.27V239.112ZM501.006 220.2V220.81H500.396C495.676 220.81 491.859 224.629 491.859 229.351V229.961H491.249C491.042 229.961 490.847 229.973 490.639 229.998V229.351C490.639 224.629 486.822 220.81 482.102 220.81H481.492V220.2C481.492 219.102 481.273 218.052 480.895 217.088C489.529 214.587 496.823 210.353 502.689 204.423C503.031 206.986 504.506 209.194 506.592 210.512C506.738 211.024 506.933 211.525 507.165 211.988C503.604 213.013 500.994 216.295 500.994 220.188L501.006 220.2ZM528.447 248.263H518.081V247.043H518.69C520.374 247.043 521.947 246.555 523.264 245.713C524.581 246.555 526.154 247.043 527.838 247.043H528.447V248.263ZM574.183 220.81H573.573C568.853 220.81 565.036 224.629 565.036 229.351V229.961H564.426C562.743 229.961 561.17 230.461 559.852 231.303C558.535 230.461 556.962 229.961 555.279 229.961H554.669V229.351C554.669 224.629 550.852 220.81 546.132 220.81H545.522V220.2C545.522 218.955 545.254 217.784 544.778 216.722H556.377C561.036 216.722 564.828 212.976 564.914 208.34C566.646 211.903 569.914 214.88 575.207 216.161C574.561 217.369 574.195 218.736 574.195 220.2V220.81H574.183ZM628.456 257.414H610.162C605.442 257.414 601.624 261.233 601.624 265.955V266.565H600.405V265.955C600.405 261.233 596.587 257.414 591.867 257.414H591.258V247.043H591.867C596.587 247.043 600.405 243.224 600.405 238.502V237.892H601.624V238.502C601.624 243.224 605.442 247.043 610.162 247.043H628.456C628.663 247.043 628.858 247.031 629.066 247.006V257.439C628.858 257.426 628.663 257.402 628.456 257.402V257.414ZM731.221 101.614C732.245 105.189 735.526 107.812 739.429 107.812H770.59V113.974H735.77C733.977 113.974 732.306 114.535 730.94 115.487V101.431C731.038 101.492 731.123 101.565 731.233 101.626L731.221 101.614Z" fill="url(#paint1_linear_278_2307)"/>
<path d="M78.4092 139.646C78.0921 137.974 77.4579 136.424 76.5066 134.997C75.5553 133.569 74.2015 132.593 72.4574 132.081C70.7134 131.568 68.4815 131.312 65.7861 131.312H63.5176V203.166H21.9531V18.8267H73.0428C79.0799 18.8267 84.9585 19.2903 90.6663 20.1932C96.3863 21.1083 101.545 23.1704 106.155 26.3916C110.766 29.6128 114.437 34.3103 117.169 40.5087C119.9 46.707 121.279 54.9308 121.279 65.1678V74.8192C121.279 86.8132 119.352 95.8057 115.498 101.809C111.644 107.812 108.57 111.241 106.265 112.119C108.57 113.071 111.668 116.768 115.559 123.198C118.498 128.127 120.169 134.802 120.559 143.221C120.401 181.35 121.12 201.373 122.706 203.276H88.7637C82.2509 203.349 78.9946 200.97 78.9946 196.126C78.9092 160.144 78.7141 141.317 78.397 139.646H78.4092ZM69.9572 92.3405C73.6892 92.3405 76.2139 91.645 77.5188 90.254C78.8238 88.8631 79.4824 86.2276 79.4824 82.3353V67.6813C79.4824 63.6304 78.8238 60.9461 77.5188 59.6406C76.2139 58.335 73.6892 57.6761 69.9572 57.6761H63.5298V92.3527H69.9572V92.3405Z" fill="url(#paint2_linear_278_2307)"/>
<path d="M169.051 164.317H206.091V203.166H127.487V18.8267H204.908V57.6761H169.063V88.0578H199.31V126.907H169.063V164.317H169.051Z" fill="url(#paint3_linear_278_2307)"/>
<path d="M252.412 167.648H261.108C266.669 167.648 269.45 164.158 269.45 157.167V122.368H308.038V151.798C308.038 169.991 303.953 183.608 295.769 192.673C287.585 201.727 275.597 206.253 259.803 206.253C244.009 206.253 231.69 201.739 223.36 192.734C215.03 183.73 210.859 170.076 210.859 151.81V70.3047C210.859 52.0391 215.03 38.3735 223.36 29.32C231.69 20.2665 243.85 15.7397 259.803 15.7397C275.755 15.7397 287.598 20.2665 295.769 29.32C303.953 38.3735 308.038 52.0391 308.038 70.3047V94.2562H269.45V64.9483C269.45 57.8836 266.669 54.3452 261.108 54.3452C255.546 54.3452 252.412 57.847 252.412 64.8262V167.66V167.648Z" fill="url(#paint4_linear_278_2307)"/>
<path d="M405.108 57.6761H379.74V203.166H338.175V57.6761H312.807V18.8267H405.108V57.6761Z" fill="url(#paint5_linear_278_2307)"/>
<path d="M409.876 70.3047C409.876 52.0391 414.182 38.3735 422.804 29.32C431.415 20.2665 443.867 15.7397 460.149 15.7397C476.431 15.7397 488.81 20.2665 497.311 29.32C505.811 38.3735 510.056 52.0391 510.056 70.3047V151.81C510.056 170.076 505.811 183.73 497.311 192.734C488.81 201.751 476.431 206.253 460.149 206.253C443.867 206.253 431.427 201.739 422.804 192.734C414.194 183.717 409.876 170.076 409.876 151.81V70.3047ZM451.441 157.167C451.441 164.158 454.344 167.648 460.137 167.648C465.93 167.648 468.479 164.158 468.479 157.167V64.9361C468.479 57.8714 465.698 54.333 460.137 54.333C454.575 54.333 451.441 57.8714 451.441 64.9361V157.167Z" fill="url(#paint6_linear_278_2307)"/>
<path d="M571.256 139.646C570.939 137.974 570.305 136.424 569.353 134.997C568.402 133.569 567.048 132.593 565.304 132.081C563.56 131.568 561.328 131.312 558.633 131.312H556.365V203.166H514.8V18.8267H565.89C571.927 18.8267 577.805 19.2903 583.513 20.1932C589.233 21.1083 594.392 23.1704 599.002 26.3916C603.613 29.6128 607.284 34.3103 610.015 40.5087C612.747 46.707 614.126 54.9308 614.126 65.1678V74.8192C614.126 86.8132 612.199 95.8057 608.345 101.809C604.491 107.812 601.417 111.241 599.112 112.119C601.417 113.071 604.515 116.768 608.406 123.198C611.345 128.127 613.016 134.802 613.406 143.221C613.247 181.35 613.967 201.373 615.553 203.276H581.611C575.098 203.349 571.841 200.97 571.841 196.126C571.756 160.144 571.561 141.317 571.244 139.646H571.256ZM562.804 92.3405C566.536 92.3405 569.061 91.645 570.366 90.254C571.671 88.8631 572.329 86.2276 572.329 82.3353V67.6813C572.329 63.6304 571.671 60.9461 570.366 59.6406C569.061 58.335 566.536 57.6761 562.804 57.6761H556.377V92.3527H562.804V92.3405Z" fill="url(#paint7_linear_278_2307)"/>
<path d="M722.403 167.648H731.099C736.66 167.648 739.441 164.158 739.441 157.167V122.368H778.03V151.798C778.03 169.991 773.944 183.608 765.76 192.673C757.577 201.727 745.588 206.253 729.794 206.253C714 206.253 701.682 201.739 693.352 192.734C685.022 183.73 680.851 170.076 680.851 151.81V70.3047C680.851 52.0391 685.022 38.3735 693.352 29.32C701.682 20.2665 713.841 15.7397 729.794 15.7397C745.746 15.7397 757.589 20.2665 765.76 29.32C773.944 38.3735 778.03 52.0391 778.03 70.3047V94.2562H739.441V64.9483C739.441 57.8836 736.66 54.3452 731.099 54.3452C725.537 54.3452 722.403 57.847 722.403 64.8262V167.66V167.648Z" fill="url(#paint8_linear_278_2307)"/>
<path d="M830.071 167.648H838.888L838.535 18.8267H880.099V154.544C880.099 172.016 875.916 185.011 867.537 193.503C859.158 202.007 847.109 206.253 831.388 206.253C815.667 206.253 803.532 202.007 795.238 193.503C786.945 184.998 782.786 172.016 782.786 154.544V18.8267H821.728V157.643C821.728 164.317 824.509 167.648 830.071 167.648Z" fill="url(#paint9_linear_278_2307)"/>
<path d="M926.42 203.154H884.856V18.8267H933.567C939.605 18.8267 945.617 19.4977 951.606 20.8521C957.606 22.2065 962.997 24.7444 967.802 28.478C972.607 32.2117 976.461 37.4095 979.352 44.0837C982.254 50.7579 983.694 59.2135 983.694 69.4627V95.9155C983.694 106.165 982.242 114.584 979.352 121.173C976.449 127.761 972.62 132.971 967.863 136.778C963.107 140.585 957.704 143.172 951.666 144.526C945.629 145.881 939.592 146.552 933.567 146.552H926.42V203.154ZM926.42 57.6761V107.727H932.372C936.104 107.727 938.665 106.994 940.056 105.518C941.446 104.054 942.141 101.284 942.141 97.2333V67.9254C942.141 63.8745 941.446 61.1535 940.056 59.7626C938.665 58.3716 936.104 57.6761 932.372 57.6761H926.42Z" fill="url(#paint10_linear_278_2307)"/>
<path d="M74.7502 134.765C74.4331 133.094 73.7989 131.544 72.8476 130.116C71.8963 128.689 70.5425 127.713 68.7985 127.2C67.0544 126.688 64.8225 126.432 62.1272 126.432H59.8587V198.286H18.2942V13.9463H69.3839C75.421 13.9463 81.2996 14.4099 87.0074 15.3129C92.7274 16.228 97.8863 18.29 102.496 21.5112C107.107 24.7324 110.778 29.4299 113.51 35.6283C116.242 41.8266 117.62 50.0504 117.62 60.2874V69.9388C117.62 81.9328 115.693 90.9253 111.839 96.9285C107.985 102.932 104.911 106.36 102.606 107.239C104.911 108.19 108.009 111.887 111.9 118.318C114.839 123.247 116.51 129.921 116.9 138.34C116.742 176.47 117.461 196.492 119.047 198.396H85.1048C78.592 198.469 75.3356 196.09 75.3356 191.246C75.2503 155.264 75.0551 136.437 74.738 134.765H74.7502ZM66.2983 87.4601C70.0303 87.4601 72.5549 86.7646 73.8599 85.3737C75.1649 83.9827 75.8235 81.3472 75.8235 77.4549V62.801C75.8235 58.7501 75.1649 56.0657 73.8599 54.7602C72.5549 53.4546 70.0303 52.7957 66.2983 52.7957H59.8709V87.4723H66.2983V87.4601Z" fill="url(#paint11_linear_278_2307)"/>
<path d="M165.392 159.437H202.432V198.286H123.828V13.9463H201.249V52.7957H165.404V83.1774H195.651V122.027H165.404V159.437H165.392Z" fill="url(#paint12_linear_278_2307)"/>
<path d="M248.753 162.768H257.449C263.01 162.768 265.791 159.278 265.791 152.287V117.488H304.379V146.918C304.379 165.11 300.294 178.727 292.11 187.793C283.926 196.846 271.938 201.373 256.144 201.373C240.35 201.373 228.031 196.859 219.702 187.854C211.372 178.849 207.2 165.196 207.2 146.93V65.4243C207.2 47.1587 211.372 33.4931 219.702 24.4396C228.031 15.3861 240.191 10.8594 256.144 10.8594C272.096 10.8594 283.939 15.3861 292.11 24.4396C300.294 33.4931 304.379 47.1587 304.379 65.4243V89.3758H265.791V60.0679C265.791 53.0032 263.01 49.4648 257.449 49.4648C251.887 49.4648 248.753 52.9666 248.753 59.9459V162.78V162.768Z" fill="url(#paint13_linear_278_2307)"/>
<path d="M401.449 52.7957H376.081V198.286H334.516V52.7957H309.148V13.9463H401.449V52.7957Z" fill="url(#paint14_linear_278_2307)"/>
<path d="M406.218 65.4243C406.218 47.1587 410.523 33.4931 419.145 24.4396C427.756 15.3861 440.208 10.8594 456.49 10.8594C472.772 10.8594 485.151 15.3861 493.652 24.4396C502.153 33.4931 506.397 47.1587 506.397 65.4243V146.93C506.397 165.196 502.153 178.849 493.652 187.854C485.151 196.871 472.772 201.373 456.49 201.373C440.208 201.373 427.768 196.859 419.145 187.854C410.535 178.837 406.218 165.196 406.218 146.93V65.4243ZM447.782 152.287C447.782 159.278 450.685 162.768 456.478 162.768C462.271 162.768 464.82 159.278 464.82 152.287V60.0557C464.82 52.991 462.039 49.4526 456.478 49.4526C450.916 49.4526 447.782 52.991 447.782 60.0557V152.287Z" fill="url(#paint15_linear_278_2307)"/>
<path d="M567.597 134.765C567.28 133.094 566.646 131.544 565.695 130.116C564.743 128.689 563.389 127.713 561.645 127.2C559.901 126.688 557.669 126.432 554.974 126.432H552.706V198.286H511.141V13.9463H562.231C568.268 13.9463 574.146 14.4099 579.854 15.3129C585.574 16.228 590.733 18.29 595.343 21.5112C599.954 24.7324 603.625 29.4299 606.357 35.6283C609.088 41.8266 610.467 50.0504 610.467 60.2874V69.9388C610.467 81.9328 608.54 90.9253 604.686 96.9285C600.832 102.932 597.758 106.36 595.453 107.239C597.758 108.19 600.856 111.887 604.747 118.318C607.686 123.247 609.357 129.921 609.747 138.34C609.589 176.47 610.308 196.492 611.894 198.396H577.952C571.439 198.469 568.183 196.09 568.183 191.246C568.097 155.264 567.902 136.437 567.585 134.765H567.597ZM559.145 87.4601C562.877 87.4601 565.402 86.7646 566.707 85.3737C568.012 83.9827 568.67 81.3472 568.67 77.4549V62.801C568.67 58.7501 568.012 56.0657 566.707 54.7602C565.402 53.4546 562.877 52.7957 559.145 52.7957H552.718V87.4723H559.145V87.4601Z" fill="url(#paint16_linear_278_2307)"/>
<path d="M718.744 162.768H727.44C733.002 162.768 735.782 159.278 735.782 152.287V117.488H774.371V146.918C774.371 165.11 770.285 178.727 762.102 187.793C753.918 196.846 741.929 201.373 726.135 201.373C710.341 201.373 698.023 196.859 689.693 187.854C681.363 178.849 677.192 165.196 677.192 146.93V65.4243C677.192 47.1587 681.363 33.4931 689.693 24.4396C698.023 15.3861 710.183 10.8594 726.135 10.8594C742.088 10.8594 753.93 15.3861 762.102 24.4396C770.285 33.4931 774.371 47.1587 774.371 65.4243V89.3758H735.782V60.0679C735.782 53.0032 733.002 49.4648 727.44 49.4648C721.879 49.4648 718.744 52.9666 718.744 59.9459V162.78V162.768Z" fill="url(#paint17_linear_278_2307)"/>
<path d="M826.412 162.768H835.23L834.876 13.9463H876.441V149.663C876.441 167.136 872.257 180.13 863.879 188.622C855.5 197.127 843.45 201.373 827.729 201.373C812.008 201.373 799.873 197.127 791.58 188.622C783.286 180.118 779.127 167.136 779.127 149.663V13.9463H818.07V152.762C818.07 159.437 820.85 162.768 826.412 162.768Z" fill="url(#paint18_linear_278_2307)"/>
<path d="M922.761 198.274H881.197V13.9463H929.908C935.946 13.9463 941.958 14.6174 947.947 15.9717C953.947 17.3261 959.338 19.864 964.143 23.5976C968.948 27.3313 972.802 32.5291 975.693 39.2033C978.596 45.8775 980.035 54.3331 980.035 64.5824V91.0351C980.035 101.284 978.583 109.703 975.693 116.292C972.79 122.881 968.961 128.091 964.204 131.898C959.448 135.705 954.045 138.291 948.008 139.646C941.97 141 935.933 141.671 929.908 141.671H922.761V198.274ZM922.761 52.7957V102.846H928.713C932.445 102.846 935.006 102.114 936.397 100.638C937.787 99.1735 938.482 96.4038 938.482 92.3529V63.045C938.482 58.9941 937.787 56.2732 936.397 54.8822C935.006 53.4912 932.445 52.7957 928.713 52.7957H922.761Z" fill="url(#paint19_linear_278_2307)"/>
<path d="M207.688 219.761V215.185H262.571V224.336H244.277V270.092H262.571V279.243H207.688V270.092H225.983V224.336H207.688V219.761Z" fill="url(#paint20_linear_278_2307)"/>
<path d="M280.865 219.761V215.185H317.454V224.336H326.601V233.487H308.307V224.336H290.013V242.638H326.601V251.789H335.748V270.092H326.601V279.243H280.865V270.092H271.718V260.941H290.013V270.092H317.454V251.789H280.865V242.638H271.718V224.336H280.865V219.761Z" fill="url(#paint21_linear_278_2307)"/>
<path d="M418.072 247.214V215.185H472.955V224.336H482.102V242.638H472.955V251.789H482.102V270.092H472.955V279.243H418.072V247.214ZM463.808 233.487V224.336H436.367V242.638H463.808V233.487ZM463.808 260.941V251.789H436.367V270.092H463.808V260.941Z" fill="url(#paint22_linear_278_2307)"/>
<path d="M509.544 219.761V215.185H536.985V224.336H546.132V233.487H555.279V279.243H536.985V260.941H509.544V279.243H491.249V233.487H500.396V224.336H509.544V219.761ZM527.838 228.912V224.336H518.691V233.487H509.544V251.789H536.985V233.487H527.838V228.912Z" fill="url(#paint23_linear_278_2307)"/>
<path d="M582.721 219.761V215.185H619.309V224.336H628.456V233.487H610.162V224.336H591.868V233.487H582.721V260.941H591.868V270.092H610.162V260.941H628.456V270.092H619.309V279.243H582.721V270.092H573.573V260.941H564.426V233.487H573.573V224.336H582.721V219.761Z" fill="url(#paint24_linear_278_2307)"/>
<path d="M637.603 247.214V215.185H655.897V242.638H665.044V233.487H674.192V224.336H683.339V215.185H701.633V224.336H692.486V233.487H683.339V242.638H674.192V251.789H683.339V260.941H692.486V270.092H701.633V279.243H674.192V270.092H665.044V260.941H655.897V279.243H637.603V247.214Z" fill="url(#paint25_linear_278_2307)"/>
<path d="M729.074 238.063V215.185H756.516V242.638H747.368V260.941H729.074V238.063ZM729.074 274.667V270.092H747.368V279.243H729.074V274.667Z" fill="url(#paint26_linear_278_2307)"/>
<path d="M766.882 238.063V215.185H794.324V242.638H785.177V260.941H766.882V238.063ZM766.882 274.667V270.092H785.177V279.243H766.882V274.667Z" fill="url(#paint27_linear_278_2307)"/>
</g>
<defs>
<linearGradient id="paint0_linear_278_2307" x1="0" y1="152.494" x2="1002" y2="152.494" gradientUnits="userSpaceOnUse">
<stop stop-color="#190A2A"/>
<stop offset="1" stop-color="#0F213A"/>
</linearGradient>
<linearGradient id="paint1_linear_278_2307" x1="501.006" y1="380.417" x2="501.006" y2="23.5976" gradientUnits="userSpaceOnUse">
<stop stop-color="#190A2A"/>
<stop offset="1" stop-color="#0F213A"/>
</linearGradient>
<linearGradient id="paint2_linear_278_2307" x1="76.47" y1="-22.5729" x2="69.5365" y2="201.36" gradientUnits="userSpaceOnUse">
<stop stop-color="#A27DCB"/>
<stop offset="1" stop-color="#6427A8"/>
</linearGradient>
<linearGradient id="paint3_linear_278_2307" x1="170.82" y1="-19.6568" x2="163.886" y2="204.277" gradientUnits="userSpaceOnUse">
<stop stop-color="#A27DCB"/>
<stop offset="1" stop-color="#6427A8"/>
</linearGradient>
<linearGradient id="paint4_linear_278_2307" x1="263.4" y1="-16.7894" x2="256.467" y2="207.144" gradientUnits="userSpaceOnUse">
<stop stop-color="#A27DCB"/>
<stop offset="1" stop-color="#6427A8"/>
</linearGradient>
<linearGradient id="paint5_linear_278_2307" x1="360.567" y1="-13.7878" x2="353.634" y2="210.145" gradientUnits="userSpaceOnUse">
<stop stop-color="#A27DCB"/>
<stop offset="1" stop-color="#6427A8"/>
</linearGradient>
<linearGradient id="paint6_linear_278_2307" x1="463.71" y1="-10.591" x2="456.789" y2="213.342" gradientUnits="userSpaceOnUse">
<stop stop-color="#A27DCB"/>
<stop offset="1" stop-color="#6427A8"/>
</linearGradient>
<linearGradient id="paint7_linear_278_2307" x1="568.841" y1="-7.34548" x2="561.908" y2="216.6" gradientUnits="userSpaceOnUse">
<stop stop-color="#A27DCB"/>
<stop offset="1" stop-color="#6427A8"/>
</linearGradient>
<linearGradient id="paint8_linear_278_2307" x1="732.928" y1="-2.26962" x2="725.995" y2="221.676" gradientUnits="userSpaceOnUse">
<stop stop-color="#A27DCB"/>
<stop offset="1" stop-color="#6427A8"/>
</linearGradient>
<linearGradient id="paint9_linear_278_2307" x1="834.12" y1="0.866107" x2="827.186" y2="224.799" gradientUnits="userSpaceOnUse">
<stop stop-color="#A27DCB"/>
<stop offset="1" stop-color="#6427A8"/>
</linearGradient>
<linearGradient id="paint10_linear_278_2307" x1="935.958" y1="4.01408" x2="929.024" y2="227.947" gradientUnits="userSpaceOnUse">
<stop stop-color="#A27DCB"/>
<stop offset="1" stop-color="#6427A8"/>
</linearGradient>
<linearGradient id="paint11_linear_278_2307" x1="72.811" y1="-27.4533" x2="65.8776" y2="196.48" gradientUnits="userSpaceOnUse">
<stop stop-color="#F7C9F9"/>
<stop offset="1" stop-color="white"/>
</linearGradient>
<linearGradient id="paint12_linear_278_2307" x1="167.161" y1="-24.5371" x2="160.227" y2="199.396" gradientUnits="userSpaceOnUse">
<stop stop-color="#F7C9F9"/>
<stop offset="1" stop-color="white"/>
</linearGradient>
<linearGradient id="paint13_linear_278_2307" x1="259.742" y1="-21.6697" x2="252.808" y2="202.264" gradientUnits="userSpaceOnUse">
<stop stop-color="#F7C9F9"/>
<stop offset="1" stop-color="white"/>
</linearGradient>
<linearGradient id="paint14_linear_278_2307" x1="356.908" y1="-18.6682" x2="349.975" y2="205.265" gradientUnits="userSpaceOnUse">
<stop stop-color="#F7C9F9"/>
<stop offset="1" stop-color="white"/>
</linearGradient>
<linearGradient id="paint15_linear_278_2307" x1="460.051" y1="-15.4714" x2="453.13" y2="208.462" gradientUnits="userSpaceOnUse">
<stop stop-color="#F7C9F9"/>
<stop offset="1" stop-color="white"/>
</linearGradient>
<linearGradient id="paint16_linear_278_2307" x1="565.182" y1="-12.2259" x2="558.249" y2="211.72" gradientUnits="userSpaceOnUse">
<stop stop-color="#F7C9F9"/>
<stop offset="1" stop-color="white"/>
</linearGradient>
<linearGradient id="paint17_linear_278_2307" x1="729.269" y1="-7.14999" x2="722.336" y2="216.796" gradientUnits="userSpaceOnUse">
<stop stop-color="#F7C9F9"/>
<stop offset="1" stop-color="white"/>
</linearGradient>
<linearGradient id="paint18_linear_278_2307" x1="830.461" y1="-4.01426" x2="823.528" y2="219.919" gradientUnits="userSpaceOnUse">
<stop stop-color="#F7C9F9"/>
<stop offset="1" stop-color="white"/>
</linearGradient>
<linearGradient id="paint19_linear_278_2307" x1="932.299" y1="-0.866289" x2="925.365" y2="223.067" gradientUnits="userSpaceOnUse">
<stop stop-color="#F7C9F9"/>
<stop offset="1" stop-color="white"/>
</linearGradient>
<linearGradient id="paint20_linear_278_2307" x1="235.13" y1="298.899" x2="235.13" y2="218.833" gradientUnits="userSpaceOnUse">
<stop stop-color="white"/>
<stop offset="1" stop-color="#ADF5D7"/>
</linearGradient>
<linearGradient id="paint21_linear_278_2307" x1="303.733" y1="298.899" x2="303.733" y2="218.833" gradientUnits="userSpaceOnUse">
<stop stop-color="white"/>
<stop offset="1" stop-color="#ADF5D7"/>
</linearGradient>
<linearGradient id="paint22_linear_278_2307" x1="450.087" y1="298.899" x2="450.087" y2="218.833" gradientUnits="userSpaceOnUse">
<stop stop-color="white"/>
<stop offset="1" stop-color="#ADF5D7"/>
</linearGradient>
<linearGradient id="paint23_linear_278_2307" x1="523.264" y1="298.899" x2="523.264" y2="218.833" gradientUnits="userSpaceOnUse">
<stop stop-color="white"/>
<stop offset="1" stop-color="#ADF5D7"/>
</linearGradient>
<linearGradient id="paint24_linear_278_2307" x1="596.441" y1="298.899" x2="596.441" y2="218.833" gradientUnits="userSpaceOnUse">
<stop stop-color="white"/>
<stop offset="1" stop-color="#ADF5D7"/>
</linearGradient>
<linearGradient id="paint25_linear_278_2307" x1="669.618" y1="298.899" x2="669.618" y2="218.833" gradientUnits="userSpaceOnUse">
<stop stop-color="white"/>
<stop offset="1" stop-color="#ADF5D7"/>
</linearGradient>
<linearGradient id="paint26_linear_278_2307" x1="742.795" y1="298.899" x2="742.795" y2="218.833" gradientUnits="userSpaceOnUse">
<stop stop-color="white"/>
<stop offset="1" stop-color="#ADF5D7"/>
</linearGradient>
<linearGradient id="paint27_linear_278_2307" x1="780.603" y1="298.899" x2="780.603" y2="218.833" gradientUnits="userSpaceOnUse">
<stop stop-color="white"/>
<stop offset="1" stop-color="#ADF5D7"/>
</linearGradient>
<clipPath id="clip0_278_2307">
<rect width="1002" height="305" fill="white"/>
</clipPath>
</defs>
</svg>
