<svg width="114" height="166" viewBox="0 0 114 166" fill="none" xmlns="http://www.w3.org/2000/svg">
<path d="M77.4418 144.852H68.4058V153.902H77.4418V144.852Z" fill="url(#paint0_linear_565_7522)"/>
<path d="M59.3698 135.802V144.852H68.4057V135.802V126.743H59.3698V135.802Z" fill="url(#paint1_linear_565_7522)"/>
<path d="M77.4418 117.693H68.4058V126.743H77.4418V117.693Z" fill="url(#paint2_linear_565_7522)"/>
<path d="M77.4419 99.5845V108.643V117.693H86.4862V108.643V99.5845H77.4419Z" fill="url(#paint3_linear_565_7522)"/>
<path d="M77.4418 81.4844H68.4058V90.5344H77.4418V81.4844Z" fill="url(#paint4_linear_565_7522)"/>
<path d="M59.3629 27.1582H50.3269V36.2082H59.3629V27.1582Z" fill="white"/>
<path d="M68.4057 18.1084H59.3698V27.1584H68.4057V18.1084Z" fill="white"/>
<path d="M77.444 90.5342H68.4081V99.5842H77.444V90.5342Z" fill="url(#paint5_linear_565_7522)"/>
<path d="M95.5235 18.1086V9.05859H50.3271V18.1086H41.2912V54.3257H50.3271V63.3757H59.3631V72.4258H68.3989V81.4758H77.4349V72.4258H86.4707V63.3757H95.5067V54.3257H104.543V18.1086H95.5067H95.5235ZM50.3271 27.1587H59.3631V18.1086H68.3989V27.1587H59.3631V36.2087H50.3271V27.1587Z" fill="url(#paint6_linear_565_7522)"/>
<path d="M77.4418 99.5845H68.4058V108.635H77.4418V99.5845Z" fill="url(#paint7_linear_565_7522)"/>
<path d="M86.4778 90.5347H77.4419V99.5847H86.4778V90.5347Z" fill="url(#paint8_linear_565_7522)"/>
<path d="M68.4057 90.5347H59.3698V99.5847H68.4057V90.5347Z" fill="url(#paint9_linear_565_7522)"/>
<path d="M68.4057 72.4258H59.3698V81.4758H68.4057V72.4258Z" fill="url(#paint10_linear_565_7522)"/>
<path d="M86.4778 72.4258H77.4419V81.4758H86.4778V72.4258Z" fill="url(#paint11_linear_565_7522)"/>
<path d="M59.3629 63.3755H50.3269V72.4255H59.3629V63.3755Z" fill="url(#paint12_linear_565_7522)"/>
<path d="M95.523 63.3755H86.4871V72.4255H95.523V63.3755Z" fill="url(#paint13_linear_565_7522)"/>
<path d="M50.3272 54.3169H41.2913V63.3669H50.3272V54.3169Z" fill="url(#paint14_linear_565_7522)"/>
<path d="M104.559 54.3169H95.5227V63.3669H104.559V54.3169Z" fill="url(#paint15_linear_565_7522)"/>
<path d="M32.2462 27.1584V36.2169V45.267V54.317H41.2907V45.267V36.2169V27.1584V18.1084H32.2462V27.1584Z" fill="url(#paint16_linear_565_7522)"/>
<path d="M104.568 18.1084V27.1584V36.2169V45.267V54.317H113.604V45.267V36.2169V27.1584V18.1084H104.568Z" fill="url(#paint17_linear_565_7522)"/>
<path d="M50.3272 9.05029H41.2913V18.1003H50.3272V9.05029Z" fill="url(#paint18_linear_565_7522)"/>
<path d="M104.559 9.05029H95.5227V18.1003H104.559V9.05029Z" fill="url(#paint19_linear_565_7522)"/>
<path d="M86.4874 0H77.4431H68.4072H59.3713H50.3269V9.05003H59.3713H68.4072H77.4431H86.4874H95.5233V0H86.4874Z" fill="url(#paint20_linear_565_7522)"/>
<path d="M38.4673 157.762H30.7754V165.466H38.4673V157.762Z" fill="url(#paint21_linear_565_7522)"/>
<path d="M23.0757 150.058V157.762H30.7761V150.058V142.354H23.0757V150.058Z" fill="url(#paint22_linear_565_7522)"/>
<path d="M38.4673 134.642H30.7754V142.346H38.4673V134.642Z" fill="url(#paint23_linear_565_7522)"/>
<path d="M38.4678 119.234V126.938V134.642H46.1598V126.938V119.234H38.4678Z" fill="url(#paint24_linear_565_7522)"/>
<path d="M38.4673 103.817H30.7754V111.521H38.4673V103.817Z" fill="url(#paint25_linear_565_7522)"/>
<path d="M23.0748 57.585H15.3829V65.2889H23.0748V57.585Z" fill="white"/>
<path d="M30.7676 49.8726H23.0757V57.5765H30.7676V49.8726Z" fill="white"/>
<path d="M38.4696 111.531H30.7777V119.235H38.4696V111.531Z" fill="url(#paint26_linear_565_7522)"/>
<path d="M53.8529 49.8734V42.1694H15.3848V49.8734H7.69286V80.6977H15.3848V88.4017H23.0767V96.1056H30.7686V103.81H38.4605V96.1056H46.1525V88.4017H53.8444V80.6977H61.5363V49.8734H53.8444H53.8529ZM15.3848 57.5858H23.0767V49.8819H30.7686V57.5858H23.0767V65.2898H15.3848V57.5858Z" fill="url(#paint27_linear_565_7522)"/>
<path d="M38.4673 119.234H30.7754V126.938H38.4673V119.234Z" fill="url(#paint28_linear_565_7522)"/>
<path d="M46.1598 111.53H38.4678V119.234H46.1598V111.53Z" fill="url(#paint29_linear_565_7522)"/>
<path d="M30.7676 111.53H23.0757V119.234H30.7676V111.53Z" fill="url(#paint30_linear_565_7522)"/>
<path d="M30.7676 96.1138H23.0757V103.818H30.7676V96.1138Z" fill="url(#paint31_linear_565_7522)"/>
<path d="M46.1598 96.1138H38.4678V103.818H46.1598V96.1138Z" fill="url(#paint32_linear_565_7522)"/>
<path d="M23.0748 88.4097H15.3829V96.1136H23.0748V88.4097Z" fill="url(#paint33_linear_565_7522)"/>
<path d="M53.8525 88.4092H46.1606V96.1131H53.8525V88.4092Z" fill="url(#paint34_linear_565_7522)"/>
<path d="M15.3848 80.6973H7.69286V88.4013H15.3848V80.6973Z" fill="url(#paint35_linear_565_7522)"/>
<path d="M61.5448 80.6973H53.8528V88.4013H61.5448V80.6973Z" fill="url(#paint36_linear_565_7522)"/>
<path d="M0 57.585V65.2889V72.9929V80.6968H7.69201V72.9929V65.2889V57.585V49.8726H0V57.585Z" fill="url(#paint37_linear_565_7522)"/>
<path d="M61.5526 49.8726V57.585V65.2889V72.9929V80.6968H69.2445V72.9929V65.2889V57.585V49.8726H61.5526Z" fill="url(#paint38_linear_565_7522)"/>
<path d="M15.3848 42.1694H7.69286V49.8734H15.3848V42.1694Z" fill="url(#paint39_linear_565_7522)"/>
<path d="M61.5448 42.1694H53.8528V49.8734H61.5448V42.1694Z" fill="url(#paint40_linear_565_7522)"/>
<path d="M46.159 34.4648H38.467H30.7751H23.0748H15.3829V42.1688H23.0748H30.7751H38.467H46.159H53.851V34.4648H46.159Z" fill="url(#paint41_linear_565_7522)"/>
<defs>
<linearGradient id="paint0_linear_565_7522" x1="18.8983" y1="58.136" x2="56.8453" y2="122.027" gradientUnits="userSpaceOnUse">
<stop stop-color="#EB79F0"/>
<stop offset="1" stop-color="#6427A8"/>
</linearGradient>
<linearGradient id="paint1_linear_565_7522" x1="18.1633" y1="58.5758" x2="56.1105" y2="122.466" gradientUnits="userSpaceOnUse">
<stop stop-color="#EB79F0"/>
<stop offset="1" stop-color="#6427A8"/>
</linearGradient>
<linearGradient id="paint2_linear_565_7522" x1="30.7997" y1="51.0753" x2="68.7467" y2="114.958" gradientUnits="userSpaceOnUse">
<stop stop-color="#EB79F0"/>
<stop offset="1" stop-color="#6427A8"/>
</linearGradient>
<linearGradient id="paint3_linear_565_7522" x1="43.437" y1="43.5657" x2="81.3842" y2="107.456" gradientUnits="userSpaceOnUse">
<stop stop-color="#EB79F0"/>
<stop offset="1" stop-color="#6427A8"/>
</linearGradient>
<linearGradient id="paint4_linear_565_7522" x1="46.6654" y1="41.6524" x2="84.6124" y2="105.543" gradientUnits="userSpaceOnUse">
<stop stop-color="#EB79F0"/>
<stop offset="1" stop-color="#6427A8"/>
</linearGradient>
<linearGradient id="paint5_linear_565_7522" x1="19.4753" y1="15.1878" x2="72.8419" y2="94.6903" gradientUnits="userSpaceOnUse">
<stop stop-color="#FBC101"/>
<stop offset="1" stop-color="#FDE699"/>
</linearGradient>
<linearGradient id="paint6_linear_565_7522" x1="46.6502" y1="-3.0561" x2="100.017" y2="76.4461" gradientUnits="userSpaceOnUse">
<stop stop-color="#FBC101"/>
<stop offset="1" stop-color="#FDE699"/>
</linearGradient>
<linearGradient id="paint7_linear_565_7522" x1="26.2606" y1="-26.879" x2="79.1175" y2="121.027" gradientUnits="userSpaceOnUse">
<stop stop-color="#6427A8"/>
<stop offset="1" stop-color="#190A2A"/>
</linearGradient>
<linearGradient id="paint8_linear_565_7522" x1="37.1398" y1="-30.7646" x2="89.9972" y2="117.133" gradientUnits="userSpaceOnUse">
<stop stop-color="#6427A8"/>
<stop offset="1" stop-color="#190A2A"/>
</linearGradient>
<linearGradient id="paint9_linear_565_7522" x1="21.1048" y1="-25.0332" x2="73.9537" y2="122.864" gradientUnits="userSpaceOnUse">
<stop stop-color="#6427A8"/>
<stop offset="1" stop-color="#190A2A"/>
</linearGradient>
<linearGradient id="paint10_linear_565_7522" x1="26.8272" y1="-27.0823" x2="79.6761" y2="120.824" gradientUnits="userSpaceOnUse">
<stop stop-color="#6427A8"/>
<stop offset="1" stop-color="#190A2A"/>
</linearGradient>
<linearGradient id="paint11_linear_565_7522" x1="42.8622" y1="-32.8137" x2="95.7196" y2="115.092" gradientUnits="userSpaceOnUse">
<stop stop-color="#6427A8"/>
<stop offset="1" stop-color="#190A2A"/>
</linearGradient>
<linearGradient id="paint12_linear_565_7522" x1="21.6722" y1="-25.237" x2="74.5206" y2="122.669" gradientUnits="userSpaceOnUse">
<stop stop-color="#6427A8"/>
<stop offset="1" stop-color="#190A2A"/>
</linearGradient>
<linearGradient id="paint13_linear_565_7522" x1="53.7416" y1="-36.6998" x2="106.599" y2="111.206" gradientUnits="userSpaceOnUse">
<stop stop-color="#6427A8"/>
<stop offset="1" stop-color="#190A2A"/>
</linearGradient>
<linearGradient id="paint14_linear_565_7522" x1="16.5167" y1="-23.3915" x2="69.3656" y2="124.506" gradientUnits="userSpaceOnUse">
<stop stop-color="#6427A8"/>
<stop offset="1" stop-color="#190A2A"/>
</linearGradient>
<linearGradient id="paint15_linear_565_7522" x1="64.6196" y1="-40.5857" x2="117.476" y2="107.312" gradientUnits="userSpaceOnUse">
<stop stop-color="#6427A8"/>
<stop offset="1" stop-color="#190A2A"/>
</linearGradient>
<linearGradient id="paint16_linear_565_7522" x1="15.6451" y1="-23.0866" x2="68.4935" y2="124.82" gradientUnits="userSpaceOnUse">
<stop stop-color="#6427A8"/>
<stop offset="1" stop-color="#190A2A"/>
</linearGradient>
<linearGradient id="paint17_linear_565_7522" x1="79.7931" y1="-46.0123" x2="132.651" y2="101.894" gradientUnits="userSpaceOnUse">
<stop stop-color="#6427A8"/>
<stop offset="1" stop-color="#190A2A"/>
</linearGradient>
<linearGradient id="paint18_linear_565_7522" x1="30.8185" y1="-28.5044" x2="83.6674" y2="119.393" gradientUnits="userSpaceOnUse">
<stop stop-color="#6427A8"/>
<stop offset="1" stop-color="#190A2A"/>
</linearGradient>
<linearGradient id="paint19_linear_565_7522" x1="78.93" y1="-45.6986" x2="131.778" y2="102.208" gradientUnits="userSpaceOnUse">
<stop stop-color="#6427A8"/>
<stop offset="1" stop-color="#190A2A"/>
</linearGradient>
<linearGradient id="paint20_linear_565_7522" x1="57.7314" y1="-38.1219" x2="110.589" y2="109.776" gradientUnits="userSpaceOnUse">
<stop stop-color="#6427A8"/>
<stop offset="1" stop-color="#190A2A"/>
</linearGradient>
<linearGradient id="paint21_linear_565_7522" x1="-11.3695" y1="83.9483" x2="20.935" y2="138.331" gradientUnits="userSpaceOnUse">
<stop stop-color="#EB79F0"/>
<stop offset="1" stop-color="#6427A8"/>
</linearGradient>
<linearGradient id="paint22_linear_565_7522" x1="-11.9944" y1="84.3208" x2="20.3103" y2="138.704" gradientUnits="userSpaceOnUse">
<stop stop-color="#EB79F0"/>
<stop offset="1" stop-color="#6427A8"/>
</linearGradient>
<linearGradient id="paint23_linear_565_7522" x1="-1.23474" y1="77.9377" x2="31.0613" y2="132.32" gradientUnits="userSpaceOnUse">
<stop stop-color="#EB79F0"/>
<stop offset="1" stop-color="#6427A8"/>
</linearGradient>
<linearGradient id="paint24_linear_565_7522" x1="9.51709" y1="71.546" x2="41.8215" y2="125.929" gradientUnits="userSpaceOnUse">
<stop stop-color="#EB79F0"/>
<stop offset="1" stop-color="#6427A8"/>
</linearGradient>
<linearGradient id="paint25_linear_565_7522" x1="12.2641" y1="69.9198" x2="44.569" y2="124.294" gradientUnits="userSpaceOnUse">
<stop stop-color="#EB79F0"/>
<stop offset="1" stop-color="#6427A8"/>
</linearGradient>
<linearGradient id="paint26_linear_565_7522" x1="10.2124" y1="132.636" x2="75.1623" y2="86.8637" gradientUnits="userSpaceOnUse">
<stop stop-color="#E50002"/>
<stop offset="1" stop-color="#F5999A"/>
</linearGradient>
<linearGradient id="paint27_linear_565_7522" x1="-12.2808" y1="100.719" x2="52.6693" y2="54.9385" gradientUnits="userSpaceOnUse">
<stop stop-color="#E50002"/>
<stop offset="1" stop-color="#F5999A"/>
</linearGradient>
<linearGradient id="paint28_linear_565_7522" x1="-5.09761" y1="11.582" x2="39.8851" y2="137.476" gradientUnits="userSpaceOnUse">
<stop stop-color="#6427A8"/>
<stop offset="1" stop-color="#190A2A"/>
</linearGradient>
<linearGradient id="paint29_linear_565_7522" x1="4.15804" y1="8.27164" x2="49.1488" y2="134.174" gradientUnits="userSpaceOnUse">
<stop stop-color="#6427A8"/>
<stop offset="1" stop-color="#190A2A"/>
</linearGradient>
<linearGradient id="paint30_linear_565_7522" x1="-9.49235" y1="13.1564" x2="35.4988" y2="139.05" gradientUnits="userSpaceOnUse">
<stop stop-color="#6427A8"/>
<stop offset="1" stop-color="#190A2A"/>
</linearGradient>
<linearGradient id="paint31_linear_565_7522" x1="-4.61517" y1="11.4128" x2="40.3675" y2="137.307" gradientUnits="userSpaceOnUse">
<stop stop-color="#6427A8"/>
<stop offset="1" stop-color="#190A2A"/>
</linearGradient>
<linearGradient id="paint32_linear_565_7522" x1="9.02683" y1="6.53647" x2="54.0175" y2="132.431" gradientUnits="userSpaceOnUse">
<stop stop-color="#6427A8"/>
<stop offset="1" stop-color="#190A2A"/>
</linearGradient>
<linearGradient id="paint33_linear_565_7522" x1="-9.01148" y1="12.9788" x2="35.9797" y2="138.873" gradientUnits="userSpaceOnUse">
<stop stop-color="#6427A8"/>
<stop offset="1" stop-color="#190A2A"/>
</linearGradient>
<linearGradient id="paint34_linear_565_7522" x1="18.2922" y1="3.22565" x2="63.2834" y2="129.119" gradientUnits="userSpaceOnUse">
<stop stop-color="#6427A8"/>
<stop offset="1" stop-color="#190A2A"/>
</linearGradient>
<linearGradient id="paint35_linear_565_7522" x1="-13.3965" y1="14.553" x2="31.5867" y2="140.447" gradientUnits="userSpaceOnUse">
<stop stop-color="#6427A8"/>
<stop offset="1" stop-color="#190A2A"/>
</linearGradient>
<linearGradient id="paint36_linear_565_7522" x1="27.5567" y1="-0.0845446" x2="72.5399" y2="125.81" gradientUnits="userSpaceOnUse">
<stop stop-color="#6427A8"/>
<stop offset="1" stop-color="#190A2A"/>
</linearGradient>
<linearGradient id="paint37_linear_565_7522" x1="-14.133" y1="14.8153" x2="30.8494" y2="140.71" gradientUnits="userSpaceOnUse">
<stop stop-color="#6427A8"/>
<stop offset="1" stop-color="#190A2A"/>
</linearGradient>
<linearGradient id="paint38_linear_565_7522" x1="40.4632" y1="-4.69851" x2="85.4545" y2="121.195" gradientUnits="userSpaceOnUse">
<stop stop-color="#6427A8"/>
<stop offset="1" stop-color="#190A2A"/>
</linearGradient>
<linearGradient id="paint39_linear_565_7522" x1="-1.22468" y1="10.2021" x2="43.767" y2="136.096" gradientUnits="userSpaceOnUse">
<stop stop-color="#6427A8"/>
<stop offset="1" stop-color="#190A2A"/>
</linearGradient>
<linearGradient id="paint40_linear_565_7522" x1="39.7285" y1="-4.43546" x2="84.7202" y2="121.459" gradientUnits="userSpaceOnUse">
<stop stop-color="#6427A8"/>
<stop offset="1" stop-color="#190A2A"/>
</linearGradient>
<linearGradient id="paint41_linear_565_7522" x1="21.6885" y1="2.01519" x2="66.6712" y2="127.909" gradientUnits="userSpaceOnUse">
<stop stop-color="#6427A8"/>
<stop offset="1" stop-color="#190A2A"/>
</linearGradient>
</defs>
</svg>
