<svg width="572" height="111" viewBox="0 0 572 111" fill="none" xmlns="http://www.w3.org/2000/svg">
<path d="M564.38 77.4595H556.752V82.9934H564.38V77.4595Z" fill="url(#paint0_linear_565_7603)"/>
<path d="M541.495 82.9932H533.866H526.238H518.609V88.5271H526.238H533.866H541.495H549.123H556.752V82.9932H549.123H541.495Z" fill="url(#paint1_linear_565_7603)"/>
<path d="M488.108 88.5273H480.479V94.0538H488.108H495.736V88.5273H488.108Z" fill="url(#paint2_linear_565_7603)"/>
<path d="M503.364 94.0542H495.735V99.5881H503.364H510.992V94.0542H503.364Z" fill="url(#paint3_linear_565_7603)"/>
<path d="M518.611 99.5879H510.993V105.122H518.611H526.24H533.868V99.5879H526.24H518.611Z" fill="url(#paint4_linear_565_7603)"/>
<path d="M15.2563 77.4595H7.62784V82.9934H15.2563V77.4595Z" fill="url(#paint5_linear_565_7603)"/>
<path d="M472.849 82.9932H465.231H457.603H449.974H442.346H434.717H427.099H419.471H411.842H404.214H396.585H388.957H381.339H373.71H366.082H358.454H350.825H343.197H335.578H327.95H320.322H312.693H305.065H297.436H289.818H282.19H274.561H266.933H259.304H251.676H244.058H236.429H228.801H221.172H213.544H205.915H198.297H190.669H183.04H175.412H167.784H160.155H152.537H144.909H137.28H129.652H122.023H114.395H106.776H99.1481H91.5196H83.8911H76.2628H68.6343H61.0161H53.3877H45.7592H38.1308H30.5024H22.8739H15.2558V88.5271H22.8739H30.5024H38.1308H45.7592H53.3877H61.0161H68.6343H76.2628H83.8911H91.5196H99.1481H106.776H114.395H122.023H129.652H137.28H144.909H152.537H160.155H167.784H175.412H183.04H190.669H198.297H205.915H213.544H221.172H228.801H236.429H244.058H251.676H259.304H266.933H274.561H282.19H289.818H297.436H305.065H312.693H320.322H327.95H335.578H343.197H350.825H358.454H366.082H373.71H381.339H388.957H396.585H404.214H411.842H419.471H427.099H434.717H442.346H449.974H457.603H465.231H472.849H480.478V82.9932H472.849Z" fill="url(#paint6_linear_565_7603)"/>
<path d="M556.752 11.0676V5.53369H549.124H541.496H533.867H526.239H518.61H510.992H503.364H495.735H488.107H480.478H472.85H465.232H457.603H449.975H442.346H434.718H427.1H419.471H411.843H404.214H396.586H388.958H381.339H373.711H366.083H358.454H350.826H343.197H335.579H327.951H320.322H312.694H305.065H297.437H289.819H282.19H274.562H266.933H259.305H251.676H244.058H236.43H228.801H221.173H213.544H205.916H198.298H190.669H183.041H175.412H167.784H160.156H152.537H144.909H137.281H129.652H122.024H114.395H106.777H99.1486H91.5201H83.8917H76.2633H68.6348H61.0166H53.3882H45.7597H38.1314H30.5029H22.8744H15.2563V11.0676H7.62784V16.6015V22.1354V27.6618V33.1957V38.7296V44.2635V49.7974V55.3313V60.8577V66.3916V71.9255V77.4594H15.2563V82.9933H22.8744H30.5029H38.1314H45.7597H53.3882H61.0166H68.6348H76.2633H83.8917H91.5201H99.1486H106.777H114.395H122.024H129.652H137.281H144.909H152.537H160.156H167.784H175.412H183.041H190.669H198.298H205.916H213.544H221.173H228.801H236.43H244.058H251.676H259.305H266.933H274.562H282.19H289.819H297.437H305.065H312.694H320.322H327.951H335.579H343.197H350.826H358.454H366.083H373.711H381.339H388.958H396.586H404.214H411.843H419.471H427.1H434.718H442.346H449.975H457.603H465.232H472.85H480.478V88.5272H488.107H495.735V94.0536H503.364H510.992V99.5875H518.61H526.239V94.0536H518.61V88.5272V82.9933H526.239H533.867H541.496H549.124H556.752V77.4594H564.371V71.9255V66.3916V60.8577V55.3313V49.7974V44.2635V38.7296V33.1957V27.6618V22.1354V16.6015V11.0676H556.752Z" fill="url(#paint7_linear_565_7603)"/>
<path d="M564.383 5.53369H556.755V11.0676H564.383V5.53369Z" fill="url(#paint8_linear_565_7603)"/>
<path d="M564.372 11.0679V16.6018V22.1357V27.6621V33.196V38.7299V44.2638V49.7977V55.3316V60.858V66.3919V71.9258V77.4597V82.9936H572V77.4597V71.9258V66.3919V60.858V55.3316V49.7977V44.2638V38.7299V33.196V27.6621V22.1357V16.6018V11.0679H564.372Z" fill="url(#paint9_linear_565_7603)"/>
<path d="M564.383 82.9932H556.755V88.5271H564.383V82.9932Z" fill="url(#paint10_linear_565_7603)"/>
<path d="M503.364 99.5879H495.735V105.122H503.364H510.992V99.5879H503.364Z" fill="url(#paint11_linear_565_7603)"/>
<path d="M526.24 105.122H518.611H510.993V110.656H518.611H526.24H533.868H541.497V105.122V99.5879H533.868V105.122H526.24Z" fill="url(#paint12_linear_565_7603)"/>
<path d="M488.108 94.0542H480.479V99.5881H488.108H495.736V94.0542H488.108Z" fill="url(#paint13_linear_565_7603)"/>
<path d="M541.495 88.5273H533.866H526.238H518.609V94.0538H526.238V99.5877H533.866V94.0538H541.495H549.123H556.752V88.5273H549.123H541.495Z" fill="url(#paint14_linear_565_7603)"/>
<path d="M15.2563 5.53369H7.62784V11.0676H15.2563V5.53369Z" fill="url(#paint15_linear_565_7603)"/>
<path d="M7.62849 71.9258V66.3919V60.858V55.3316V49.7977V44.2638V38.7299V33.196V27.6621V22.1357V16.6018V11.0679H0V16.6018V22.1357V27.6621V33.196V38.7299V44.2638V49.7977V55.3316V60.858V66.3919V71.9258V77.4597V82.9936H7.62849V77.4597V71.9258Z" fill="url(#paint16_linear_565_7603)"/>
<path d="M15.2563 82.9932H7.62784V88.5271H15.2563V82.9932Z" fill="url(#paint17_linear_565_7603)"/>
<path d="M30.5024 5.53389H38.1308H45.7592H53.3877H61.0161H68.6343H76.2628H83.8911H91.5196H99.1481H106.776H114.395H122.023H129.652H137.28H144.909H152.537H160.155H167.784H175.412H183.04H190.669H198.297H205.915H213.544H221.172H228.801H236.429H244.058H251.676H259.304H266.933H274.561H282.19H289.818H297.436H305.065H312.693H320.322H327.95H335.578H343.197H350.825H358.454H366.082H373.71H381.339H388.957H396.585H404.214H411.842H419.471H427.099H434.717H442.346H449.974H457.603H465.231H472.849H480.478H488.106H495.735H503.363H510.992H518.61H526.238H533.867H541.495H549.124H556.752V0H549.124H541.495H533.867H526.238H518.61H510.992H503.363H495.735H488.106H480.478H472.849H465.231H457.603H449.974H442.346H434.717H427.099H419.471H411.842H404.214H396.585H388.957H381.339H373.71H366.082H358.454H350.825H343.197H335.578H327.95H320.322H312.693H305.065H297.436H289.818H282.19H274.561H266.933H259.304H251.676H244.058H236.429H228.801H221.172H213.544H205.915H198.297H190.669H183.04H175.412H167.784H160.155H152.537H144.909H137.28H129.652H122.023H114.395H106.776H99.1481H91.5196H83.8911H76.2628H68.6343H61.0161H53.3877H45.7592H38.1308H30.5024H22.8739H15.2558V5.53389H22.8739H30.5024Z" fill="url(#paint18_linear_565_7603)"/>
<path d="M472.849 88.5273H465.231H457.603H449.974H442.346H434.717H427.099H419.471H411.842H404.214H396.585H388.957H381.339H373.71H366.082H358.454H350.825H343.197H335.578H327.95H320.322H312.693H305.065H297.436H289.818H282.19H274.561H266.933H259.304H251.676H244.058H236.429H228.801H221.172H213.544H205.915H198.297H190.669H183.04H175.412H167.784H160.155H152.537H144.909H137.28H129.652H122.023H114.395H106.776H99.1481H91.5196H83.8911H76.2628H68.6343H61.0161H53.3877H45.7592H38.1308H30.5024H22.8739H15.2558V94.0538H22.8739H30.5024H38.1308H45.7592H53.3877H61.0161H68.6343H76.2628H83.8911H91.5196H99.1481H106.776H114.395H122.023H129.652H137.28H144.909H152.537H160.155H167.784H175.412H183.04H190.669H198.297H205.915H213.544H221.172H228.801H236.429H244.058H251.676H259.304H266.933H274.561H282.19H289.818H297.436H305.065H312.693H320.322H327.95H335.578H343.197H350.825H358.454H366.082H373.71H381.339H388.957H396.585H404.214H411.842H419.471H427.099H434.717H442.346H449.974H457.603H465.231H472.849H480.478V88.5273H472.849Z" fill="url(#paint19_linear_565_7603)"/>
<path d="M45.0252 58.0721V54.5003H41.3274V34.4142H45.0252V30.8004H57.7996V34.4142H61.5395V43.7009H56.1608V36.5573H46.664V52.3572H56.1608V45.1296H61.5395V54.5003H57.7996V58.0721H45.0252ZM70.3446 58.0721V54.5003H66.6467V34.4142H70.3446V30.8004H83.119V34.4142H86.8589V54.5003H83.119V58.0721H70.3446ZM71.9834 52.3572H81.4802V36.5573H71.9834V52.3572ZM91.9661 58.0721V34.4142H95.6639V30.8004H101.001V34.4142H104.74V41.5998H106.8V34.4142H110.539V30.8004H115.918V34.4142H119.574V58.0721H114.279V36.5573H112.178V43.7009H108.438V54.5003H103.102V43.7009H99.3618V36.5573H97.3027V58.0721H91.9661ZM124.713 58.0721V34.4142H128.411V30.8004H141.185V34.4142H144.925V47.2727H141.185V50.8865H130.05V58.0721H124.713ZM130.05 45.1296H139.546V36.5573H130.05V45.1296ZM153.73 58.0721V54.5003H150.032V34.4142H153.73V30.8004H166.505V34.4142H170.244V40.1291H164.866V36.5573H155.369V41.5998H162.807V47.2727H155.369V52.3572H164.866V48.7434H170.244V54.5003H166.505V58.0721H153.73ZM182.747 58.0721V36.5573H180.688V40.1291H175.352V34.4142H179.05V30.8004H191.824V34.4142H195.564V40.1291H190.185V36.5573H188.126V58.0721H182.747ZM200.671 58.0721V52.3572H204.369V36.5573H200.671V30.8004H213.445V36.5573H209.706V52.3572H213.445V58.0721H200.671ZM225.959 58.0721V36.5573H223.899V40.1291H218.563V34.4142H222.261V30.8004H235.035V34.4142H238.775V40.1291H233.396V36.5573H231.337V58.0721H225.959ZM243.882 58.0721V52.3572H247.58V36.5573H243.882V30.8004H256.657V36.5573H252.917V52.3572H256.657V58.0721H243.882ZM265.472 58.0721V54.5003H261.774V34.4142H265.472V30.8004H278.246V34.4142H281.986V54.5003H278.246V58.0721H265.472ZM267.111 52.3572H276.607V36.5573H267.111V52.3572ZM287.093 58.0721V30.8004H292.43V34.4142H296.128V37.986H299.868V48.7434H301.927V30.8004H307.305V58.0721H301.927V54.5003H298.229V50.8865H294.489V40.1291H292.43V58.0721H287.093ZM324.523 58.0721V54.5003H320.825V34.4142H324.523V30.8004H337.297V34.4142H341.037V54.5003H337.297V58.0721H324.523ZM326.162 52.3572H335.659V36.5573H326.162V52.3572ZM353.54 58.0721V54.5003H349.842V47.2727H346.144V30.8004H351.481V45.1296H355.179V52.3572H357.28V45.1296H360.978V30.8004H366.357V47.2727H362.617V54.5003H358.919V58.0721H353.54ZM375.162 58.0721V54.5003H371.464V34.4142H375.162V30.8004H387.936V34.4142H391.676V40.1291H386.297V36.5573H376.8V41.5998H384.238V47.2727H376.8V52.3572H386.297V48.7434H391.676V54.5003H387.936V58.0721H375.162ZM396.783 58.0721V34.4142H400.481V30.8004H413.255V34.4142H416.995V47.2727H413.255V50.8865H411.448V52.3572H415.104V58.0721H409.81V54.5003H406.028V50.8865H402.12V58.0721H396.783ZM402.12 45.1296H411.617V36.5573H402.12V45.1296ZM429.498 58.0721V54.5003H425.8V47.2727H422.102V30.8004H427.439V45.1296H431.137V52.3572H433.238V45.1296H436.936V30.8004H442.315V47.2727H438.575V54.5003H434.877V58.0721H429.498ZM447.422 58.0721V52.3572H451.12V36.5573H447.422V30.8004H460.196V36.5573H456.456V52.3572H460.196V58.0721H447.422ZM469.011 58.0721V54.5003H465.314V34.4142H469.011V30.8004H481.786V34.4142H485.526V40.1291H480.147V36.5573H470.65V41.5998H478.088V47.2727H470.65V52.3572H480.147V48.7434H485.526V54.5003H481.786V58.0721H469.011ZM494.331 58.0721V54.5003H490.633V30.8004H495.97V52.3572H498.029V45.1296H501.769V34.4142H507.105V45.1296H510.845V52.3572H512.946V30.8004H518.241V54.5003H514.585V58.0721H509.206V54.5003H505.466V47.2727H503.407V54.5003H499.667V58.0721H494.331Z" fill="black"/>
<defs>
<linearGradient id="paint0_linear_565_7603" x1="566.056" y1="80.0922" x2="80.9177" y2="101.883" gradientUnits="userSpaceOnUse">
<stop stop-color="#EB79F0"/>
<stop offset="1" stop-color="#F7C9F9"/>
</linearGradient>
<linearGradient id="paint1_linear_565_7603" x1="566.282" y1="85.0814" x2="81.1465" y2="106.872" gradientUnits="userSpaceOnUse">
<stop stop-color="#EB79F0"/>
<stop offset="1" stop-color="#F7C9F9"/>
</linearGradient>
<linearGradient id="paint2_linear_565_7603" x1="566.48" y1="89.4372" x2="81.3413" y2="111.228" gradientUnits="userSpaceOnUse">
<stop stop-color="#EB79F0"/>
<stop offset="1" stop-color="#F7C9F9"/>
</linearGradient>
<linearGradient id="paint3_linear_565_7603" x1="566.745" y1="95.3221" x2="81.6107" y2="117.112" gradientUnits="userSpaceOnUse">
<stop stop-color="#EB79F0"/>
<stop offset="1" stop-color="#F7C9F9"/>
</linearGradient>
<linearGradient id="paint4_linear_565_7603" x1="567.014" y1="101.303" x2="81.8782" y2="123.094" gradientUnits="userSpaceOnUse">
<stop stop-color="#EB79F0"/>
<stop offset="1" stop-color="#F7C9F9"/>
</linearGradient>
<linearGradient id="paint5_linear_565_7603" x1="565.484" y1="67.13" x2="80.3458" y2="88.9205" gradientUnits="userSpaceOnUse">
<stop stop-color="#EB79F0"/>
<stop offset="1" stop-color="#F7C9F9"/>
</linearGradient>
<linearGradient id="paint6_linear_565_7603" x1="565.974" y1="78.2424" x2="80.8377" y2="100.018" gradientUnits="userSpaceOnUse">
<stop stop-color="#EB79F0"/>
<stop offset="1" stop-color="#F7C9F9"/>
</linearGradient>
<linearGradient id="paint7_linear_565_7603" x1="119.248" y1="44.9795" x2="602.165" y2="61.7639" gradientUnits="userSpaceOnUse">
<stop stop-color="white"/>
<stop offset="1" stop-color="#F7C9F9"/>
</linearGradient>
<linearGradient id="paint8_linear_565_7603" x1="51.5677" y1="-149.945" x2="535.246" y2="135.804" gradientUnits="userSpaceOnUse">
<stop stop-color="#6427A8"/>
<stop offset="1" stop-color="#190A2A"/>
</linearGradient>
<linearGradient id="paint9_linear_565_7603" x1="33.4292" y1="-119.225" x2="517.104" y2="166.517" gradientUnits="userSpaceOnUse">
<stop stop-color="#6427A8"/>
<stop offset="1" stop-color="#190A2A"/>
</linearGradient>
<linearGradient id="paint10_linear_565_7603" x1="12.9112" y1="-84.5078" x2="496.589" y2="201.241" gradientUnits="userSpaceOnUse">
<stop stop-color="#6427A8"/>
<stop offset="1" stop-color="#190A2A"/>
</linearGradient>
<linearGradient id="paint11_linear_565_7603" x1="-4.2456" y1="-55.4578" x2="479.43" y2="230.288" gradientUnits="userSpaceOnUse">
<stop stop-color="#6427A8"/>
<stop offset="1" stop-color="#190A2A"/>
</linearGradient>
<linearGradient id="paint12_linear_565_7603" x1="-2.07715" y1="-59.1349" x2="481.596" y2="226.622" gradientUnits="userSpaceOnUse">
<stop stop-color="#6427A8"/>
<stop offset="1" stop-color="#190A2A"/>
</linearGradient>
<linearGradient id="paint13_linear_565_7603" x1="-3.8578" y1="-56.1291" x2="479.82" y2="229.62" gradientUnits="userSpaceOnUse">
<stop stop-color="#6427A8"/>
<stop offset="1" stop-color="#190A2A"/>
</linearGradient>
<linearGradient id="paint14_linear_565_7603" x1="5.80749" y1="-72.4852" x2="489.484" y2="213.261" gradientUnits="userSpaceOnUse">
<stop stop-color="#6427A8"/>
<stop offset="1" stop-color="#190A2A"/>
</linearGradient>
<linearGradient id="paint15_linear_565_7603" x1="-33.64" y1="-5.71308" x2="450.038" y2="280.036" gradientUnits="userSpaceOnUse">
<stop stop-color="#6427A8"/>
<stop offset="1" stop-color="#190A2A"/>
</linearGradient>
<linearGradient id="paint16_linear_565_7603" x1="-54.1499" y1="29.012" x2="429.528" y2="314.761" gradientUnits="userSpaceOnUse">
<stop stop-color="#6427A8"/>
<stop offset="1" stop-color="#190A2A"/>
</linearGradient>
<linearGradient id="paint17_linear_565_7603" x1="-72.2965" y1="59.724" x2="411.382" y2="345.473" gradientUnits="userSpaceOnUse">
<stop stop-color="#6427A8"/>
<stop offset="1" stop-color="#190A2A"/>
</linearGradient>
<linearGradient id="paint18_linear_565_7603" x1="11.7294" y1="-82.5012" x2="495.406" y2="203.245" gradientUnits="userSpaceOnUse">
<stop stop-color="#6427A8"/>
<stop offset="1" stop-color="#190A2A"/>
</linearGradient>
<linearGradient id="paint19_linear_565_7603" x1="-38.3695" y1="2.29697" x2="445.307" y2="288.043" gradientUnits="userSpaceOnUse">
<stop stop-color="#6427A8"/>
<stop offset="1" stop-color="#190A2A"/>
</linearGradient>
</defs>
</svg>
