<svg width="107" height="100" viewBox="0 0 107 100" fill="none" xmlns="http://www.w3.org/2000/svg">
<path d="M96.4856 74.1469L100.316 73.5038L100.96 77.3392L101.604 81.1747L97.7736 81.8178L93.9433 82.461L93.2993 78.6255L92.6553 74.79L92.0113 70.9545L95.8416 70.3114L96.4856 74.1469Z" fill="url(#paint0_linear_739_437)"/>
<path d="M75.4091 65.8549L74.7651 62.0194L78.5887 61.3774L77.9458 57.5487L77.3018 53.7132L76.6578 49.8777L80.488 49.2346L84.3183 48.5915L84.9623 52.427L85.6063 56.2624L86.2492 60.0912L86.8931 63.9267L87.5371 67.7622L88.1811 71.5976L84.3509 72.2407L84.9949 76.0762L81.1646 76.7193L77.3411 77.3613L73.5109 78.0044L72.8669 74.1689L72.2229 70.3335L76.0531 69.6904L75.4091 65.8549Z" fill="url(#paint1_linear_739_437)"/>
<path d="M47.9534 66.5212L47.3105 62.6924L51.1408 62.0493L54.971 61.4062L54.327 57.5707L58.1572 56.9276L57.5133 53.0921L61.3435 52.449L60.6995 48.6136L64.5297 47.9705L63.8857 44.135L67.716 43.4918L67.072 39.6564L66.428 35.8209L70.2582 35.1778L70.9022 39.0133L71.5462 42.8487L72.1902 46.6842L72.8342 50.5197L69.004 51.1628L69.648 54.9983L70.292 58.8337L70.9348 62.6625L67.1046 63.3056L67.7486 67.1411L68.3926 70.9766L64.5623 71.6197L60.7321 72.2628L56.9019 72.9059L53.0716 73.549L52.4276 69.7135L48.5974 70.3567L44.7671 70.9998L44.1231 67.1643L47.9534 66.5212Z" fill="url(#paint2_linear_739_437)"/>
<path d="M68.3925 70.9766L67.7485 67.1411L67.1046 63.3056L70.9348 62.6625L70.2919 58.8337L69.648 54.9983L69.004 51.1628L72.8342 50.5197L72.1902 46.6842L71.5462 42.8487L70.9022 39.0133L70.2582 35.1778L69.6142 31.3423L73.4378 30.7003L74.0818 34.5358L74.7258 38.3713L78.556 37.7282L79.2 41.5636L79.844 45.3991L80.488 49.2346L76.6577 49.8777L77.3017 53.7132L77.9457 57.5486L78.5886 61.3774L74.765 62.0194L75.409 65.8548L76.053 69.6903L72.2228 70.3334L72.8668 74.1689L69.0365 74.812L65.2063 75.4551L64.5623 71.6197L68.3925 70.9766Z" fill="url(#paint3_linear_739_437)"/>
<path d="M87.537 67.7622L86.893 63.9267L86.2491 60.0912L85.6062 56.2624L89.4364 55.6193L90.0793 59.4481L90.7233 63.2836L91.3673 67.1191L95.1975 66.4759L95.8415 70.3114L92.0112 70.9545L92.6552 74.79L93.2992 78.6255L89.469 79.2686L85.6387 79.9117L84.9948 76.0762L84.3508 72.2407L88.181 71.5976L87.537 67.7622Z" fill="url(#paint4_linear_739_437)"/>
<path d="M38.3687 56.3066L37.7247 52.4711L37.0807 48.6356L40.9042 47.9936L40.2603 44.1582L44.0905 43.5151L43.4465 39.6796L47.2767 39.0365L46.6328 35.201L50.463 34.5579L49.819 30.7224L53.6492 30.0793L57.4795 29.4362L56.8366 25.6074L60.6669 24.9643L64.4971 24.3212L68.3273 23.6781L68.9702 27.5068L69.6142 31.3423L70.2582 35.1778L66.428 35.8209L67.072 39.6564L67.7159 43.4918L63.8857 44.135L64.5297 47.9704L60.6995 48.6136L61.3434 52.449L57.5132 53.0921L58.1572 56.9276L54.327 57.5707L54.9709 61.4062L51.1407 62.0493L47.3105 62.6924L47.9533 66.5212L44.1231 67.1643L40.2996 67.8063L36.4693 68.4494L35.8264 64.6206L35.1824 60.7852L34.5384 56.9497L38.3687 56.3066Z" fill="url(#paint5_linear_739_437)"/>
<path d="M101.604 81.1747L100.96 77.3392L100.316 73.5038L104.146 72.8606L104.79 76.6961L105.434 80.5316L106.078 84.367L102.248 85.0102L98.4176 85.6533L94.5873 86.2964L93.9433 82.4609L97.7736 81.8178L101.604 81.1747Z" fill="url(#paint6_linear_739_437)"/>
<path d="M93.2993 78.6254L93.9433 82.4609L90.113 83.104L86.2828 83.7471L85.6388 79.9116L89.469 79.2685L93.2993 78.6254Z" fill="url(#paint7_linear_739_437)"/>
<path d="M81.1646 76.7193L84.9948 76.0762L85.6388 79.9116L81.8086 80.5548L77.985 81.1967L74.1548 81.8399L73.5108 78.0044L77.341 77.3613L81.1646 76.7193Z" fill="url(#paint8_linear_739_437)"/>
<path d="M72.8668 74.1689L73.5108 78.0044L69.6805 78.6475L65.8503 79.2907L65.2063 75.4552L69.0365 74.812L72.8668 74.1689Z" fill="url(#paint9_linear_739_437)"/>
<path d="M95.8415 70.3113L95.1976 66.4759L99.0278 65.8327L99.6718 69.6682L100.316 73.5037L96.4855 74.1468L95.8415 70.3113Z" fill="url(#paint10_linear_739_437)"/>
<path d="M60.7322 72.2628L64.5624 71.6196L65.2064 75.4551L61.3762 76.0982L57.546 76.7413L53.7157 77.3844L53.0717 73.549L56.902 72.9059L60.7322 72.2628Z" fill="url(#paint11_linear_739_437)"/>
<path d="M52.4276 69.7135L53.0716 73.549L49.2413 74.1922L45.4111 74.8353L44.7671 70.9998L48.5973 70.3567L52.4276 69.7135Z" fill="url(#paint12_linear_739_437)"/>
<path d="M90.7233 63.2835L90.0793 59.448L89.4364 55.6193L93.2667 54.9762L93.9095 58.8049L94.5535 62.6404L95.1975 66.4759L91.3673 67.119L90.7233 63.2835Z" fill="url(#paint13_linear_739_437)"/>
<path d="M44.1231 67.1643L44.7671 70.9998L40.9436 71.6418L37.1133 72.2849L36.4693 68.4494L40.2996 67.8063L44.1231 67.1643Z" fill="url(#paint14_linear_739_437)"/>
<path d="M84.9623 52.427L84.3183 48.5915L88.1485 47.9483L88.7925 51.7838L89.4365 55.6193L85.6063 56.2624L84.9623 52.427Z" fill="url(#paint15_linear_739_437)"/>
<path d="M34.5385 56.9496L35.1825 60.7851L35.8265 64.6206L36.4694 68.4494L32.6392 69.0925L31.9963 65.2637L31.3523 61.4282L30.7083 57.5927L34.5385 56.9496Z" fill="url(#paint16_linear_739_437)"/>
<path d="M38.3689 56.3065L34.5386 56.9496L33.8946 53.1142L33.2506 49.2787L37.0809 48.6356L37.7249 52.4711L38.3689 56.3065Z" fill="url(#paint17_linear_739_437)"/>
<path d="M79.844 45.3991L79.2 41.5636L78.556 37.7282L82.3863 37.085L83.0303 40.9205L83.6743 44.756L84.3183 48.5914L80.488 49.2346L79.844 45.3991Z" fill="url(#paint18_linear_739_437)"/>
<path d="M36.43 44.8013L40.2602 44.1582L40.9042 47.9936L37.074 48.6367L36.43 44.8013Z" fill="url(#paint19_linear_739_437)"/>
<path d="M39.6163 40.3227L43.4466 39.6796L44.0906 43.5151L40.2603 44.1582L39.6163 40.3227Z" fill="url(#paint20_linear_739_437)"/>
<path d="M74.0819 34.5358L73.4379 30.7003L77.2681 30.0572L77.9121 33.8927L78.5561 37.7282L74.7259 38.3713L74.0819 34.5358Z" fill="url(#paint21_linear_739_437)"/>
<path d="M42.8025 35.8441L46.6328 35.201L47.2767 39.0365L43.4465 39.6796L42.8025 35.8441Z" fill="url(#paint22_linear_739_437)"/>
<path d="M45.9888 31.3655L49.819 30.7224L50.463 34.5579L46.6328 35.201L45.9888 31.3655Z" fill="url(#paint23_linear_739_437)"/>
<path d="M68.9703 27.5068L68.3274 23.6781L72.1509 23.0361L72.7938 26.8648L73.4378 30.7003L69.6142 31.3423L68.9703 27.5068Z" fill="url(#paint24_linear_739_437)"/>
<path d="M53.6493 30.0792L49.8191 30.7224L49.1763 26.8936L53.0065 26.2505L56.8367 25.6074L57.4796 29.4361L53.6493 30.0792Z" fill="url(#paint25_linear_739_437)"/>
<path d="M60.6669 24.9643L56.8367 25.6074L56.1927 21.7719L60.0229 21.1288L63.8532 20.4857L67.6834 19.8426L68.3274 23.6781L64.4972 24.3212L60.6669 24.9643Z" fill="url(#paint26_linear_739_437)"/>
<path d="M26.9106 81.8851L30.7409 81.242L31.3849 85.0775L27.5546 85.7206L26.9106 81.8851Z" fill="url(#paint27_linear_739_437)"/>
<path d="M22.4362 78.6928L26.2664 78.0497L26.9104 81.8851L23.0802 82.5282L22.4362 78.6928Z" fill="url(#paint28_linear_739_437)"/>
<path d="M29.4529 73.5711L33.2832 72.928L33.9271 76.7635L30.0969 77.4066L26.2666 78.0497L25.6226 74.2142L29.4529 73.5711Z" fill="url(#paint29_linear_739_437)"/>
<path d="M9.65756 72.9512L13.4879 72.3081L14.1319 76.1435L10.3015 76.7866L9.65756 72.9512Z" fill="url(#paint30_linear_739_437)"/>
<path d="M12.201 64.6438L16.0312 64.0007L16.6752 67.8361L17.3181 71.6649L13.4878 72.308L12.845 68.4792L12.201 64.6438Z" fill="url(#paint31_linear_739_437)"/>
<path d="M7.72677 61.4515L11.5571 60.8083L12.2011 64.6438L8.37077 65.287L7.72677 61.4515Z" fill="url(#paint32_linear_739_437)"/>
<path d="M14.7433 56.3298L18.5736 55.6867L19.2175 59.5221L15.3873 60.1652L11.5571 60.8083L10.9131 56.9729L14.7433 56.3298Z" fill="url(#paint33_linear_739_437)"/>
<path d="M20.4718 43.5371L24.3021 42.894L24.9461 46.7295L21.1158 47.3726L20.4718 43.5371Z" fill="url(#paint34_linear_739_437)"/>
<path d="M23.658 39.0585L27.4882 38.4154L28.1322 42.2509L24.302 42.894L23.658 39.0585Z" fill="url(#paint35_linear_739_437)"/>
<path d="M7.69316 37.7955L11.5234 37.1524L12.1674 40.9879L8.33716 41.631L7.69316 37.7955Z" fill="url(#paint36_linear_739_437)"/>
<path d="M19.1836 35.8661L15.3534 36.5093L11.5231 37.1524L10.8803 33.3236L14.7105 32.6805L18.5407 32.0374L19.1836 35.8661Z" fill="url(#paint37_linear_739_437)"/>
<path d="M21.7271 27.5588L21.0831 23.7234L20.4391 19.8879L24.2693 19.2447L24.9133 23.0802L28.7436 22.4371L29.3875 26.2726L25.5573 26.9157L21.7271 27.5588Z" fill="url(#paint38_linear_739_437)"/>
<path d="M39.5837 16.6734L43.4139 16.0303L44.0579 19.8658L40.2277 20.5089L39.5837 16.6734Z" fill="url(#paint39_linear_739_437)"/>
<path d="M15.9649 16.6955L19.7952 16.0524L20.4392 19.8878L16.6089 20.5309L15.9649 16.6955Z" fill="url(#paint40_linear_739_437)"/>
<path d="M35.1094 13.4811L38.9396 12.8379L39.5836 16.6734L35.7534 17.3165L35.1094 13.4811Z" fill="url(#paint41_linear_739_437)"/>
<path d="M50.4304 10.9086L54.2607 10.2655L54.9047 14.101L51.0744 14.7441L50.4304 10.9086Z" fill="url(#paint42_linear_739_437)"/>
<path d="M69.575 7.69417L73.4052 7.05106L74.0492 10.8865L70.219 11.5296L69.575 7.69417Z" fill="url(#paint43_linear_739_437)"/>
<path d="M57.4469 5.7869L61.2772 5.14378L61.9212 8.97928L58.0909 9.6224L54.2607 10.2655L53.6167 6.43001L57.4469 5.7869Z" fill="url(#paint44_linear_739_437)"/>
<path d="M72.7611 3.21556L76.5914 2.57245L77.2354 6.40794L73.4051 7.05106L72.7611 3.21556Z" fill="url(#paint45_linear_739_437)"/>
<defs>
<linearGradient id="paint0_linear_739_437" x1="119.735" y1="73.3595" x2="0.320577" y2="87.916" gradientUnits="userSpaceOnUse">
<stop stop-color="#EB79F0"/>
<stop offset="1" stop-color="#F7C9F9"/>
</linearGradient>
<linearGradient id="paint1_linear_739_437" x1="117.929" y1="58.5433" x2="-1.48544" y2="73.0998" gradientUnits="userSpaceOnUse">
<stop stop-color="#EB79F0"/>
<stop offset="1" stop-color="#F7C9F9"/>
</linearGradient>
<linearGradient id="paint2_linear_739_437" x1="116.606" y1="47.6723" x2="-2.80823" y2="62.2288" gradientUnits="userSpaceOnUse">
<stop stop-color="#EB79F0"/>
<stop offset="1" stop-color="#F7C9F9"/>
</linearGradient>
<linearGradient id="paint3_linear_739_437" x1="85.6828" y1="28.5478" x2="64.7494" y2="64.2164" gradientUnits="userSpaceOnUse">
<stop stop-color="#FBC101"/>
<stop offset="1" stop-color="#FDE699"/>
</linearGradient>
<linearGradient id="paint4_linear_739_437" x1="105.426" y1="40.1318" x2="84.4933" y2="75.8071" gradientUnits="userSpaceOnUse">
<stop stop-color="#FBC101"/>
<stop offset="1" stop-color="#FDE699"/>
</linearGradient>
<linearGradient id="paint5_linear_739_437" x1="71.5395" y1="42.8499" x2="33.2505" y2="49.2787" gradientUnits="userSpaceOnUse">
<stop stop-color="#EB79F0"/>
<stop offset="1" stop-color="#6427A8"/>
</linearGradient>
<linearGradient id="paint6_linear_739_437" x1="111.764" y1="87.2318" x2="26.1566" y2="34.5096" gradientUnits="userSpaceOnUse">
<stop stop-color="#6427A8"/>
<stop offset="1" stop-color="#190A2A"/>
</linearGradient>
<linearGradient id="paint7_linear_739_437" x1="108.404" y1="92.6842" x2="22.8027" y2="39.9611" gradientUnits="userSpaceOnUse">
<stop stop-color="#6427A8"/>
<stop offset="1" stop-color="#190A2A"/>
</linearGradient>
<linearGradient id="paint8_linear_739_437" x1="106.586" y1="95.6367" x2="20.9802" y2="42.9214" gradientUnits="userSpaceOnUse">
<stop stop-color="#6427A8"/>
<stop offset="1" stop-color="#190A2A"/>
</linearGradient>
<linearGradient id="paint9_linear_739_437" x1="104.763" y1="98.5974" x2="19.1631" y2="45.881" gradientUnits="userSpaceOnUse">
<stop stop-color="#6427A8"/>
<stop offset="1" stop-color="#190A2A"/>
</linearGradient>
<linearGradient id="paint10_linear_739_437" x1="115.594" y1="81.0111" x2="29.9933" y2="28.2883" gradientUnits="userSpaceOnUse">
<stop stop-color="#6427A8"/>
<stop offset="1" stop-color="#190A2A"/>
</linearGradient>
<linearGradient id="paint11_linear_739_437" x1="102.94" y1="101.557" x2="17.3396" y2="48.834" gradientUnits="userSpaceOnUse">
<stop stop-color="#6427A8"/>
<stop offset="1" stop-color="#190A2A"/>
</linearGradient>
<linearGradient id="paint12_linear_739_437" x1="101.117" y1="104.518" x2="15.5156" y2="51.7953" gradientUnits="userSpaceOnUse">
<stop stop-color="#6427A8"/>
<stop offset="1" stop-color="#190A2A"/>
</linearGradient>
<linearGradient id="paint13_linear_739_437" x1="118.089" y1="76.9658" x2="32.4812" y2="24.2434" gradientUnits="userSpaceOnUse">
<stop stop-color="#6427A8"/>
<stop offset="1" stop-color="#190A2A"/>
</linearGradient>
<linearGradient id="paint14_linear_739_437" x1="99.964" y1="106.387" x2="14.3635" y2="53.6636" gradientUnits="userSpaceOnUse">
<stop stop-color="#6427A8"/>
<stop offset="1" stop-color="#190A2A"/>
</linearGradient>
<linearGradient id="paint15_linear_739_437" x1="120.577" y1="72.9216" x2="34.9761" y2="20.1988" gradientUnits="userSpaceOnUse">
<stop stop-color="#6427A8"/>
<stop offset="1" stop-color="#190A2A"/>
</linearGradient>
<linearGradient id="paint16_linear_739_437" x1="101.019" y1="104.673" x2="15.4188" y2="51.9565" gradientUnits="userSpaceOnUse">
<stop stop-color="#6427A8"/>
<stop offset="1" stop-color="#190A2A"/>
</linearGradient>
<linearGradient id="paint17_linear_739_437" x1="106.198" y1="96.2742" x2="20.5904" y2="43.5517" gradientUnits="userSpaceOnUse">
<stop stop-color="#6427A8"/>
<stop offset="1" stop-color="#190A2A"/>
</linearGradient>
<linearGradient id="paint18_linear_739_437" x1="123.072" y1="68.8762" x2="37.4644" y2="16.1537" gradientUnits="userSpaceOnUse">
<stop stop-color="#6427A8"/>
<stop offset="1" stop-color="#190A2A"/>
</linearGradient>
<linearGradient id="paint19_linear_739_437" x1="109.838" y1="90.361" x2="24.2375" y2="37.638" gradientUnits="userSpaceOnUse">
<stop stop-color="#6427A8"/>
<stop offset="1" stop-color="#190A2A"/>
</linearGradient>
<linearGradient id="paint20_linear_739_437" x1="112.71" y1="85.6876" x2="27.1098" y2="32.9708" gradientUnits="userSpaceOnUse">
<stop stop-color="#6427A8"/>
<stop offset="1" stop-color="#190A2A"/>
</linearGradient>
<linearGradient id="paint21_linear_739_437" x1="125.56" y1="64.8321" x2="39.9589" y2="12.1093" gradientUnits="userSpaceOnUse">
<stop stop-color="#6427A8"/>
<stop offset="1" stop-color="#190A2A"/>
</linearGradient>
<linearGradient id="paint22_linear_739_437" x1="115.588" y1="81.0188" x2="29.9889" y2="28.3025" gradientUnits="userSpaceOnUse">
<stop stop-color="#6427A8"/>
<stop offset="1" stop-color="#190A2A"/>
</linearGradient>
<linearGradient id="paint23_linear_739_437" x1="118.461" y1="76.3521" x2="32.8599" y2="23.6285" gradientUnits="userSpaceOnUse">
<stop stop-color="#6427A8"/>
<stop offset="1" stop-color="#190A2A"/>
</linearGradient>
<linearGradient id="paint24_linear_739_437" x1="127.286" y1="62.0326" x2="41.6854" y2="9.30908" gradientUnits="userSpaceOnUse">
<stop stop-color="#6427A8"/>
<stop offset="1" stop-color="#190A2A"/>
</linearGradient>
<linearGradient id="paint25_linear_739_437" x1="122.01" y1="70.5916" x2="36.4099" y2="17.8682" gradientUnits="userSpaceOnUse">
<stop stop-color="#6427A8"/>
<stop offset="1" stop-color="#190A2A"/>
</linearGradient>
<linearGradient id="paint26_linear_739_437" x1="126.902" y1="62.6559" x2="41.3006" y2="9.93292" gradientUnits="userSpaceOnUse">
<stop stop-color="#6427A8"/>
<stop offset="1" stop-color="#190A2A"/>
</linearGradient>
<linearGradient id="paint27_linear_739_437" x1="31.0629" y1="83.1598" x2="27.2326" y2="83.8029" gradientUnits="userSpaceOnUse">
<stop stop-color="#6427A8"/>
<stop offset="1" stop-color="#190A2A"/>
</linearGradient>
<linearGradient id="paint28_linear_739_437" x1="26.5884" y1="79.9674" x2="22.7582" y2="80.6105" gradientUnits="userSpaceOnUse">
<stop stop-color="#6427A8"/>
<stop offset="1" stop-color="#190A2A"/>
</linearGradient>
<linearGradient id="paint29_linear_739_437" x1="33.6051" y1="74.8457" x2="25.9446" y2="76.1319" gradientUnits="userSpaceOnUse">
<stop stop-color="#6427A8"/>
<stop offset="1" stop-color="#190A2A"/>
</linearGradient>
<linearGradient id="paint30_linear_739_437" x1="13.8099" y1="74.2258" x2="9.98625" y2="74.8678" gradientUnits="userSpaceOnUse">
<stop stop-color="#6427A8"/>
<stop offset="1" stop-color="#190A2A"/>
</linearGradient>
<linearGradient id="paint31_linear_739_437" x1="16.6741" y1="67.8295" x2="12.8438" y2="68.4726" gradientUnits="userSpaceOnUse">
<stop stop-color="#6427A8"/>
<stop offset="1" stop-color="#190A2A"/>
</linearGradient>
<linearGradient id="paint32_linear_739_437" x1="11.8779" y1="62.7194" x2="8.05434" y2="63.3614" gradientUnits="userSpaceOnUse">
<stop stop-color="#6427A8"/>
<stop offset="1" stop-color="#190A2A"/>
</linearGradient>
<linearGradient id="paint33_linear_739_437" x1="18.8944" y1="57.5977" x2="11.234" y2="58.8839" gradientUnits="userSpaceOnUse">
<stop stop-color="#6427A8"/>
<stop offset="1" stop-color="#190A2A"/>
</linearGradient>
<linearGradient id="paint34_linear_739_437" x1="24.6241" y1="44.8117" x2="20.7938" y2="45.4548" gradientUnits="userSpaceOnUse">
<stop stop-color="#6427A8"/>
<stop offset="1" stop-color="#190A2A"/>
</linearGradient>
<linearGradient id="paint35_linear_739_437" x1="27.8102" y1="40.3331" x2="23.98" y2="40.9763" gradientUnits="userSpaceOnUse">
<stop stop-color="#6427A8"/>
<stop offset="1" stop-color="#190A2A"/>
</linearGradient>
<linearGradient id="paint36_linear_739_437" x1="11.8454" y1="39.0701" x2="8.01516" y2="39.7132" gradientUnits="userSpaceOnUse">
<stop stop-color="#6427A8"/>
<stop offset="1" stop-color="#190A2A"/>
</linearGradient>
<linearGradient id="paint37_linear_739_437" x1="18.8616" y1="33.9484" x2="11.2011" y2="35.2346" gradientUnits="userSpaceOnUse">
<stop stop-color="#6427A8"/>
<stop offset="1" stop-color="#190A2A"/>
</linearGradient>
<linearGradient id="paint38_linear_739_437" x1="28.7435" y1="22.4371" x2="21.0831" y2="23.7233" gradientUnits="userSpaceOnUse">
<stop stop-color="#6427A8"/>
<stop offset="1" stop-color="#190A2A"/>
</linearGradient>
<linearGradient id="paint39_linear_739_437" x1="43.7359" y1="17.9481" x2="39.9057" y2="18.5912" gradientUnits="userSpaceOnUse">
<stop stop-color="#6427A8"/>
<stop offset="1" stop-color="#190A2A"/>
</linearGradient>
<linearGradient id="paint40_linear_739_437" x1="20.1172" y1="17.9701" x2="16.2869" y2="18.6132" gradientUnits="userSpaceOnUse">
<stop stop-color="#6427A8"/>
<stop offset="1" stop-color="#190A2A"/>
</linearGradient>
<linearGradient id="paint41_linear_739_437" x1="39.2616" y1="14.7557" x2="35.4314" y2="15.3988" gradientUnits="userSpaceOnUse">
<stop stop-color="#6427A8"/>
<stop offset="1" stop-color="#190A2A"/>
</linearGradient>
<linearGradient id="paint42_linear_739_437" x1="54.5827" y1="12.1832" x2="50.7524" y2="12.8263" gradientUnits="userSpaceOnUse">
<stop stop-color="#6427A8"/>
<stop offset="1" stop-color="#190A2A"/>
</linearGradient>
<linearGradient id="paint43_linear_739_437" x1="73.7272" y1="8.96878" x2="69.897" y2="9.61189" gradientUnits="userSpaceOnUse">
<stop stop-color="#6427A8"/>
<stop offset="1" stop-color="#190A2A"/>
</linearGradient>
<linearGradient id="paint44_linear_739_437" x1="61.5992" y1="7.06153" x2="53.9387" y2="8.34776" gradientUnits="userSpaceOnUse">
<stop stop-color="#6427A8"/>
<stop offset="1" stop-color="#190A2A"/>
</linearGradient>
<linearGradient id="paint45_linear_739_437" x1="76.9134" y1="4.4902" x2="73.0831" y2="5.13331" gradientUnits="userSpaceOnUse">
<stop stop-color="#6427A8"/>
<stop offset="1" stop-color="#190A2A"/>
</linearGradient>
</defs>
</svg>
