<svg width="1336" height="527" viewBox="0 0 1336 527" fill="none" xmlns="http://www.w3.org/2000/svg">
<g clip-path="url(#clip0_862_158)">
<path d="M526.96 262.66C526.97 117.53 409.6 -0.210208 263.54 -0.000207802C116.09 0.199792 5.02 117.23 0.180004 252.83C-5.33 407.15 117.99 526.48 263 526.58C410.41 526.68 528.03 407.32 526.96 262.66ZM147.76 149C152.68 141.17 157.51 133.27 162.74 125.66C163.92 123.94 166.58 122.24 168.57 122.23C210.79 122.04 253.01 122.07 295.22 122.1C296.5 122.1 297.78 122.52 300.44 122.99C293.57 133.75 287.4 143.69 280.84 153.36C279.92 154.71 277.11 155.34 275.16 155.35C233.71 155.45 192.27 155.41 150.82 155.36C149.19 155.36 147.55 154.95 144.9 154.6C146.1 152.2 146.79 150.52 147.74 149H147.76ZM137.9 362.13C136.82 369.64 130.41 374.34 122.68 374.51C119.6 374.58 116.51 374.52 113.43 374.52V374.48C109.97 374.48 106.47 374.72 103.03 374.43C93.54 373.64 86.27 361.91 90.52 353.83C91.27 352.41 94.83 351.84 96.99 352.03C98.81 352.19 101.43 353.62 102.06 355.17C104.82 361.94 116.39 366.06 122.35 361.63C127.28 357.96 125.18 352.32 124.56 347.66C124.35 346.13 120.32 344.37 117.86 344.04C112.55 343.34 107.04 344.01 101.79 343.11C98.84 342.61 95.7 340.61 93.58 338.39C87.31 331.8 88.69 312.34 95.48 306.32C101.4 301.07 127.85 301.65 133.55 307.11C137.99 311.38 137.72 316.86 137.14 322.21C137.04 323.15 134.09 324.61 132.67 324.4C130.17 324.03 127.54 322.96 125.52 321.44C123.44 319.86 122.22 315.87 120.29 315.63C115.26 315.01 109.61 314.79 105.13 316.64C103.25 317.42 103.07 323.92 103.45 327.68C103.6 329.19 107.2 331.12 109.45 331.49C113.39 332.13 117.51 331.73 121.56 331.74C130.43 331.77 136.48 336.15 137.87 344.88C138.77 350.51 138.73 356.49 137.92 362.14L137.9 362.13ZM200.03 333.04C199.84 341.6 194.9 347.2 186.33 348.04C181.36 348.52 176.31 348.48 171.31 348.3C167.15 348.16 165.27 349.51 165.54 353.94C165.84 359.13 165.39 364.37 165.71 369.56C166.02 374.65 162.87 374.65 159.38 374.52C156.07 374.41 152.18 375.6 152.3 369.81C152.54 359.39 152.37 348.97 152.37 338.55C152.37 328.71 152.53 318.87 152.29 309.03C152.18 304.59 153.54 302.77 158.2 302.92C166.49 303.18 174.79 302.8 183.08 302.96C194.46 303.17 199.97 308.91 200.04 320.31C200.07 324.56 200.13 328.8 200.04 333.04H200.03ZM260.2 338.65C260.2 345.39 260.3 352.14 260.17 358.88C259.98 368.34 254.01 374.3 244.59 374.47C239.01 374.58 233.41 374.58 227.83 374.48C219.13 374.34 212.72 368.47 212.57 359.75C212.32 345.69 212.38 331.62 212.73 317.56C212.95 308.75 218.1 303.75 226.95 303.26C233.1 302.92 239.28 302.88 245.43 303.14C254.42 303.53 259.79 309.14 260.12 318.41C260.36 325.15 260.16 331.9 260.16 338.64H260.19L260.2 338.65ZM259.06 286.16C205.59 286.4 152.13 286.37 98.66 286.36C96.82 286.36 94.99 286.05 91.71 285.76C105.67 263.69 118.79 242.93 132.86 220.68H102.65C107.31 213.04 111.67 207.22 114.62 200.76C119.82 189.37 127.99 186.48 140.24 186.8C174.77 187.69 209.34 187.05 243.89 187.12C245.84 187.12 247.79 188.02 249.74 188.51C249.11 190.25 248.76 192.15 247.81 193.69C243.15 201.24 238.21 208.61 233.63 216.21C231.71 219.4 229.38 220.63 225.66 220.58C210.02 220.42 194.39 220.62 178.76 220.48C175.06 220.44 172.72 221.63 170.79 224.88C166.45 232.17 161.69 239.21 157.14 246.37C156.15 247.92 155.34 249.57 153.94 252.09C156.7 252.49 158.48 252.98 160.27 252.98C185.94 253.03 211.61 252.89 237.28 253.13C242.18 253.17 245.01 251.46 247.55 247.42C272.85 207.3 298.3 167.27 323.73 127.24C324.92 125.38 326.38 123.68 328.57 120.76C363.54 175.99 397.91 230.25 432.54 284.96C430.81 285.62 429.8 286.32 428.78 286.33C417.97 286.39 407.15 286.53 396.35 286.14C394.36 286.07 391.83 284.16 390.61 282.37C385.28 274.58 380.12 266.64 375.38 258.48C373.19 254.7 370.47 253.7 366.42 253.73C350.21 253.88 333.99 253.79 317.78 253.78H310.97C312.56 250.68 313.53 248.48 314.77 246.46C319.23 239.25 324.03 232.22 328.22 224.85C330.36 221.09 333.01 219.77 337.12 220.03C341.11 220.28 345.13 220.09 350.9 220.09C343.15 207.74 336.18 196.65 328.62 184.63C326.74 187.01 325.25 188.61 324.1 190.42C304.69 221.06 285.39 251.75 265.82 282.29C264.55 284.26 261.37 286.14 259.07 286.15L259.06 286.16ZM307.73 366.61C305.64 361.66 303.44 356.72 301.81 351.6C299.98 345.89 295.59 346.76 291.45 346.98C286.71 347.23 288.36 351.11 288.23 353.62C287.98 358.82 287.95 364.04 288.19 369.24C288.46 375.03 284.6 374.41 280.86 374.57C276.99 374.74 274.79 374 274.84 369.29C275.06 349.03 275.06 328.77 274.88 308.52C274.84 304.11 276.55 302.77 280.67 302.87C288.76 303.08 296.88 302.8 304.97 303.07C317.05 303.47 322.18 309.1 322.31 321.32C322.41 329.87 323.03 338.43 314.8 344.39C313.93 345.02 314.31 348.29 314.98 349.99C318.06 357.81 321.45 365.5 324.74 373.29C314.48 376.45 311.36 375.19 307.73 366.6V366.61ZM379.06 308.36C378.87 311.77 379.1 314.98 374.16 315.14C369.87 315.27 363.82 314.57 361.8 316.97C359.56 319.64 360.91 325.4 360.88 329.83C360.81 342.76 360.62 355.71 360.94 368.64C361.08 374.52 357.78 374.44 353.57 374.62C349.16 374.81 347.3 373.6 347.51 368.82C347.86 360.72 347.61 352.6 347.61 344.49C347.61 336.38 347.47 328.26 347.68 320.16C347.77 316.42 346.48 314.79 342.69 315.09C340.58 315.26 338.44 315.11 336.32 315.09C329.7 315.05 329.27 314.43 329.39 307.73C329.45 304.3 330.63 302.83 334.13 302.87C347.45 302.99 360.77 303 374.1 302.98C377.82 302.98 379.28 304.66 379.07 308.34L379.06 308.36ZM436.06 359.81C435.73 367.69 429.58 373.99 421.69 374.45C418.23 374.65 414.75 374.48 411.27 374.48C411.23 374.75 411.2 375.02 411.15 375.29C405.9 374.43 400.39 374.31 395.47 372.55C389.49 370.4 385.39 360.35 387.59 354.45C388.07 353.15 390.84 351.89 392.45 352.01C394.93 352.2 397.86 353.01 399.62 354.62C401.84 356.66 402.67 361.58 404.82 362.06C409.51 363.13 414.86 362.94 419.51 361.67C421.28 361.19 422.66 356.37 422.82 353.46C423.29 344.65 422.37 344.04 413.5 344.06C409.83 344.06 406.17 344.01 402.52 343.81C401.01 343.73 399.5 343.33 398.06 342.86C389.34 339.98 386.91 333.38 388.16 316.17C388.67 309.32 393.26 304.09 400.83 303.42C408.28 302.76 415.89 302.64 423.32 303.36C432.1 304.22 437.84 313.19 435.61 321.61C435.3 322.8 433.21 324.49 432.18 324.34C429.22 323.92 426.04 323.18 423.6 321.58C421.64 320.29 420.87 316.01 419.16 315.75C414.1 314.98 408.62 314.73 403.77 316.03C401.93 316.52 400.36 321.83 400.54 324.83C400.67 327.12 403.41 330.59 405.61 331.16C409.78 332.25 414.39 331.67 418.83 331.71C429.9 331.81 436.08 337.87 436.15 348.82C436.18 352.49 436.22 356.15 436.07 359.81H436.06Z" fill="white"/>
<path d="M1260.58 397.78C1258.99 385.8 1257.15 373.64 1255.81 361.42C1254.72 351.42 1254.99 351.44 1244.89 351.44C1219.03 351.46 1193.17 351.54 1167.31 351.33C1162.82 351.29 1160.4 352.67 1158.51 356.8C1152.92 369.06 1146.77 381.08 1141.1 393.31C1139.39 397 1137.11 398.4 1133.08 398.38C1112.63 398.26 1092.17 398.37 1071.72 398.37C1066.85 398.37 1066.33 397.21 1068.88 392.33C1092.86 346.41 1116.82 300.49 1140.81 254.58C1161.95 214.12 1183.17 173.7 1204.18 133.17C1206.42 128.84 1209.06 127.2 1214 127.25C1237.93 127.52 1261.86 127.48 1285.79 127.3C1290.33 127.27 1292.03 128.58 1292.75 133.26C1298.49 170.39 1304.49 207.48 1310.53 244.56C1315.49 274.99 1320.64 305.39 1325.64 335.81C1328.74 354.63 1331.72 373.47 1334.74 392.3C1335.26 395.53 1335.7 398.49 1330.69 398.45C1308.11 398.3 1285.53 398.35 1262.95 398.3C1262.39 398.3 1261.84 398.06 1260.56 397.76L1260.58 397.78ZM1234.57 198.18C1232.7 200.7 1231.74 201.64 1231.2 202.78C1217.86 231.36 1204.55 259.96 1191.29 288.57C1188.87 293.79 1189.33 294.52 1195.09 294.56C1209.54 294.66 1223.99 294.65 1238.44 294.66C1247.4 294.66 1247.46 294.51 1246.28 285.49C1243.99 267.93 1241.81 250.36 1239.48 232.8C1238.02 221.83 1236.38 210.88 1234.57 198.18Z" fill="white"/>
<path d="M1071.51 187.86C1052.41 187.86 1033.3 188.02 1014.2 187.75C1009.29 187.68 1007.23 189.51 1006.48 194.09C1004.4 206.83 1002.02 219.52 1000.08 232.28C999.9 233.45 1001.77 235.5 1003.16 236.19C1004.57 236.88 1006.56 236.39 1008.3 236.39C1037.05 236.39 1065.8 236.39 1094.56 236.41C1101.8 236.41 1101.86 236.74 1100.49 244.11C1097.7 259.06 1094.73 274.01 1092.71 289.07C1091.91 295.03 1089.48 296.23 1084.22 296.19C1056.63 296.03 1029.03 296.16 1001.44 296.09C989.39 296.06 988.99 295.88 986.68 307.28C983.7 321.99 981.43 336.85 978.86 351.65C976.42 365.7 974.15 379.78 971.35 393.75C970.98 395.58 967.9 398.16 966.04 398.19C944.05 398.51 922.05 398.38 900.06 398.44C896.34 398.44 894.98 397.33 895.72 393.22C901.74 359.67 907.46 326.06 913.44 292.5C919.82 256.66 926.41 220.86 932.86 185.03C936 167.59 939.14 150.15 942.05 132.66C942.65 129.02 944.05 128.06 947.68 128.06C1010.59 128.13 1073.49 128.03 1136.4 128.01C1145.19 128.01 1145.54 128.66 1143.94 137.18C1141.09 152.33 1138.23 167.48 1135.82 182.71C1135.14 187.03 1133.34 187.99 1129.42 187.96C1110.12 187.82 1090.83 187.9 1071.53 187.9V187.86H1071.51Z" fill="white"/>
<path d="M742.1 187.98C722.99 187.98 703.88 188.16 684.77 187.86C679.7 187.78 678.02 189.86 677.29 194.36C675.25 206.91 673.06 219.44 670.71 231.94C670.01 235.69 671.87 236.34 674.78 236.35C681.15 236.38 687.52 236.39 693.89 236.4C717.83 236.4 741.76 236.4 765.7 236.41C772.32 236.41 772.71 237.02 771.55 243.31C768.72 258.66 765.62 273.97 763.44 289.42C762.62 295.2 760.12 296.24 755.18 296.21C727 296.08 698.81 296.12 670.63 296.11C668.7 296.11 666.77 296.21 664.84 296.13C660.64 295.95 659.03 297.66 658.3 302.08C654.36 326.03 649.92 349.89 645.71 373.79C644.61 380.05 643.66 386.35 642.73 392.64C642.17 396.41 640.49 398.45 636.3 398.43C614.68 398.33 593.06 398.37 571.44 398.46C567.41 398.48 565.83 397.04 566.6 392.86C571.36 366.9 576.08 340.94 580.68 314.95C584.84 291.42 588.77 267.85 592.92 244.32C597.07 220.8 601.37 197.3 605.59 173.79C607.98 160.51 610.65 147.28 612.57 133.94C613.32 128.74 615.67 127.96 620.19 127.97C677.72 128.1 735.24 128.08 792.77 128.1C798.75 128.1 804.74 128.27 810.72 128.06C814.68 127.92 815.93 129.57 815.27 133.28C813.47 143.53 811.76 153.79 809.95 164.04C808.91 169.92 807.23 175.74 806.81 181.66C806.4 187.3 803.57 188.02 798.86 187.98C779.94 187.8 761.03 187.91 742.11 187.91V187.98H742.1Z" fill="white"/>
<path d="M831.83 398.39C821.41 398.39 810.99 398.14 800.58 398.49C795.45 398.66 794.06 396.81 794.93 392.06C797.57 377.66 800.07 363.23 802.64 348.82C806.09 329.49 809.56 310.16 813 290.83C816.51 271.12 820.02 251.4 823.5 231.68C826.84 212.72 830.15 193.74 833.47 174.77C835.92 160.73 838.18 146.65 840.99 132.68C841.36 130.85 844.48 128.27 846.36 128.25C868.15 127.96 889.95 128.1 911.75 128.11C915.3 128.11 917 129.11 916.23 133.32C910.64 163.83 905.2 194.37 899.84 224.92C894.95 252.8 890.29 280.72 885.38 308.6C881.24 332.11 876.87 355.59 872.61 379.08C871.75 383.81 870.64 388.53 870.2 393.3C869.83 397.3 867.98 398.5 864.25 398.46C853.45 398.33 842.64 398.41 831.84 398.41V398.38L831.83 398.39Z" fill="white"/>
<path d="M288.15 323.96C288.51 320.12 286.16 314.8 294.22 314.95C308.04 315.22 308.91 315.34 309.01 323.42C309.14 333.48 308.11 334.79 299.33 334.77C286.74 334.74 288.34 335.69 288.15 323.95V323.96Z" fill="white"/>
<path d="M247.35 339.04C247.35 344.06 247.48 349.08 247.32 354.09C247.1 360.68 244.98 362.67 238.51 362.78C236.77 362.81 235.03 362.68 233.3 362.76C228.23 362.99 225.54 360.3 225.46 355.55C225.28 344.17 225.4 332.78 225.54 321.4C225.59 317.21 227.9 315.34 232.17 315.1C246.72 314.29 247.39 314.84 247.33 329.2C247.32 332.48 247.33 335.76 247.33 339.04C247.33 339.04 247.34 339.04 247.35 339.04Z" fill="white"/>
<path d="M165.62 325.4C165.88 313.35 164.2 315.26 178.13 315.13C186.29 315.05 186.93 316 186.83 326.66C186.74 336.47 186.68 336.51 171.63 336.32C167.557 336.267 165.553 332.627 165.62 325.4Z" fill="white"/>
</g>
<defs>
<clipPath id="clip0_862_158">
<rect width="1335.05" height="526.58" fill="white"/>
</clipPath>
</defs>
</svg>
