<svg width="1265" height="398" viewBox="0 0 1265 398" fill="none" xmlns="http://www.w3.org/2000/svg">
<g clip-path="url(#clip0_862_123)">
<path d="M347.09 393.28C339.23 385.43 331.36 377.61 323.53 369.74C311.32 357.48 299.13 345.19 286.94 332.91C282.4 325.5 275.68 320.04 269.65 314C265.91 310.25 264.39 306.43 264.36 301.16C264.15 261.72 263.69 222.28 263.2 182.84C263.17 180.23 264.34 177.23 261.76 175.02C256.5 173.96 256.95 180.53 253.17 181.45C234.42 198.79 215.52 215.96 197.03 233.58C192.6 237.8 189.85 237.84 185.7 233.6C175.45 223.15 164.87 213.04 154.41 202.79C143.96 192.54 133.51 182.29 123.05 172.06C121.77 170.81 120.49 168.84 118.41 170C117.11 170.71 117.42 172.45 117.78 173.85C117.64 176.38 117.34 178.91 117.38 181.43C118.15 223.86 118.99 266.29 119.73 308.72C119.79 312.24 120.35 315.94 118.59 319.75C114.39 316.3 110.68 313.25 106.97 310.2C93.37 296.65 79.76 283.09 66.16 269.54C63.56 265.81 63.06 261.79 63.06 257.19C63.04 240.98 63.78 224.73 62.13 208.55C61.71 177.68 61.26 146.82 60.93 115.95C60.89 112.28 58.97 109.96 56.56 107.67C40.42 92.3201 24.31 76.9201 8.17003 61.5701C7.01003 60.4701 5.69003 59.4901 4.33003 58.6501C-0.349972 55.7501 -0.0699725 58.7601 0.450027 61.9801C0.300027 62.6601 0.0100275 63.3301 0.0200275 64.0101C1.06003 119.56 1.21003 175.13 3.49003 230.66C3.98003 242.61 6.78003 254.11 14.4 263.94C25.42 278.15 38.56 290.25 51.94 302.13C57.86 309.27 64.73 315.43 71.72 321.48C73.01 322.49 74.3 323.51 75.6 324.52C75.63 324.96 75.78 325.36 76.03 325.72C76.81 326.85 77.42 328.14 78.39 329.07C91.96 342.15 105.31 355.46 119.27 368.11C128.53 376.5 137.72 385.14 149.6 390.14C163.31 395.9 177.75 395.68 192.12 395.83C231.44 396.23 270.75 396.39 310.07 396.65C321.46 396.73 332.85 396.85 344.24 396.93C346.72 396.95 350.33 397.79 347.12 393.29L347.09 393.28Z" fill="#EFD196"/>
<path d="M874.82 182.33C847.43 182.27 820.04 182.33 792.66 182.34C787.32 182.34 781.98 182.27 776.65 182.41C772.26 182.52 771.93 184.54 774.5 187.63C778.56 196.36 777.99 205.7 778.01 214.93C778.05 242.36 777.95 269.8 778.04 297.23C778.07 305.4 778.49 313.54 773.32 320.65C772.57 321.68 771.91 323.15 773.33 324.39C775.67 326.69 778.62 325.66 781.27 325.66C807.98 325.72 834.69 325.66 861.41 325.63C868.14 325.63 874.87 325.57 881.61 325.59C884.74 325.59 886.29 324.23 886.27 320.98C886.22 312.16 886.3 303.33 886.3 294.51C886.3 290.95 884.36 289.61 881.41 291.41C872.89 296.61 863.5 295.66 854.27 295.62C838.5 295.55 822.72 296.72 806.97 295.03L806.88 294.97C806.95 286.63 807.03 278.29 807.1 269.95C824.14 268.11 841.23 269.3 858.29 269.18C863.11 269.14 865.16 267.72 864.55 262.88C864.32 261.06 864.29 259.22 864.16 257.38C864.28 253.67 864.17 249.95 864.56 246.27C865.12 240.96 863.37 238.8 857.66 239.05C847.69 239.49 837.69 239.19 827.7 239.2C813.06 239.22 806.207 231.983 807.14 217.49C807.17 217.03 807.19 216.56 807.18 216.1C807.13 213.2 808.67 211.68 811.46 211.87C835.49 213.54 860.12 206.85 883.56 216.95L883.64 217.03C887.68 218.41 886.67 215.17 886.74 213.39C886.99 207.13 887.02 200.86 887.14 194.6C887.41 181 888.29 182.39 874.81 182.36L874.82 182.33Z" fill="#EFD196"/>
<path d="M1246.06 252.63C1236.38 246.3 1225.46 243.08 1214.75 239.22C1205.01 235.71 1194.4 233.74 1187.35 225C1186.95 215.11 1190.28 211.06 1200.05 209.68C1205.13 208.96 1210.2 208.85 1215.33 209.39C1229.25 210.86 1241.58 216.8 1253.97 222.63C1257.45 226.41 1259.01 224.93 1259.11 220.59C1259.37 209.75 1259.45 198.9 1259.67 188.06C1259.75 184.14 1258.27 182.88 1254.64 184.75C1251.18 186.53 1247.72 188.31 1244.26 190.09C1240.28 188.97 1236.32 187.76 1232.31 186.75C1217.24 182.94 1202.13 180.35 1186.87 185.87C1183.77 185.34 1182.01 188.2 1179.35 188.82C1156.52 194.09 1151.03 229.04 1163.08 243.54C1164.28 247.33 1167.3 249.65 1170.39 251.54C1180.87 257.99 1191.91 263.33 1203.59 267.35C1212.56 270.44 1221.86 272.65 1230.24 277.34C1236.09 283.17 1236.13 287.17 1230.39 294.97C1221.4 297.86 1212.26 298.24 1202.92 297.08C1188.45 295.28 1174.75 291.09 1161.97 284.1C1157.71 281.77 1156.09 282.59 1156.02 287.37C1155.86 298.06 1155.68 308.75 1155.34 319.44C1155.16 325.17 1157.58 325.58 1161.37 322.46C1167.8 317.16 1174.52 316.87 1182.1 319.79C1189.52 322.65 1197.5 323.52 1205.36 323.98C1216.67 324.63 1228.16 325.52 1238.88 320.25C1253.06 314.95 1262.47 305.5 1264.17 289.96C1265.94 273.87 1259.63 261.52 1246.05 252.64L1246.06 252.63Z" fill="#EFD196"/>
<path d="M720.55 155.76C742.44 155.64 764.35 155.99 786.23 155.59C803.81 155.27 821.76 141.63 826.46 125.97C832.95 112.77 829.42 93.42 818.28 81.07C815.34 77.07 816.21 73.55 818.34 69.17C824.01 57.49 825.33 45.43 818.28 33.58V33.56C811.49 19.69 799.19 12.63 784.94 11.67C763.37 10.22 741.64 11.31 719.98 11.2C715.03 11.17 714.93 13.4 717.02 16.73C721.07 23.18 721.24 30.26 721.19 37.56C720.95 68.3 720.85 99.03 720.92 129.77C720.94 136.65 720.45 143.2 716.6 149.16C713.57 153.86 715.09 155.79 720.56 155.76H720.55ZM753.76 39.26C754.89 39.5 756.06 39.54 757.24 39.59C768.42 40.12 780.01 37.54 790.45 43.83C790.68 44.27 790.94 44.69 791.26 45.08C791.91 45.74 792.39 46.37 792.72 46.97C792.72 48.39 792.72 49.8 792.72 51.22C792.01 52.52 790.74 53.71 789.43 54.9C786.4 59.22 782.08 61.09 776.94 61.26C771.61 61.44 766.28 61.29 760.96 61.32C756.34 61.35 754.24 59.29 754.13 54.62C754.01 49.5 754.55 44.34 753.78 39.24L753.76 39.26ZM792.18 122.91C783.61 127.78 774.22 126.96 764.92 127.09C762.3 127.13 759.63 126.8 757.01 126.95C756.67 126.77 756.32 126.59 755.98 126.39C752.13 118.23 754.86 109.59 754.2 101.18C753.8 96.17 756.52 94.11 761.38 94.15C767.4 94.19 773.42 94.02 779.43 94.18C792.12 94.52 798.73 102.94 796.24 115.5C795.79 117.75 794.63 119.88 795.27 122.28C795.27 122.31 795.29 122.33 795.3 122.36C794.23 122.2 793.16 122.36 792.18 122.91Z" fill="#EFD196"/>
<path d="M1007.76 155.88C1041.73 155.78 1075.69 155.58 1109.66 155.64C1114.62 155.64 1117.01 154.27 1116.99 149.07C1116.96 140.7 1117.24 132.33 1117.41 123.96C1117.5 119.75 1115.93 118.54 1111.85 120.31C1108.06 121.95 1104.57 124.54 1100.15 124.54C1080.84 124.54 1061.53 124.51 1042.22 124.63C1038.56 124.65 1037.18 123.15 1037.35 119.64C1037.58 114.76 1037.98 109.86 1037.72 105C1037.43 99.4601 1039.69 97.7401 1045.08 97.8301C1059.97 98.0801 1074.86 97.7801 1089.75 97.9201C1094.17 97.9601 1096.11 96.5501 1095.94 91.9101C1095.71 85.8701 1095.71 79.8001 1096.15 73.7801C1096.55 68.3601 1094.22 66.9601 1089.24 67.0901C1079.01 67.3601 1068.77 67.2001 1058.53 67.2101C1037.33 67.2201 1037.48 67.2201 1038.37 46.1601C1038.58 41.1301 1040.58 39.9201 1045.17 39.9801C1059.13 40.1501 1073.09 40.0801 1087.05 39.9101C1095.42 39.8101 1103.76 39.5701 1111.47 43.6301C1112.35 44.1101 1113.23 44.5801 1114.11 45.0601C1117.16 47.0601 1117.74 44.7201 1117.71 42.6701C1117.6 32.5801 1119.06 22.4501 1117.24 12.3901C1116.5 11.9601 1115.75 11.1501 1115.01 11.1501C1079.14 11.0801 1043.27 11.0901 1007.4 11.0601C1003.55 11.0601 1002.74 12.9301 1004.64 15.8301C1009.05 22.5501 1008.45 30.0001 1008.39 37.4401C1008.14 67.0101 1007.95 96.5801 1007.72 126.15C1007.67 131.95 1007.88 137.77 1006.54 143.49C1005.49 145.27 1004.35 147 1003.41 148.84C999.87 155.77 999.93 155.88 1007.76 155.85V155.88ZM1039.72 125.72C1038.37 125.51 1037.16 125.02 1037.18 123.74C1037.18 123.68 1037.18 123.63 1037.18 123.57C1037.73 124.55 1038.54 125.22 1039.71 125.72H1039.72Z" fill="#EFD196"/>
<path d="M760.37 253.52C751.54 253.57 742.7 253.52 733.87 253.68C730.07 253.75 728.52 255.33 731.27 258.87C731.64 259.96 732.04 261.03 732.36 262.13C738.36 282.54 737.72 288.03 720.74 294.45C720.09 294.69 719.44 294.91 718.79 295.14C710.91 297.02 703.04 297.12 695.16 295.15C690.97 293.23 686.77 291.3 682.58 289.38L682.51 289.34C678.82 285.61 675.13 281.87 671.44 278.14C670.47 276.31 669.5 274.48 668.54 272.65C667.89 269.49 667.23 266.33 666.58 263.17C660.2 232.5 687.17 206.27 717.33 214.02C722.19 215.27 726.76 217.67 731.46 219.54C738.56 224.667 745.683 224.443 752.83 218.87C754.85 217.3 756.68 215.46 758.8 214.06C763.15 211.2 762.56 208.46 759.26 205.11C740.21 185.83 717.26 179.05 691 184.72C666.74 189.96 650.38 205.18 640.41 227.6C640.42 227.88 640.39 228.16 640.33 228.44C640.36 228.16 640.38 227.88 640.41 227.6C632.01 244.97 632.94 262.35 640.4 279.72C642.55 288.71 647.43 296.02 654.21 302.16C658.86 308.73 664.99 313.33 672.54 316.08C689.94 326.42 708.53 328.72 727.39 321.82C738.77 317.66 749.07 314.24 759.64 323.07C762.63 325.57 764.8 324.39 764.82 320.25C764.93 299.8 765.06 279.35 765.19 258.89C765.21 255.62 764.04 253.49 760.38 253.51L760.37 253.52Z" fill="#EFD196"/>
<path d="M1014.47 345.64C1009.81 345.72 1006.9 346.5 1006.86 352.01C1006.83 355.94 1007.97 360.13 1005.68 364.39C1000.38 359.85 997.19 354.43 993.69 349.31C989.9 343.76 984.49 345.61 979.72 346.25C974.94 346.89 976.93 351.45 976.83 354.3C976.41 366.14 976.45 378 976.12 389.85C976 394.09 977.68 395.97 981.87 395.4C985.58 394.9 990.99 397.26 990.98 390.2C990.98 384.99 990.98 379.78 990.98 374.57C991.67 374.39 992.36 374.2 993.06 374.02C997.03 379.87 1001.3 385.55 1004.9 391.62C1008.31 397.38 1013.52 395.32 1017.95 394.93C1022.34 394.54 1020.65 390.18 1020.71 387.5C1020.95 375.88 1020.68 364.25 1021.07 352.64C1021.24 347.53 1019.74 345.55 1014.47 345.64Z" fill="#EFD196"/>
<path d="M445.79 367.78C451.29 355.93 446.69 347.95 433.64 346.92C426.47 346.36 419.23 346.75 412.03 346.42C407.34 346.21 405.89 348.37 406.02 352.69C406.19 358.73 406.06 364.78 406.06 370.83H406.2C406.2 377.34 406.25 383.85 406.18 390.36C406.14 394.08 407.58 395.82 411.57 395.72C419.94 395.52 428.32 395.68 436.69 395.64C442.33 395.61 446.65 393.07 448.96 387.97C451.32 382.77 451.34 377.51 446.99 373.11C445.37 371.48 444.61 370.31 445.79 367.78ZM425.68 356.7C429.03 356.85 432.61 357.17 432.56 361.57C432.51 365.74 428.89 365.52 425.98 365.81C422.4 366.13 420.13 365.08 420.15 360.99C420.17 357.06 422.63 356.57 425.68 356.7ZM427.38 384.97C423.76 384.93 420.96 385.01 420.77 380.95C420.55 376.32 423.64 376.52 426.74 376.57C429.79 376.62 433.3 376.52 433.22 380.76C433.14 384.89 429.58 384.75 427.38 384.96V384.97Z" fill="#EFD196"/>
<path d="M1106.97 370.5C1106.68 369.84 1106.17 369.21 1105.42 368.62C1103.28 366.95 1094.24 367.14 1087.62 368.38C1085.93 368.41 1084.24 368.47 1082.55 368.58C1081.77 368.72 1081.07 369.01 1080.44 369.49C1077.66 373.12 1078.53 376.34 1081.41 379.41C1081.74 379.76 1081.24 380.14 1080.6 379.92C1080.38 379.85 1080.16 379.78 1079.95 379.74C1079.13 379.34 1078.47 378.72 1077.86 378.02C1075.91 375.06 1074.62 371.93 1075.06 368.26C1075.68 362.95 1078.25 360.84 1083.63 361.33C1084.23 361.68 1084.86 362.01 1085.54 362.23C1089.66 365.02 1094.2 365.95 1099.18 365.61C1101.97 365.42 1103.85 365.04 1104.92 364.24C1106.75 363.05 1105.95 360.01 1106.25 357.88C1105.66 357.45 1105.08 357.01 1104.49 356.58C1101.39 350.44 1095.97 347.75 1089.57 346.41C1075.01 343.36 1064.49 347.84 1055.97 360.81C1052.77 367.27 1052.42 374.21 1055.34 380.47C1064.2 399.49 1090.48 402.75 1102.76 388.46C1104.11 383.93 1107.27 380.14 1108.05 375.39C1108.05 374.57 1108 373.75 1107.91 372.94C1107.74 371.92 1107.41 371.13 1106.97 370.51V370.5Z" fill="#EFD196"/>
<path d="M894.28 34.07C894.05 52.46 894.2 70.85 894.2 89.24C893.9 89.24 893.61 89.24 893.31 89.24C893.31 109.26 893.38 129.28 893.25 149.3C893.22 153.45 894.03 155.92 898.91 155.89C928.95 155.74 958.99 155.73 989.04 155.73C992.68 155.73 994.76 154.53 994.78 150.55C994.83 141.94 995.02 133.32 995.19 124.71C995.28 119.84 992.96 118.73 989.16 121.26C982.56 125.66 975.29 125.99 967.74 125.86C955.4 125.65 943.05 125.54 930.72 125.86C925.31 126 923.51 124.44 923.6 118.81C924.03 91.34 924.14 63.87 924.12 36.4C924.12 29.51 924.72 22.96 928.32 16.94C931.27 12.02 928.86 10.96 924.25 11.03C914.01 11.2 903.75 11.37 893.51 11.12C887.24 10.96 887.36 13.48 890.22 17.5C893.79 22.52 894.35 28.07 894.28 34.06V34.07Z" fill="#EFD196"/>
<path d="M689.68 130.23C691.9 129.17 692.99 127.05 694.37 125.2C712.05 101.43 712.64 67.5401 695.83 42.6501C678.6 17.1501 646.24 5.32011 615.96 13.4501C586.01 21.4901 564.75 47.3001 562.83 77.9501C560.91 108.51 579.1 138.79 605.2 148.48C616.87 155.49 629.74 156.52 642.79 155.24C661.75 153.39 677.87 145.71 689.69 130.22L689.68 130.23ZM601.58 62.6601C610.85 46.8701 631.57 39.2201 649.44 46.0501C667.36 52.9001 678.08 72.2501 674.22 90.1001C672.7 97.1001 669.22 103.03 665.75 109.06C665.59 109.45 665.44 109.84 665.27 110.22C663.71 110.66 662.41 111.9 661.03 112.95C651.8 119.95 641.74 123.94 629.87 121.9C628.09 121.59 626.28 121.58 624.72 122.35C624.48 122.18 624.25 122 624.01 121.81C622.05 121.02 620.51 119.5 618.58 118.68C597.75 109.78 589.52 83.2001 601.56 62.6801L601.58 62.6601Z" fill="#EFD196"/>
<path d="M843.21 129.96C843.2 137.09 842.57 143.78 838.34 149.83C835.32 154.15 837.01 156.12 842.02 156.07C852.48 155.96 862.95 155.89 873.41 155.94C879 155.97 879.37 153.37 876.75 149.49C873.16 144.17 872.82 138.32 872.88 132.17C873.2 101.49 873.36 70.7999 873.5 40.1199C873.54 31.7499 873.06 23.3699 878.34 16.0099C880.19 13.4299 880.12 11.1499 875.94 11.1599C864.55 11.1799 853.15 11.1699 841.76 11.1499C837.98 11.1499 837.35 12.8299 838.91 15.9899C840.66 19.5299 842.75 22.9199 843.91 26.7099C844.01 27.3799 844.24 28.0799 844.43 28.7199C844.44 30.1799 844.45 31.6499 844.46 33.1099C843.7 35.0199 843.87 36.9999 843.94 38.9699C843.88 39.7799 843.84 40.5999 843.84 41.4099C843.57 70.9299 843.25 100.45 843.21 129.97V129.96ZM845.27 137.63C845.15 137.82 845.03 138 844.9 138.18C844.9 137.92 844.9 137.65 844.9 137.39C845.03 137.48 845.15 137.56 845.28 137.63H845.27Z" fill="#EFD196"/>
<path d="M614.83 352.46C614.89 348.07 613.58 345.97 608.87 346.31C604.68 346.61 600.26 345.67 600.34 352.33C600.39 356.45 601.3 360.88 598.79 365.42C596.2 362.55 594.05 360.17 591.9 357.78C590.79 354.14 588.23 351.37 585.92 348.55C582.57 344.47 577.78 346.21 573.54 346.37C570.51 346.48 570.19 349.1 570.19 351.52C570.19 364.71 570.21 377.91 570.25 391.1C570.25 393.25 570.52 395.1 573.21 395.86C581.17 398.12 584.93 395.5 585.03 387.38C585.07 384.37 585.2 381.36 585.18 378.35C585.16 375.45 586.59 375.37 588.69 376.39C592.41 381.99 596.04 387.66 599.88 393.18C603.09 397.8 608.03 395.75 612.13 395.5C616.26 395.25 614.8 391.22 614.83 388.75C614.95 376.64 614.7 364.54 614.85 352.43L614.83 352.46Z" fill="#EFD196"/>
<path d="M520.77 350.82C519.46 346.99 516.7 345.95 513.16 346.5C508.68 347.21 502.78 344.11 500.18 350.23C494.55 363.47 490.41 377.26 486.08 390.96C485.54 392.65 485.01 394.54 487.54 395.57C492.06 397.4 498.68 395.08 500.4 390.36C501.88 386.3 504.84 386.23 508.18 386.22C511.66 386.22 515.81 385.51 516.8 390C518.12 396.02 522.16 396.16 527.53 395.58C529.19 393.77 536.82 399.53 534.63 391.65C530.77 377.83 525.41 364.43 520.77 350.82ZM508.84 374.71C506.66 374.71 504.93 374.03 505.18 371.59C505.41 369.32 505.77 366.25 508.44 366.13C510.83 366.02 510.84 369.14 511.48 371.02C512.27 373.35 511.09 374.51 508.84 374.71Z" fill="#EFD196"/>
<path d="M928.84 354.53C927.03 348.24 924.42 344.32 918.89 345.89C913.24 346.37 909.03 344.92 906.76 350.49C901.38 363.65 897.05 377.15 892.5 390.59C891.83 392.58 891.11 395.28 894.38 395.27C899.06 395.26 905.09 397.78 906.68 389.99C907.36 386.66 910.04 385.73 913.13 386.15C916.37 386.58 921.38 384.31 922.37 388.65C924.31 397.23 930.4 395.21 935.98 395.42C940.39 395.59 941.87 394.32 940.27 389.71C936.23 378.06 932.25 366.37 928.84 354.53ZM915.24 374C913.53 374 911.77 373.65 912.18 371.44C912.53 369.57 912.56 366.74 915.07 366.7C917.13 366.67 917.25 369.24 917.66 370.44C918.12 372.96 917.25 373.99 915.23 373.99L915.24 374Z" fill="#EFD196"/>
<path d="M377.83 184.1C378.07 160.41 369.77 142.29 352.52 126.32C323.51 99.47 295.68 71.34 267.31 43.79C257.39 34.16 248.01 23.83 234.89 18.25C230.41 14.92 225.12 14.48 219.83 14.05C219.32 13.69 218.79 13.54 218.25 13.52C214.27 12.4 210.13 12.83 206.08 12.82C166.38 12.72 126.68 12.77 86.98 12.78C73.98 12.78 60.98 12.8 47.98 12.83C46.38 12.83 44.28 12.57 43.76 14.38C43.23 16.2 45.01 17.08 46.55 17.72C46.76 18.36 46.76 19.23 47.2 19.61C61.18 31.86 73.49 45.79 86.6 58.9C98.59 70.89 110.69 82.78 123.01 94.44C135.64 106.39 147.16 119.5 160.84 130.34C164.93 135.61 169.76 140.1 175.09 144.07C178.59 147.75 182.23 151.3 185.54 155.15C189.04 159.22 191.71 158.44 195.12 154.82C204.01 145.38 213.19 136.21 222.33 127C227.65 121.63 233.98 117.23 237.97 110.59C244.52 103.99 251.08 97.4 257.63 90.8C260.92 90.2 261.59 85.08 265.8 86.08C274.07 94.35 281.83 103.14 290.83 110.67C295.6 116.01 299.8 122.06 305.27 126.55C315.07 134.58 321.22 143.72 319.19 156.9C319.05 158.98 318.79 161.05 318.8 163.13C319.02 199.64 319.61 236.15 319.31 272.66C319.23 282.63 321.5 289.55 329.5 296.38C345.36 309.92 359.8 325.12 374.83 339.63C375.99 341.69 377.41 342.71 378.51 339.78C379.05 338.34 378.73 336.56 378.72 334.93C378.35 284.65 377.34 234.37 377.85 184.1H377.83Z" fill="#EFD196"/>
<path d="M1002.87 322.24C1006.06 325.18 1007.44 323.27 1007.6 320.04C1007.92 313.54 1008.04 307.03 1008.07 300.53C1008.18 277.77 1008.21 255.02 1008.27 232.26C1008.42 228.78 1008.57 225.3 1008.73 221.82C1009.29 210.12 1006.82 198.07 1013.63 187.13C1016.01 183.31 1012.74 182.36 1009.56 182.34C1000.25 182.29 990.93 182.27 981.62 182.3C971.95 182.34 971.63 182.89 976.1 191.43C976.42 192.04 976.92 192.54 977.34 193.1C978.51 196.62 978.96 200.2 978.92 203.93C978.76 217.78 978.85 231.62 978.69 245.47C978.66 247.83 979.61 250.5 977.33 252.88C973.18 249.55 969.11 246.29 965.03 243.02C961.91 239.94 958.92 236.72 955.66 233.81C938.01 218.11 921.62 201.04 903.39 185.96C897.39 184.91 900.19 189.75 900.17 191.58C899.85 227.38 899.71 263.18 899.74 298.98C899.74 306.29 899.57 313.33 895.23 319.66C892.91 323.03 893.49 325.29 898.2 325.26C908.9 325.2 919.59 325.18 930.29 325.23C935.34 325.26 935.18 322.61 933.11 319.52C929.23 313.75 929.07 307.39 929.22 300.8C929.53 287.79 929.52 274.77 929.77 261.75C929.81 259.81 929.06 257.6 931.15 255.53C936.75 260.38 942.3 265.19 947.85 269.99C965.65 287.97 984.25 305.11 1002.86 322.24H1002.87ZM1006.2 260.76C1006.29 260.69 1006.38 260.61 1006.47 260.53C1006.47 260.77 1006.47 261.01 1006.46 261.26C1006.37 261.1 1006.29 260.93 1006.2 260.77V260.76Z" fill="#EFD196"/>
<path d="M293.34 16.9101C309.8 32.9501 325.58 49.6801 342.77 64.9801C349.63 72.8401 356.91 80.2701 365.03 86.8501C366.58 90.1001 369.65 91.9901 371.95 94.5701C372.83 95.5601 373.78 96.9901 375.37 96.4401C377.4 95.7401 376.88 93.7501 376.87 92.2401C376.63 67.3701 376.3 42.4901 376.1 17.6201C376.07 13.7101 374.52 12.3001 370.63 12.4701C364.83 12.7201 359 12.5101 353.19 12.5301C334.59 12.5801 315.98 12.6301 297.38 12.7401C295.59 12.7401 293.5 12.2001 292.23 14.0301C291.34 15.3101 292.58 16.1601 293.36 16.9101H293.34Z" fill="#EFD196"/>
<path d="M852.48 367.25C857.87 355.72 854.17 348.75 841.47 346.51C834.12 345.21 826.64 346.1 819.21 345.95C814.27 345.84 812.67 348.13 812.82 352.73C813.02 358.76 812.87 364.81 812.87 370.84H812.52C812.52 377.34 812.56 383.85 812.5 390.34C812.47 393.58 813.44 395.77 817.17 395.74C825.77 395.66 834.4 396.16 842.94 395.44C855.3 394.39 860.58 382.56 853.41 372.65C852.05 370.77 851.34 369.68 852.48 367.25ZM839.98 380.4C839.85 384.84 835.9 384.51 832.68 384.6C829.44 384.7 826.63 384.46 826.85 379.98C827.09 375.04 830.72 376.45 833.41 376.31C836.49 376.14 840.1 376.33 839.97 380.4H839.98ZM838.21 358.38C839.6 359.43 839.9 361.37 838.79 362.76C835.39 367.01 831 365.52 826.74 364.49C826.69 362.35 826.64 360.21 826.59 358.06C830.53 355.96 834.5 355.58 838.21 358.38Z" fill="#EFD196"/>
<path d="M621.71 182.64C588.48 182.92 555.26 182.93 522.03 183.11C519.57 183.12 516.2 182.05 514.88 184.46C513.4 187.17 516.32 189.41 517.7 191.7C518.59 195.04 519.45 198.32 519.44 201.88C519.37 233.16 519.46 264.44 520.64 295.71C520.93 303.52 521.52 311.45 517.61 318.75C517.07 319.59 516.52 320.43 515.98 321.27C513.74 325.17 516.28 325.68 519.21 325.68C554.03 325.7 588.84 325.68 623.66 325.73C627.51 325.73 629.1 324.15 629.03 320.32C628.89 312.9 628.98 305.47 628.92 298.05C628.85 289.9 628.15 289.52 620.67 293.42C619.84 293.93 619.01 294.45 618.19 294.96C616.39 295.31 614.59 295.96 612.78 295.98C593.24 296.11 573.7 296.11 554.16 296.2C550.77 296.22 549.72 294.39 549.72 291.37C549.72 286.49 549.96 281.58 549.56 276.73C549.08 271.01 551.65 269.58 556.91 269.65C571.1 269.85 585.3 269.36 599.48 269.68C605.71 269.82 607.8 267.5 607.36 261.53C606.99 256.44 606.98 251.28 607.36 246.19C607.77 240.63 605.55 238.89 600.13 238.96C583.38 239.18 566.63 238.99 549.88 238.96C549.75 232.25 549.82 225.53 549.44 218.83C549.15 213.68 551.21 211.89 556.3 211.95C570.43 212.11 584.57 211.94 598.71 211.82C606.81 211.75 614.91 211.51 622.34 215.58C626.9 218.85 628.97 217.55 628.94 212.07C628.9 204.64 628.69 197.19 629.07 189.78C629.36 184.14 627.03 182.62 621.72 182.66L621.71 182.64ZM522.01 278.54C522.14 278.64 522.26 278.73 522.38 278.81C522.27 279.06 522.15 279.3 522.02 279.55C522.02 279.21 522.02 278.87 522.02 278.53L522.01 278.54Z" fill="#EFD196"/>
<path d="M92.32 392.58C91.43 391.52 90.33 390.62 89.33 389.65C62.45 363.63 35.58 337.61 8.69999 311.6C5.54999 308.11 4.25999 309.33 4.30999 313.4C4.37999 320.13 4.50999 326.86 4.68999 333.58C5.18999 352.13 5.74999 370.68 6.24999 389.23C6.34999 393 6.80999 396.05 11.87 396C37.84 395.71 63.82 395.61 89.8 395.43C91.05 395.95 92.46 397.11 93.62 395.86C95.09 394.28 93.09 393.5 92.31 392.57L92.32 392.58Z" fill="#EFD196"/>
<path d="M1108.98 190.06C1106.09 187.51 1102.71 186.15 1098.88 185.87C1094.92 184.83 1090.97 182.99 1086.98 182.9C1066.98 182.46 1046.98 182.46 1026.98 182.34C1023.03 182.32 1022.01 184.06 1023.83 187.66C1026 191.97 1028.65 195.97 1028.58 201.27C1028.09 235.45 1027.79 269.64 1027.57 303.83C1027.54 308.58 1026.96 313.05 1024.73 317.26C1022.64 319.19 1020.5 321.73 1021.6 324.33C1022.54 326.56 1025.83 325.49 1028.03 325.47C1046.62 325.28 1065.25 325.59 1083.79 324.47C1102.74 323.32 1118.45 314.95 1129.94 299.43C1132.24 297.97 1133.13 295.49 1134.24 293.24C1143.42 274.72 1146.05 255.06 1142.35 234.95C1138.65 214.82 1128.2 199 1108.97 190.07L1108.98 190.06ZM1090.92 290.5C1085.63 292.48 1080.17 293.28 1074.51 293.28C1060.42 293.28 1060.64 293.2 1060.16 278.81C1059.52 259.72 1061.9 240.74 1061.6 221.68C1061.57 220.07 1061.68 218.42 1061.51 216.83C1061.67 216.54 1061.84 216.26 1062.03 215.98C1070.85 212.81 1079.82 213.72 1088.66 215.67C1098.97 217.95 1105.47 224.79 1107.75 234.85C1112.17 254.35 1112.09 273.23 1097.26 289.13C1097.24 289.29 1097.21 289.44 1097.19 289.59C1095.1 288.84 1093.02 289.71 1090.91 290.5H1090.92Z" fill="#EFD196"/>
<path d="M404.75 148.66C404.79 152.13 406.46 153.48 409.65 151.93C414.65 149.52 419.53 146.86 424.47 144.31C427.99 143.61 431.3 142.51 433.74 139.67C436.12 137.1 435.01 133.93 435.01 131.06C435.05 116 434.83 100.95 434.83 85.8899C434.83 83.7499 433.93 81.2499 436.25 79.2999C437.76 80.3699 439.23 81.4299 440.71 82.4799C446.38 90.6599 452.96 98.0599 460 105.08C460.68 105.6 461.21 106.26 461.74 106.92C461.13 106.38 460.55 105.77 460 105.08C463.4 111.23 468.69 115.88 472.86 121.41C476.12 125.75 478.6 125.61 481.99 121.39C491.88 109.08 502.04 96.9799 512.18 84.8699C513.98 82.7199 515.33 79.8099 519.42 79.1499C519.42 97.2899 519.61 114.93 519.31 132.56C519.22 137.9 520.54 141.3 525.81 143.28C531.01 145.23 535.92 147.96 540.97 150.31C548.97 154.03 549.41 153.77 549.37 144.89C549.17 99.3399 548.95 53.7799 548.73 8.22989C548.72 6.13989 548.84 3.99989 548.41 1.97989C548.01 0.0698937 546.83 -1.03011 545.25 1.32989C544.1 2.44989 542.84 3.46989 541.83 4.69989C521.97 28.5899 502.03 52.4099 482.39 76.4799C478.35 81.4299 475.91 81.4999 471.92 76.5099C466.6 69.8499 461.61 62.8199 455.02 57.2499C453.26 53.9399 451.11 50.9899 447.74 49.1299C446.88 48.4699 446.02 47.7999 445.16 47.1399C444.4 42.7899 440.41 40.9399 437.98 37.8699C429.07 24.6699 418.21 13.1099 407.32 1.58989L407.15 1.35989C405.54 -0.880106 404.54 -0.190106 404.35 2.11989C404.11 5.12989 404.13 8.15989 404.14 11.1899C404.32 55.8499 404.52 100.51 404.71 145.17C404.71 146.33 404.74 147.5 404.76 148.66H404.75Z" fill="#EFD196"/>
<path d="M407.17 324.35C407.73 324.72 408.28 325.41 408.84 325.41C439.96 325.48 471.08 325.49 502.21 325.51C505.87 325.51 506.93 323.36 506.88 320.07C506.75 311.94 506.64 303.81 506.69 295.68C506.72 290.84 504.59 290.14 500.53 291.83C496.48 293.51 492.79 296.5 488.24 296.48C470.6 296.41 452.94 297.42 435.31 296.02C435.31 256.88 435.34 217.74 435.23 178.59C435.23 176.03 436.54 172.99 433.74 170.88C423.99 173.1 415.36 177.8 406.91 182.91C403.65 184.65 404.74 187.77 404.76 190.37C405.08 232.36 405.47 274.35 405.93 316.33C405.96 319.01 405.11 321.93 407.17 324.34V324.35Z" fill="#EFD196"/>
<path d="M690.95 368.82C687.48 368.65 684 368.76 680.53 368.86C677.32 368.95 673.73 368.54 672.85 372.96C672.09 376.81 673.11 379.83 677.54 381.05C670.72 380.92 669.27 379.81 668.72 373.84C668.36 369.94 668.56 365.98 668.52 362.05C673.54 356.02 676.86 355.98 682.45 361.88C685.03 364.61 696.22 366.23 697.79 363.64C700.86 358.54 697.13 354.91 693.76 351.78C682.47 341.3 659.09 345.42 651.37 359.11C645.74 371.26 650.2 385.72 661.5 391.92C675.12 399.4 689.97 395.76 697.81 383.01C701.35 379.77 701.79 375.49 700.23 371.54C698.61 367.45 694.26 368.97 690.95 368.81V368.82Z" fill="#EFD196"/>
<path d="M642.27 96.8401C644.98 93.6701 647.6 90.4201 650.19 87.1501C651.17 85.9101 652.45 84.7401 652.25 82.7601C652.17 82.4601 652.17 81.9201 651.9 81.6001C648.84 77.8201 645.76 74.0501 642.65 70.3101C634.56 60.5801 635.85 60.7301 627.96 70.2501C615.32 85.4901 614.2 79.7601 628.22 96.6301C635.19 105.02 635.38 104.9 642.27 96.8401Z" fill="#EFD196"/>
</g>
<defs>
<clipPath id="clip0_862_123">
<rect width="1264.47" height="397.3" fill="white"/>
</clipPath>
</defs>
</svg>
