<svg width="772" height="489" viewBox="0 0 772 489" fill="none" xmlns="http://www.w3.org/2000/svg">
<g clip-path="url(#clip0_862_151)">
<path d="M0 145.65V98.17C8.3 96.74 16.68 97.46 25 97.66C30.76 97.8 33.05 96.38 32.78 90.2C32.3 79.48 32.53 68.72 32.67 57.98C33.07 26.73 53.73 3.84 84.86 0C87.01 0.08 89.16 0.23 91.31 0.23C287.91 0.23 484.52 0.23 681.12 0.23C685.91 0.23 690.7 0.13 695.49 0.07C726.04 3.91 746.97 27.42 747.21 58.25C747.28 68.08 747.16 77.91 747.25 87.73C747.35 98.18 745.37 97.39 757.39 97.57C762.15 97.64 766.97 96.83 771.68 98.19V145.67C766.47 146.97 761.13 146.56 755.95 146.14C749.19 145.6 746.96 147.51 747.05 154.7C747.46 186.82 747.23 218.95 747.23 251.08C747.23 278.89 747.4 306.7 747.09 334.51C747.02 340.38 748.91 342.03 754.43 341.59C760.15 341.14 765.93 341.39 771.69 341.33V390.25C765.7 390.28 759.69 390.59 753.71 390.25C748.83 389.97 746.91 391.37 747.11 396.6C747.5 407.13 747.26 417.68 747.22 428.22C747.11 455.47 733.52 475.16 708.05 485.04C707.137 485.393 706.273 486.41 705.46 488.09H702.58C702.56 487.75 702.54 487.41 702.52 487.06C702.06 487.4 701.6 487.74 701.14 488.09H74.87C75.04 487.92 75.24 487.77 75.37 487.58C75.47 487.44 75.57 487.11 75.54 487.1C74.31 486.42 73.12 485.62 71.82 485.12C46.65 475.51 32.98 456.1 32.69 429.29C32.57 418.3 32.48 407.3 32.73 396.31C32.84 391.62 31.28 390.07 26.55 390.25C17.72 390.58 8.86 390.3 0.01 390.27V341.35C8.87 341.41 17.74 341.24 26.59 341.61C31.32 341.81 32.75 340.23 32.74 335.52C32.61 274.46 32.61 213.39 32.74 152.33C32.75 147.56 31.16 146.2 26.54 146.2C17.7 146.2 8.83 147.07 0.01 145.69L0 145.65ZM389.79 439.13C488.16 439.13 586.53 439.13 684.89 439.13C697.33 439.13 698.51 437.96 698.51 425.6C698.51 304.76 698.51 183.93 698.51 63.09C698.51 49.56 697.71 48.75 684.31 48.75C488.53 48.75 292.76 48.75 96.98 48.75C94.34 48.75 91.7 48.75 89.07 48.87C84.23 49.08 81.54 51.6 81.28 56.48C81.15 58.87 81.16 61.27 81.16 63.67C81.16 184.03 81.16 304.38 81.16 424.74C81.16 438.1 82.17 439.13 95.4 439.13C193.53 439.13 291.66 439.13 389.78 439.13H389.79Z" fill="#F07A01"/>
<path d="M406.14 316.03C406.14 299.5 405.95 282.96 406.25 266.43C406.34 261.3 404.62 259.97 399.71 260.04C389.54 260.19 390.1 262.2 390.06 250.65C390.03 239.63 390.31 228.6 389.95 217.59C389.78 212.45 391.54 211.13 396.48 211.26C407.08 211.53 406.12 212.69 406.13 201.81C406.16 176.17 406.1 150.53 406.16 124.89C406.2 107.54 415.92 97.67 433.23 97.56C453.13 97.43 473.03 97.42 492.94 97.56C509.86 97.68 519.73 107.61 519.77 124.41C519.83 151.01 519.64 177.61 519.91 204.2C519.96 209.7 518.66 212.4 512.82 211.38C505.36 210.08 502.93 213.02 503.4 220.61C504.08 231.59 503.79 242.65 503.48 253.66C503.34 258.56 504.71 260.4 509.87 260.27C520.91 259.99 519.77 258.74 519.78 270.14C519.81 300.81 519.81 331.48 519.78 362.15C519.77 380.53 510.21 390.25 492.05 390.29C472.15 390.34 452.25 390.37 432.34 390.29C416.55 390.22 406.34 380.08 406.18 364.19C406.02 348.14 406.15 332.08 406.14 316.03ZM454.86 300.41C454.86 312.15 455.23 323.91 454.71 335.62C454.41 342.28 458.32 341.67 462.41 341.44C466.26 341.22 471.1 343.38 470.97 335.8C470.59 312.57 470.59 289.32 471 266.08C471.12 259.46 467.46 259.96 463.32 260.18C459.41 260.39 454.41 258.39 454.72 265.91C455.19 277.39 454.84 288.91 454.85 300.41H454.86ZM454.86 178.85C454.86 187.71 455.25 196.59 454.73 205.41C454.35 211.9 458.12 211.66 462.38 211.36C466.24 211.09 471.16 213.3 470.98 205.71C470.56 187.77 470.58 169.8 470.98 151.86C471.15 144.23 466.12 146.6 462.31 146.28C457.97 145.91 454.34 145.88 454.72 152.29C455.24 161.12 454.85 170 454.85 178.85H454.86Z" fill="#F07A01"/>
<path d="M536.13 243.85C536.13 204.3 536.11 164.76 536.13 125.21C536.13 107.42 545.77 97.61 563.6 97.54C588.54 97.44 613.49 97.43 638.43 97.54C656.32 97.63 665.99 107.36 666.07 125.11C666.13 140.69 665.91 156.27 666.19 171.84C666.28 176.89 665.31 179.09 659.57 178.87C647.6 178.41 635.58 178.47 623.6 178.87C618.32 179.04 617.09 177.13 617.36 172.3C617.72 165.61 617.25 158.88 617.52 152.18C617.69 147.99 616.54 146.02 611.96 146.2C605.02 146.48 598.03 146.65 591.11 146.16C585.09 145.73 584.69 148.73 584.71 153.49C584.85 193.27 584.79 233.06 584.79 272.85C584.79 293.7 584.9 314.55 584.71 335.4C584.67 339.94 585.8 341.87 590.72 341.59C597.65 341.19 604.64 341.21 611.58 341.59C616.49 341.85 617.59 339.88 617.55 335.34C617.36 312.57 617.32 289.8 617.57 267.04C617.63 261.8 616.32 259.85 610.77 260.05C600.96 260.39 601.06 261.96 601.03 250.55C601.01 239.29 601.16 228.02 600.97 216.76C600.9 212.76 602.21 211.25 606.32 211.32C618.31 211.54 630.31 211.18 642.29 211.53C655.22 211.92 665.86 222.03 665.95 234.92C666.24 278.78 666.25 322.64 665.91 366.5C665.81 380.2 654.94 390.19 641.18 390.27C614.8 390.43 588.42 390.38 562.03 390.3C546.4 390.25 536.22 379.86 536.19 363.93C536.13 323.91 536.17 283.88 536.16 243.85H536.13Z" fill="#F07A01"/>
<path d="M373.55 235.62C373.55 277.8 373.57 319.98 373.54 362.16C373.53 380.79 363.89 390.3 345.13 390.31C320.19 390.32 295.25 390.35 270.3 390.28C253.92 390.23 243.73 380.15 243.73 363.93C243.69 277.65 243.77 191.37 243.59 105.09C243.58 99.19 245.09 97.13 251.18 97.38C262.43 97.83 273.73 97.84 284.99 97.37C291.09 97.11 292.55 99.14 292.53 105.05C292.34 180.78 292.4 256.52 292.4 332.25C292.4 341.47 292.4 341.7 301.66 341.41C309.23 341.17 319 344.78 323.74 339.86C328.1 335.33 324.99 325.7 324.99 318.32C325.07 247.62 325.13 176.92 324.88 106.22C324.86 99.56 326.08 96.9 333.39 97.34C344.38 98.02 355.46 97.82 366.47 97.39C372.29 97.16 373.69 99.23 373.67 104.76C373.47 148.38 373.56 192 373.56 235.62H373.55Z" fill="#F07A01"/>
<path d="M113.8 252.66C113.8 210.24 113.79 167.82 113.8 125.4C113.8 107.46 123.34 97.64 141.05 97.54C160.71 97.43 180.38 97.43 200.05 97.54C217.66 97.64 227.39 107.55 227.41 125.36C227.46 166.82 227.46 208.28 227.41 249.74C227.39 266.05 216.79 276.48 200.29 276.56C190.22 276.61 180.12 277.04 170.08 276.4C163.37 275.97 162.32 278.45 162.37 284.49C162.67 317.08 162.3 349.68 162.69 382.27C162.77 389.15 160.56 390.71 154.2 390.44C142.95 389.97 131.65 390 120.4 390.44C114.82 390.66 113.66 388.72 113.69 383.5C113.89 339.88 113.8 296.27 113.8 252.65V252.66ZM178.49 187.4C178.49 176.4 178.07 165.38 178.65 154.42C179 147.76 176.84 146.2 170.36 146C163.11 145.78 162.34 148.8 162.42 154.78C162.7 175.58 162.42 196.38 162.58 217.18C162.67 228.88 160.01 227.3 173.24 227.78C178.1 227.96 178.64 225.81 178.57 221.83C178.37 210.36 178.5 198.88 178.5 187.4H178.49Z" fill="#F07A01"/>
</g>
<defs>
<clipPath id="clip0_862_151">
<rect width="771.69" height="488.07" fill="white"/>
</clipPath>
</defs>
</svg>
