<svg width="108" height="109" viewBox="0 0 108 109" fill="none" xmlns="http://www.w3.org/2000/svg">
<path d="M65.3069 76.6908L68.3003 77.1024L71.2937 77.5141L71.7049 74.5222L74.6983 74.9338L75.1095 71.9418L78.1029 72.3535L78.5141 69.3615L78.9253 66.3696L81.9187 66.7813L82.3298 63.7893L85.3232 64.201L84.9121 67.1929L87.9055 67.6046L87.4943 70.5965L87.0831 73.5885L86.6719 76.5805L89.6653 76.9921L89.2541 79.9841L92.2475 80.3958L95.2409 80.8074L98.2343 81.2191L97.8231 84.211L97.4119 87.203L94.4185 86.7913L94.0074 89.7833L91.014 89.3716L90.6028 92.3636L90.1916 95.3555L93.185 95.7672L92.7738 98.7591L92.3626 101.751L95.356 102.163L94.9448 105.155L91.9514 104.743L88.958 104.331L85.9646 103.92L86.3758 100.928L83.3824 100.516L80.389 100.104L80.8002 97.1125L77.8068 96.7008L74.8134 96.2892L74.4022 99.2811L71.4088 98.8695L68.4154 98.4578L68.0042 101.45L65.0108 101.038L62.0174 100.626L59.024 100.215L59.4352 97.2228L62.4286 97.6345L62.8398 94.6425L63.251 91.6506L66.2444 92.0622L66.6556 89.0703L67.0668 86.0783L64.0734 85.6666L64.4845 82.6747L61.4911 82.263L61.9023 79.2711L62.3135 76.2791L65.3069 76.6908ZM73.0616 86.8989L72.6504 89.8909L75.6438 90.3025L78.6372 90.7142L81.6306 91.1258L84.624 91.5375L85.0352 88.5456L88.0286 88.9572L88.4398 85.9653L85.4464 85.5536L85.8576 82.5616L86.2688 79.5697L83.2754 79.158L82.8642 82.15L82.453 85.1419L85.4464 85.5536L85.0352 88.5456L82.0418 88.1339L79.0484 87.7222L76.055 87.3106L73.0616 86.8989L73.4728 83.9069L76.4662 84.3186L76.8774 81.3267L77.2886 78.3347L74.2952 77.923L73.884 80.915L73.4728 83.9069L70.4794 83.4953L70.0682 86.4872L73.0616 86.8989Z" fill="url(#paint0_linear_566_355)"/>
<path d="M59.3204 75.8676L62.3139 76.2793L61.9027 79.2712L58.9093 78.8595L59.3204 75.8676Z" fill="url(#paint1_linear_566_355)"/>
<path d="M98.256 81.2216L101.249 81.6333L100.838 84.6252L97.8449 84.2135L98.256 81.2216Z" fill="url(#paint2_linear_566_355)"/>
<path d="M65.718 73.6991L68.7151 74.1113L71.7085 74.5229L71.2974 77.5147L68.304 77.103L65.3069 76.6908L62.3135 76.2791L62.7246 73.2874L65.718 73.6991Z" fill="url(#paint3_linear_566_355)"/>
<path d="M95.67 77.8178L98.6671 78.23L98.256 81.2217L95.2589 80.8095L92.2655 80.3978L89.2683 79.9856L89.6795 76.9939L92.6766 77.4061L95.67 77.8178Z" fill="url(#paint4_linear_566_355)"/>
<path d="M72.1228 71.5351L75.1162 71.9468L74.7051 74.9387L71.7116 74.527L72.1228 71.5351Z" fill="url(#paint5_linear_566_355)"/>
<path d="M87.0968 73.5937L90.0902 74.0054L89.6791 76.9973L86.6856 76.5856L87.0968 73.5937Z" fill="url(#paint6_linear_566_355)"/>
<path d="M75.9387 65.9628L78.9322 66.3745L78.5211 69.3665L78.1099 72.3584L75.1164 71.9467L75.5275 68.9548L75.9387 65.9628Z" fill="url(#paint7_linear_566_355)"/>
<path d="M79.7542 60.3938L82.7514 60.8061L85.7448 61.2178L85.3342 64.2059L82.3408 63.7942L81.9297 66.7861L78.9324 66.3739L79.3436 63.382L79.7542 60.3938Z" fill="url(#paint8_linear_566_355)"/>
<path d="M62.0178 100.62L65.0149 101.032L68.0083 101.444L67.5972 104.436L64.6038 104.024L61.6066 103.612L58.6133 103.2L55.6161 102.788L56.0272 99.7961L56.4383 96.8043L59.4355 97.2165L59.0244 100.208L62.0178 100.62Z" fill="url(#paint9_linear_566_355)"/>
<path d="M91.9703 104.739L94.9674 105.151L95.3786 102.159L98.372 102.571L97.9608 105.563L97.5497 108.554L94.5563 108.143L91.5592 107.73L88.5658 107.319L85.5686 106.907L85.9797 103.915L88.9769 104.327L91.9703 104.739Z" fill="url(#paint10_linear_566_355)"/>
<path d="M71.4169 98.8637L74.4103 99.2754L73.9992 102.267L71.0058 101.855L68.0086 101.443L68.4197 98.4515L71.4169 98.8637Z" fill="url(#paint11_linear_566_355)"/>
<path d="M86.391 100.923L85.9799 103.915L82.9865 103.503L79.9893 103.091L80.4005 100.099L83.3976 100.511L86.391 100.923Z" fill="url(#paint12_linear_566_355)"/>
<path d="M62.4296 97.6276L59.4361 97.2159L59.8473 94.2239L60.2579 91.2357L63.2514 91.6475L62.8408 94.6357L62.4296 97.6276Z" fill="url(#paint13_linear_566_355)"/>
<path d="M77.8181 96.6957L80.8115 97.1074L80.4004 100.099L77.407 99.6875L74.4098 99.2753L74.8209 96.2835L77.8181 96.6957Z" fill="url(#paint14_linear_566_355)"/>
<path d="M92.7931 98.7542L93.2038 95.766L96.2011 96.1782L95.7904 99.1664L95.3793 102.158L92.382 101.746L92.7931 98.7542Z" fill="url(#paint15_linear_566_355)"/>
<path d="M90.621 92.3625L91.0322 89.3705L94.0257 89.7822L93.6146 92.7742L93.2034 95.7661L90.2099 95.3544L90.621 92.3625Z" fill="url(#paint16_linear_566_355)"/>
<path d="M66.6595 89.0676L66.2483 92.0596L63.251 91.6474L63.6622 88.6554L64.0733 85.6634L67.0706 86.0757L66.6595 89.0676Z" fill="url(#paint17_linear_566_355)"/>
<path d="M79.0517 87.723L82.0451 88.1347L85.0422 88.5469L84.6311 91.5385L81.6339 91.1263L78.6406 90.7147L75.6435 90.3025L72.6501 89.8908L73.0612 86.8991L76.0546 87.3108L79.0517 87.723Z" fill="url(#paint18_linear_566_355)"/>
<path d="M61.4914 82.2597L64.4848 82.6714L64.0737 85.6633L61.0802 85.2516L61.4914 82.2597Z" fill="url(#paint19_linear_566_355)"/>
<path d="M70.4788 83.496L73.4722 83.9077L73.0611 86.8996L70.0677 86.4879L70.4788 83.496Z" fill="url(#paint20_linear_566_355)"/>
<path d="M85.4533 85.5551L88.4467 85.9668L88.0356 88.9587L85.0422 88.547L85.4533 85.5551Z" fill="url(#paint21_linear_566_355)"/>
<path d="M94.4413 86.7904L97.4347 87.2021L97.0236 90.194L94.0301 89.7823L94.4413 86.7904Z" fill="url(#paint22_linear_566_355)"/>
<path d="M58.9093 78.8598L61.9027 79.2715L61.4916 82.2634L58.4981 81.8517L58.9093 78.8598Z" fill="url(#paint23_linear_566_355)"/>
<path d="M82.8669 82.1539L83.2781 79.162L86.2754 79.5742L85.8643 82.5662L85.4536 85.5544L82.4563 85.1421L82.8669 82.1539Z" fill="url(#paint24_linear_566_355)"/>
<path d="M97.8451 84.2143L100.839 84.626L100.427 87.6179L97.434 87.2062L97.8451 84.2143Z" fill="url(#paint25_linear_566_355)"/>
<path d="M74.2944 77.9271L77.288 78.3389L76.8768 81.3308L76.4662 84.319L73.4727 83.9073L73.8833 80.9191L74.2944 77.9271Z" fill="url(#paint26_linear_566_355)"/>
<path d="M59.7281 72.8759L62.7254 73.2881L62.3142 76.28L59.317 75.8678L58.9059 78.8597L55.9124 78.4479L56.3236 75.456L56.7347 72.4641L59.7281 72.8759Z" fill="url(#paint27_linear_566_355)"/>
<path d="M98.2562 81.2217L98.6674 78.2298L101.661 78.6415L104.658 79.0537L104.247 82.0456L103.836 85.0375L100.839 84.6253L101.25 81.6334L98.2562 81.2217Z" fill="url(#paint28_linear_566_355)"/>
<path d="M68.7151 74.1114L65.718 73.6992L62.7246 73.2875L63.1352 70.2996L66.1286 70.7113L69.1257 71.1235L72.1191 71.5352L71.7085 74.5231L68.7151 74.1114Z" fill="url(#paint29_linear_566_355)"/>
<path d="M92.6771 77.4058L89.6799 76.9936L90.0905 74.0056L93.0877 74.4178L96.0811 74.8295L99.0782 75.2417L98.6676 78.2297L95.6705 77.8175L92.6771 77.4058Z" fill="url(#paint30_linear_566_355)"/>
<path d="M75.1169 71.9468L72.1196 71.5346L72.5307 68.5426L72.9419 65.5507L75.9392 65.9629L75.528 68.9548L75.1169 71.9468Z" fill="url(#paint31_linear_566_355)"/>
<path d="M87.5086 70.6022L87.9197 67.6103L90.9133 68.022L90.5021 71.0139L90.091 74.0059L87.0975 73.5942L87.5086 70.6022Z" fill="url(#paint32_linear_566_355)"/>
<path d="M78.9326 66.3742L75.939 65.9625L76.3502 62.9705L76.7608 59.9823L79.7543 60.394L79.3437 63.3822L78.9326 66.3742Z" fill="url(#paint33_linear_566_355)"/>
<path d="M85.334 64.2058L85.7446 61.2176L88.742 61.6299L88.3313 64.6181L87.9202 67.61L84.9229 67.1978L85.334 64.2058Z" fill="url(#paint34_linear_566_355)"/>
<path d="M79.7539 60.394L80.165 57.4022L83.1622 57.8144L86.1555 58.2261L85.7444 61.2179L82.751 60.8062L79.7539 60.394Z" fill="url(#paint35_linear_566_355)"/>
<path d="M15.6798 34.7647L19.6449 34.2241L23.61 33.6835L23.0701 29.7203L27.0352 29.1797L26.4952 25.2165L30.4604 24.6759L29.9204 20.7126L29.3804 16.7494L33.3455 16.2088L32.8056 12.2456L36.7707 11.705L37.3107 15.6682L41.2758 15.1276L41.8158 19.0908L42.3558 23.054L42.8957 27.0173L46.8609 26.4767L47.4009 30.4399L51.366 29.8993L55.3311 29.3587L59.2963 28.8181L59.8362 32.7813L60.3762 36.7446L56.4111 37.2852L56.9511 41.2484L52.9859 41.789L53.5259 45.7522L54.0659 49.7154L58.031 49.1748L58.571 53.1381L59.111 57.1013L63.0761 56.5607L63.6161 60.5239L59.6509 61.0645L55.6858 61.6051L51.7207 62.1457L51.1807 58.1825L47.2155 58.7231L43.2504 59.2637L42.7104 55.3005L38.7453 55.8411L34.7802 56.3817L35.3201 60.3449L31.355 60.8855L27.3899 61.4261L27.9298 65.3894L23.9647 65.93L19.9996 66.4706L16.0344 67.0112L15.4944 63.048L19.4596 62.5074L18.9196 58.5441L18.3796 54.5809L22.3448 54.0403L21.8048 50.077L21.2648 46.1138L17.2997 46.6544L16.7597 42.6912L12.7946 43.2318L12.2546 39.2686L11.7146 35.3054L15.6798 34.7647ZM29.2044 45.0262L29.7444 48.9895L33.7095 48.4489L37.6747 47.9083L41.6398 47.3677L45.6049 46.8271L45.065 42.8638L49.0301 42.3232L48.4901 38.36L44.525 38.9006L43.985 34.9374L43.445 30.9742L39.4799 31.5148L40.0199 35.478L40.5598 39.4412L44.525 38.9006L45.065 42.8638L41.0998 43.4044L37.1347 43.945L33.1695 44.4856L29.2044 45.0262L28.6644 41.063L32.6296 40.5224L32.0896 36.5592L31.5496 32.596L27.5845 33.1366L28.1245 37.0998L28.6644 41.063L24.6993 41.6036L25.2393 45.5669L29.2044 45.0262Z" fill="url(#paint36_linear_566_355)"/>
<path d="M7.75037 35.8454L11.7156 35.3047L12.2555 39.2678L8.29028 39.8085L7.75037 35.8454Z" fill="url(#paint37_linear_566_355)"/>
<path d="M59.3262 28.8151L63.2914 28.2744L63.8313 32.2376L59.8661 32.7782L59.3262 28.8151Z" fill="url(#paint38_linear_566_355)"/>
<path d="M15.141 30.8012L19.1111 30.2599L23.0762 29.7192L23.6161 33.6822L19.651 34.2228L15.6809 34.7641L11.7158 35.3048L11.1759 31.3418L15.141 30.8012Z" fill="url(#paint39_linear_566_355)"/>
<path d="M54.8163 25.3929L58.7864 24.8516L59.3263 28.8145L55.3562 29.3558L51.3911 29.8965L47.421 30.4378L46.8811 26.4748L50.8512 25.9335L54.8163 25.3929Z" fill="url(#paint40_linear_566_355)"/>
<path d="M22.5406 25.7609L26.5058 25.2202L27.0457 29.1834L23.0805 29.724L22.5406 25.7609Z" fill="url(#paint41_linear_566_355)"/>
<path d="M42.3762 23.0568L46.3414 22.5161L46.8813 26.4793L42.9161 27.0199L42.3762 23.0568Z" fill="url(#paint42_linear_566_355)"/>
<path d="M25.426 17.2936L29.3913 16.7529L29.9312 20.7162L30.4711 24.6794L26.5058 25.2201L25.9659 21.2568L25.426 17.2936Z" fill="url(#paint43_linear_566_355)"/>
<path d="M28.3119 8.83152L32.2821 8.29017L36.2473 7.74951L36.7865 11.7077L32.8213 12.2483L33.3612 16.2115L29.3911 16.7528L28.8511 12.7897L28.3119 8.83152Z" fill="url(#paint44_linear_566_355)"/>
<path d="M19.9986 66.4615L23.9687 65.9202L27.9338 65.3795L28.4737 69.3426L24.5086 69.8832L20.5385 70.4245L16.5733 70.9652L12.6032 71.5065L12.0633 67.5435L11.5234 63.5805L15.4935 63.0391L16.0334 67.0022L19.9986 66.4615Z" fill="url(#paint45_linear_566_355)"/>
<path d="M59.6746 61.0533L63.6447 60.512L63.1048 56.549L67.0699 56.0083L67.6098 59.9713L68.1497 63.9344L64.1846 64.475L60.2145 65.0163L56.2493 65.557L52.2792 66.0983L51.7393 62.1353L55.7094 61.594L59.6746 61.0533Z" fill="url(#paint46_linear_566_355)"/>
<path d="M31.3644 60.8751L35.3295 60.3345L35.8694 64.2975L31.9043 64.8382L27.9341 65.3795L27.3942 61.4165L31.3644 60.8751Z" fill="url(#paint47_linear_566_355)"/>
<path d="M51.1995 58.1714L51.7394 62.1344L47.7743 62.6751L43.8041 63.2164L43.2642 59.2534L47.2344 58.712L51.1995 58.1714Z" fill="url(#paint48_linear_566_355)"/>
<path d="M19.4596 62.4981L15.4943 63.0388L14.9544 59.0756L14.4151 55.1173L18.3804 54.5767L18.9197 58.5349L19.4596 62.4981Z" fill="url(#paint49_linear_566_355)"/>
<path d="M38.7589 55.8307L42.724 55.29L43.2639 59.2531L39.2988 59.7937L35.3287 60.3351L34.7888 56.372L38.7589 55.8307Z" fill="url(#paint50_linear_566_355)"/>
<path d="M58.5947 53.1261L58.0555 49.1678L62.0258 48.6265L62.565 52.5847L63.1049 56.5479L59.1346 57.0893L58.5947 53.1261Z" fill="url(#paint51_linear_566_355)"/>
<path d="M53.5494 45.7456L53.0095 41.7824L56.9748 41.2417L57.5147 45.2049L58.0546 49.1681L54.0893 49.7088L53.5494 45.7456Z" fill="url(#paint52_linear_566_355)"/>
<path d="M21.8096 50.0721L22.3495 54.0353L18.3792 54.5767L17.8392 50.6135L17.2993 46.6502L21.2696 46.1089L21.8096 50.0721Z" fill="url(#paint53_linear_566_355)"/>
<path d="M37.1397 43.9457L41.1048 43.4051L45.0749 42.8638L45.6148 46.8266L41.6447 47.3679L37.6796 47.9086L33.7095 48.4499L29.7445 48.9905L29.2046 45.0276L33.1697 44.487L37.1397 43.9457Z" fill="url(#paint54_linear_566_355)"/>
<path d="M12.7942 43.2277L16.7594 42.687L17.2993 46.6502L13.3341 47.1908L12.7942 43.2277Z" fill="url(#paint55_linear_566_355)"/>
<path d="M24.6992 41.6051L28.6644 41.0645L29.2043 45.0276L25.2391 45.5683L24.6992 41.6051Z" fill="url(#paint56_linear_566_355)"/>
<path d="M44.5346 38.901L48.4998 38.3604L49.0397 42.3235L45.0745 42.8642L44.5346 38.901Z" fill="url(#paint57_linear_566_355)"/>
<path d="M56.4398 37.2775L60.405 36.7368L60.945 40.7L56.9798 41.2406L56.4398 37.2775Z" fill="url(#paint58_linear_566_355)"/>
<path d="M8.2904 39.8097L12.2556 39.269L12.7955 43.2322L8.83031 43.7729L8.2904 39.8097Z" fill="url(#paint59_linear_566_355)"/>
<path d="M40.025 35.4836L39.4851 31.5204L43.4554 30.979L43.9953 34.9422L44.5346 38.9005L40.5642 39.4418L40.025 35.4836Z" fill="url(#paint60_linear_566_355)"/>
<path d="M59.8653 32.7785L63.8305 32.2378L64.3704 36.2009L60.4052 36.7416L59.8653 32.7785Z" fill="url(#paint61_linear_566_355)"/>
<path d="M27.5853 33.1427L31.5506 32.6021L32.0905 36.5653L32.6297 40.5235L28.6644 41.0642L28.1252 37.106L27.5853 33.1427Z" fill="url(#paint62_linear_566_355)"/>
<path d="M7.20517 31.8836L11.1754 31.3423L11.7153 35.3054L7.74508 35.8468L8.28499 39.8099L4.31979 40.3506L3.77988 36.3875L3.23998 32.4243L7.20517 31.8836Z" fill="url(#paint63_linear_566_355)"/>
<path d="M59.3248 28.8152L58.7849 24.852L62.7501 24.3114L66.7203 23.77L67.2602 27.7332L67.8001 31.6963L63.8299 32.2377L63.29 28.2745L59.3248 28.8152Z" fill="url(#paint64_linear_566_355)"/>
<path d="M19.1097 30.2603L15.1397 30.8016L11.1746 31.3423L10.6353 27.3843L14.6004 26.8437L18.5705 26.3024L22.5356 25.7617L23.0748 29.7197L19.1097 30.2603Z" fill="url(#paint65_linear_566_355)"/>
<path d="M50.85 25.9335L46.8799 26.4748L46.3406 22.5168L50.3107 21.9755L54.2758 21.4349L58.2459 20.8936L58.7851 24.8515L54.815 25.3928L50.85 25.9335Z" fill="url(#paint66_linear_566_355)"/>
<path d="M26.5053 25.2204L22.535 25.7618L21.9951 21.7985L21.4551 17.8353L25.4255 17.2939L25.9654 21.2572L26.5053 25.2204Z" fill="url(#paint67_linear_566_355)"/>
<path d="M41.8357 19.0942L41.2958 15.131L45.2611 14.5903L45.801 18.5536L46.3409 22.5168L42.3756 23.0575L41.8357 19.0942Z" fill="url(#paint68_linear_566_355)"/>
<path d="M29.39 16.7535L25.4247 17.2942L24.8847 13.3309L24.3455 9.37271L28.3108 8.83203L28.85 12.7903L29.39 16.7535Z" fill="url(#paint69_linear_566_355)"/>
<path d="M36.785 11.7086L36.2458 7.75035L40.2161 7.20898L40.7553 11.1672L41.2952 15.1304L37.3249 15.6718L36.785 11.7086Z" fill="url(#paint70_linear_566_355)"/>
<path d="M28.3099 8.83212L27.77 4.86909L31.7402 4.32776L35.7052 3.78711L36.2451 7.75014L32.2801 8.29079L28.3099 8.83212Z" fill="url(#paint71_linear_566_355)"/>
<defs>
<linearGradient id="paint0_linear_566_355" x1="97.6366" y1="85.7077" x2="61.6928" y2="80.768" gradientUnits="userSpaceOnUse">
<stop stop-color="#FBC101"/>
<stop offset="1" stop-color="#FDE699"/>
</linearGradient>
<linearGradient id="paint1_linear_566_355" x1="52.0487" y1="69.1588" x2="90.2496" y2="106.63" gradientUnits="userSpaceOnUse">
<stop stop-color="white"/>
<stop offset="1" stop-color="#FDE699"/>
</linearGradient>
<linearGradient id="paint2_linear_566_355" x1="68.4814" y1="52.4044" x2="106.682" y2="89.8757" gradientUnits="userSpaceOnUse">
<stop stop-color="white"/>
<stop offset="1" stop-color="#FDE699"/>
</linearGradient>
<linearGradient id="paint3_linear_566_355" x1="56.2702" y1="64.8539" x2="94.4728" y2="102.325" gradientUnits="userSpaceOnUse">
<stop stop-color="white"/>
<stop offset="1" stop-color="#FDE699"/>
</linearGradient>
<linearGradient id="paint4_linear_566_355" x1="67.6475" y1="53.2523" x2="105.849" y2="90.727" gradientUnits="userSpaceOnUse">
<stop stop-color="white"/>
<stop offset="1" stop-color="#FDE699"/>
</linearGradient>
<linearGradient id="paint5_linear_566_355" x1="60.4957" y1="60.5445" x2="98.696" y2="98.0196" gradientUnits="userSpaceOnUse">
<stop stop-color="white"/>
<stop offset="1" stop-color="#FDE699"/>
</linearGradient>
<linearGradient id="paint6_linear_566_355" x1="66.8157" y1="54.1012" x2="105.016" y2="91.5762" gradientUnits="userSpaceOnUse">
<stop stop-color="white"/>
<stop offset="1" stop-color="#FDE699"/>
</linearGradient>
<linearGradient id="paint7_linear_566_355" x1="64.3018" y1="56.6622" x2="102.507" y2="94.1389" gradientUnits="userSpaceOnUse">
<stop stop-color="white"/>
<stop offset="1" stop-color="#FDE699"/>
</linearGradient>
<linearGradient id="paint8_linear_566_355" x1="69.5911" y1="51.273" x2="107.792" y2="88.7442" gradientUnits="userSpaceOnUse">
<stop stop-color="white"/>
<stop offset="1" stop-color="#FDE699"/>
</linearGradient>
<linearGradient id="paint9_linear_566_355" x1="113.129" y1="75.3017" x2="64.2578" y2="99.4698" gradientUnits="userSpaceOnUse">
<stop stop-color="#FBC101"/>
<stop offset="1" stop-color="#7E6101"/>
</linearGradient>
<linearGradient id="paint10_linear_566_355" x1="121.211" y1="91.6466" x2="72.3443" y2="115.815" gradientUnits="userSpaceOnUse">
<stop stop-color="#FBC101"/>
<stop offset="1" stop-color="#7E6101"/>
</linearGradient>
<linearGradient id="paint11_linear_566_355" x1="114.833" y1="78.7491" x2="65.9661" y2="102.918" gradientUnits="userSpaceOnUse">
<stop stop-color="#FBC101"/>
<stop offset="1" stop-color="#7E6101"/>
</linearGradient>
<linearGradient id="paint12_linear_566_355" x1="117.845" y1="84.8407" x2="68.9775" y2="109.009" gradientUnits="userSpaceOnUse">
<stop stop-color="#FBC101"/>
<stop offset="1" stop-color="#7E6101"/>
</linearGradient>
<linearGradient id="paint13_linear_566_355" x1="110.54" y1="70.0613" x2="61.6709" y2="94.231" gradientUnits="userSpaceOnUse">
<stop stop-color="#FBC101"/>
<stop offset="1" stop-color="#7E6101"/>
</linearGradient>
<linearGradient id="paint14_linear_566_355" x1="115.232" y1="79.5574" x2="66.3616" y2="103.725" gradientUnits="userSpaceOnUse">
<stop stop-color="#FBC101"/>
<stop offset="1" stop-color="#7E6101"/>
</linearGradient>
<linearGradient id="paint15_linear_566_355" x1="118.82" y1="86.8106" x2="69.9509" y2="110.977" gradientUnits="userSpaceOnUse">
<stop stop-color="#FBC101"/>
<stop offset="1" stop-color="#7E6101"/>
</linearGradient>
<linearGradient id="paint16_linear_566_355" x1="115.853" y1="80.8094" x2="66.9833" y2="104.979" gradientUnits="userSpaceOnUse">
<stop stop-color="#FBC101"/>
<stop offset="1" stop-color="#7E6101"/>
</linearGradient>
<linearGradient id="paint17_linear_566_355" x1="109.079" y1="67.1078" x2="60.2062" y2="91.2734" gradientUnits="userSpaceOnUse">
<stop stop-color="#FBC101"/>
<stop offset="1" stop-color="#7E6101"/>
</linearGradient>
<linearGradient id="paint18_linear_566_355" x1="111.911" y1="72.8382" x2="63.0419" y2="97.0065" gradientUnits="userSpaceOnUse">
<stop stop-color="#FBC101"/>
<stop offset="1" stop-color="#7E6101"/>
</linearGradient>
<linearGradient id="paint19_linear_566_355" x1="106.664" y1="62.2245" x2="57.7924" y2="86.3929" gradientUnits="userSpaceOnUse">
<stop stop-color="#FBC101"/>
<stop offset="1" stop-color="#7E6101"/>
</linearGradient>
<linearGradient id="paint20_linear_566_355" x1="108.921" y1="66.7944" x2="60.0526" y2="90.9633" gradientUnits="userSpaceOnUse">
<stop stop-color="#FBC101"/>
<stop offset="1" stop-color="#7E6101"/>
</linearGradient>
<linearGradient id="paint21_linear_566_355" x1="112.687" y1="74.4084" x2="63.8159" y2="98.573" gradientUnits="userSpaceOnUse">
<stop stop-color="#FBC101"/>
<stop offset="1" stop-color="#7E6101"/>
</linearGradient>
<linearGradient id="paint22_linear_566_355" x1="114.945" y1="78.9736" x2="66.0767" y2="103.142" gradientUnits="userSpaceOnUse">
<stop stop-color="#FBC101"/>
<stop offset="1" stop-color="#7E6101"/>
</linearGradient>
<linearGradient id="paint23_linear_566_355" x1="104.804" y1="58.4626" x2="55.9361" y2="82.6315" gradientUnits="userSpaceOnUse">
<stop stop-color="#FBC101"/>
<stop offset="1" stop-color="#7E6101"/>
</linearGradient>
<linearGradient id="paint24_linear_566_355" x1="110.275" y1="69.5239" x2="61.4018" y2="93.6932" gradientUnits="userSpaceOnUse">
<stop stop-color="#FBC101"/>
<stop offset="1" stop-color="#7E6101"/>
</linearGradient>
<linearGradient id="paint25_linear_566_355" x1="114.59" y1="78.2562" x2="65.7219" y2="102.425" gradientUnits="userSpaceOnUse">
<stop stop-color="#FBC101"/>
<stop offset="1" stop-color="#7E6101"/>
</linearGradient>
<linearGradient id="paint26_linear_566_355" x1="108.014" y1="64.9581" x2="59.145" y2="89.1279" gradientUnits="userSpaceOnUse">
<stop stop-color="#FBC101"/>
<stop offset="1" stop-color="#7E6101"/>
</linearGradient>
<linearGradient id="paint27_linear_566_355" x1="102.391" y1="53.5833" x2="53.5224" y2="77.7522" gradientUnits="userSpaceOnUse">
<stop stop-color="#FBC101"/>
<stop offset="1" stop-color="#7E6101"/>
</linearGradient>
<linearGradient id="paint28_linear_566_355" x1="113.306" y1="75.6609" x2="64.4386" y2="99.826" gradientUnits="userSpaceOnUse">
<stop stop-color="#FBC101"/>
<stop offset="1" stop-color="#7E6101"/>
</linearGradient>
<linearGradient id="paint29_linear_566_355" x1="102.987" y1="54.7923" x2="54.1207" y2="78.9609" gradientUnits="userSpaceOnUse">
<stop stop-color="#FBC101"/>
<stop offset="1" stop-color="#7E6101"/>
</linearGradient>
<linearGradient id="paint30_linear_566_355" x1="109.766" y1="68.4969" x2="60.8959" y2="92.6613" gradientUnits="userSpaceOnUse">
<stop stop-color="#FBC101"/>
<stop offset="1" stop-color="#7E6101"/>
</linearGradient>
<linearGradient id="paint31_linear_566_355" x1="102.837" y1="54.4774" x2="53.9633" y2="78.6467" gradientUnits="userSpaceOnUse">
<stop stop-color="#FBC101"/>
<stop offset="1" stop-color="#7E6101"/>
</linearGradient>
<linearGradient id="paint32_linear_566_355" x1="106.599" y1="62.0909" x2="57.7291" y2="86.2607" gradientUnits="userSpaceOnUse">
<stop stop-color="#FBC101"/>
<stop offset="1" stop-color="#7E6101"/>
</linearGradient>
<linearGradient id="paint33_linear_566_355" x1="101.372" y1="51.523" x2="52.5021" y2="75.6928" gradientUnits="userSpaceOnUse">
<stop stop-color="#FBC101"/>
<stop offset="1" stop-color="#7E6101"/>
</linearGradient>
<linearGradient id="paint34_linear_566_355" x1="103.632" y1="56.0893" x2="54.759" y2="80.2586" gradientUnits="userSpaceOnUse">
<stop stop-color="#FBC101"/>
<stop offset="1" stop-color="#7E6101"/>
</linearGradient>
<linearGradient id="paint35_linear_566_355" x1="100.841" y1="50.4512" x2="51.971" y2="74.6154" gradientUnits="userSpaceOnUse">
<stop stop-color="#FBC101"/>
<stop offset="1" stop-color="#7E6101"/>
</linearGradient>
<linearGradient id="paint36_linear_566_355" x1="60.1309" y1="34.757" x2="12.5187" y2="41.244" gradientUnits="userSpaceOnUse">
<stop stop-color="#FBC101"/>
<stop offset="1" stop-color="#FDE699"/>
</linearGradient>
<linearGradient id="paint37_linear_566_355" x1="-3.91278" y1="29.8762" x2="58.1483" y2="64.0801" gradientUnits="userSpaceOnUse">
<stop stop-color="white"/>
<stop offset="1" stop-color="#FDE699"/>
</linearGradient>
<linearGradient id="paint38_linear_566_355" x1="11.0908" y1="2.65505" x2="73.1519" y2="36.8589" gradientUnits="userSpaceOnUse">
<stop stop-color="white"/>
<stop offset="1" stop-color="#FDE699"/>
</linearGradient>
<linearGradient id="paint39_linear_566_355" x1="-0.0583273" y1="22.8815" x2="62.0054" y2="57.0844" gradientUnits="userSpaceOnUse">
<stop stop-color="white"/>
<stop offset="1" stop-color="#FDE699"/>
</linearGradient>
<linearGradient id="paint40_linear_566_355" x1="10.3284" y1="4.03258" x2="72.3928" y2="38.2405" gradientUnits="userSpaceOnUse">
<stop stop-color="white"/>
<stop offset="1" stop-color="#FDE699"/>
</linearGradient>
<linearGradient id="paint41_linear_566_355" x1="3.79799" y1="15.8804" x2="65.8598" y2="50.0893" gradientUnits="userSpaceOnUse">
<stop stop-color="white"/>
<stop offset="1" stop-color="#FDE699"/>
</linearGradient>
<linearGradient id="paint42_linear_566_355" x1="9.56913" y1="5.41186" x2="71.6309" y2="39.6207" gradientUnits="userSpaceOnUse">
<stop stop-color="white"/>
<stop offset="1" stop-color="#FDE699"/>
</linearGradient>
<linearGradient id="paint43_linear_566_355" x1="7.27203" y1="9.57244" x2="69.3403" y2="43.7819" gradientUnits="userSpaceOnUse">
<stop stop-color="white"/>
<stop offset="1" stop-color="#FDE699"/>
</linearGradient>
<linearGradient id="paint44_linear_566_355" x1="12.1021" y1="0.814945" x2="74.1631" y2="35.0187" gradientUnits="userSpaceOnUse">
<stop stop-color="white"/>
<stop offset="1" stop-color="#FDE699"/>
</linearGradient>
<linearGradient id="paint45_linear_566_355" x1="76.1933" y1="15.964" x2="22.4428" y2="64.1919" gradientUnits="userSpaceOnUse">
<stop stop-color="#FBC101"/>
<stop offset="1" stop-color="#7E6101"/>
</linearGradient>
<linearGradient id="paint46_linear_566_355" x1="92.3196" y1="33.9399" x2="38.5742" y2="82.1671" gradientUnits="userSpaceOnUse">
<stop stop-color="#FBC101"/>
<stop offset="1" stop-color="#7E6101"/>
</linearGradient>
<linearGradient id="paint47_linear_566_355" x1="79.5943" y1="19.7558" x2="25.8488" y2="67.983" gradientUnits="userSpaceOnUse">
<stop stop-color="#FBC101"/>
<stop offset="1" stop-color="#7E6101"/>
</linearGradient>
<linearGradient id="paint48_linear_566_355" x1="85.6032" y1="26.4557" x2="31.8578" y2="74.683" gradientUnits="userSpaceOnUse">
<stop stop-color="#FBC101"/>
<stop offset="1" stop-color="#7E6101"/>
</linearGradient>
<linearGradient id="paint49_linear_566_355" x1="71.0274" y1="10.201" x2="17.2791" y2="58.4306" gradientUnits="userSpaceOnUse">
<stop stop-color="#FBC101"/>
<stop offset="1" stop-color="#7E6101"/>
</linearGradient>
<linearGradient id="paint50_linear_566_355" x1="80.3909" y1="20.6453" x2="26.6405" y2="68.8731" gradientUnits="userSpaceOnUse">
<stop stop-color="#FBC101"/>
<stop offset="1" stop-color="#7E6101"/>
</linearGradient>
<linearGradient id="paint51_linear_566_355" x1="87.548" y1="28.6223" x2="33.799" y2="76.847" gradientUnits="userSpaceOnUse">
<stop stop-color="#FBC101"/>
<stop offset="1" stop-color="#7E6101"/>
</linearGradient>
<linearGradient id="paint52_linear_566_355" x1="81.6273" y1="22.0231" x2="27.8792" y2="70.2527" gradientUnits="userSpaceOnUse">
<stop stop-color="#FBC101"/>
<stop offset="1" stop-color="#7E6101"/>
</linearGradient>
<linearGradient id="paint53_linear_566_355" x1="68.1115" y1="6.95371" x2="14.3577" y2="55.1791" gradientUnits="userSpaceOnUse">
<stop stop-color="#FBC101"/>
<stop offset="1" stop-color="#7E6101"/>
</linearGradient>
<linearGradient id="paint54_linear_566_355" x1="73.7632" y1="13.2573" x2="20.015" y2="61.4848" gradientUnits="userSpaceOnUse">
<stop stop-color="#FBC101"/>
<stop offset="1" stop-color="#7E6101"/>
</linearGradient>
<linearGradient id="paint55_linear_566_355" x1="63.2936" y1="1.58393" x2="9.54158" y2="49.8127" gradientUnits="userSpaceOnUse">
<stop stop-color="#FBC101"/>
<stop offset="1" stop-color="#7E6101"/>
</linearGradient>
<linearGradient id="paint56_linear_566_355" x1="67.7979" y1="6.61077" x2="14.0508" y2="54.8388" gradientUnits="userSpaceOnUse">
<stop stop-color="#FBC101"/>
<stop offset="1" stop-color="#7E6101"/>
</linearGradient>
<linearGradient id="paint57_linear_566_355" x1="75.3116" y1="14.9839" x2="21.5588" y2="63.2076" gradientUnits="userSpaceOnUse">
<stop stop-color="#FBC101"/>
<stop offset="1" stop-color="#7E6101"/>
</linearGradient>
<linearGradient id="paint58_linear_566_355" x1="79.8154" y1="20.0047" x2="26.0683" y2="68.2328" gradientUnits="userSpaceOnUse">
<stop stop-color="#FBC101"/>
<stop offset="1" stop-color="#7E6101"/>
</linearGradient>
<linearGradient id="paint59_linear_566_355" x1="59.5821" y1="-2.55292" x2="5.835" y2="45.6751" gradientUnits="userSpaceOnUse">
<stop stop-color="#FBC101"/>
<stop offset="1" stop-color="#7E6101"/>
</linearGradient>
<linearGradient id="paint60_linear_566_355" x1="70.4961" y1="9.61231" x2="16.743" y2="57.8427" gradientUnits="userSpaceOnUse">
<stop stop-color="#FBC101"/>
<stop offset="1" stop-color="#7E6101"/>
</linearGradient>
<linearGradient id="paint61_linear_566_355" x1="79.1071" y1="19.2153" x2="25.3601" y2="67.4433" gradientUnits="userSpaceOnUse">
<stop stop-color="#FBC101"/>
<stop offset="1" stop-color="#7E6101"/>
</linearGradient>
<linearGradient id="paint62_linear_566_355" x1="65.9879" y1="4.59153" x2="12.2398" y2="52.8212" gradientUnits="userSpaceOnUse">
<stop stop-color="#FBC101"/>
<stop offset="1" stop-color="#7E6101"/>
</linearGradient>
<linearGradient id="paint63_linear_566_355" x1="54.7661" y1="-7.91883" x2="1.01902" y2="40.3093" gradientUnits="userSpaceOnUse">
<stop stop-color="#FBC101"/>
<stop offset="1" stop-color="#7E6101"/>
</linearGradient>
<linearGradient id="paint64_linear_566_355" x1="76.5458" y1="16.3624" x2="22.7981" y2="64.5855" gradientUnits="userSpaceOnUse">
<stop stop-color="#FBC101"/>
<stop offset="1" stop-color="#7E6101"/>
</linearGradient>
<linearGradient id="paint65_linear_566_355" x1="55.9574" y1="-6.5881" x2="2.21291" y2="41.6389" gradientUnits="userSpaceOnUse">
<stop stop-color="#FBC101"/>
<stop offset="1" stop-color="#7E6101"/>
</linearGradient>
<linearGradient id="paint66_linear_566_355" x1="69.4803" y1="8.48388" x2="15.7302" y2="56.7065" gradientUnits="userSpaceOnUse">
<stop stop-color="#FBC101"/>
<stop offset="1" stop-color="#7E6101"/>
</linearGradient>
<linearGradient id="paint67_linear_566_355" x1="55.6522" y1="-6.9354" x2="1.8991" y2="41.295" gradientUnits="userSpaceOnUse">
<stop stop-color="#FBC101"/>
<stop offset="1" stop-color="#7E6101"/>
</linearGradient>
<linearGradient id="paint68_linear_566_355" x1="63.1607" y1="1.43906" x2="9.41261" y2="49.6687" gradientUnits="userSpaceOnUse">
<stop stop-color="#FBC101"/>
<stop offset="1" stop-color="#7E6101"/>
</linearGradient>
<linearGradient id="paint69_linear_566_355" x1="52.7318" y1="-10.1819" x2="-1.01633" y2="38.0477" gradientUnits="userSpaceOnUse">
<stop stop-color="#FBC101"/>
<stop offset="1" stop-color="#7E6101"/>
</linearGradient>
<linearGradient id="paint70_linear_566_355" x1="57.2404" y1="-5.16115" x2="3.48729" y2="43.0692" gradientUnits="userSpaceOnUse">
<stop stop-color="#FBC101"/>
<stop offset="1" stop-color="#7E6101"/>
</linearGradient>
<linearGradient id="paint71_linear_566_355" x1="51.6737" y1="-11.3604" x2="-2.07742" y2="36.8623" gradientUnits="userSpaceOnUse">
<stop stop-color="#FBC101"/>
<stop offset="1" stop-color="#7E6101"/>
</linearGradient>
</defs>
</svg>
