<svg width="535" height="157" viewBox="0 0 535 157" fill="none" xmlns="http://www.w3.org/2000/svg">
<g clip-path="url(#clip0_565_7420)">
<path d="M440.379 156.986C439.015 156.986 437.63 156.73 436.275 156.24C435.097 156.734 433.808 156.986 432.444 156.986H427.154C426.259 156.986 425.355 156.876 424.451 156.661C423.626 156.876 422.76 156.986 421.864 156.986H408.64C407.744 156.986 406.84 156.876 405.941 156.657C405.112 156.876 404.245 156.986 403.346 156.986H387.476C383.807 156.986 380.184 155.104 377.58 152.064C375.752 155.1 372.622 156.986 368.961 156.986H363.671C363.232 156.986 362.784 156.959 362.341 156.904C361.905 156.959 361.466 156.986 361.026 156.986H355.737C354.373 156.986 353.009 156.725 351.69 156.222C350.476 156.725 349.166 156.986 347.802 156.986H342.512C342.072 156.986 341.625 156.959 341.181 156.904C340.746 156.959 340.306 156.986 339.867 156.986H334.577C333.213 156.986 331.853 156.725 330.547 156.217C329.32 156.721 328.002 156.986 326.642 156.986H321.352C320.913 156.986 320.469 156.959 320.026 156.899C319.59 156.954 319.151 156.986 318.707 156.986H313.417C312.054 156.986 310.702 156.725 309.404 156.217C308.169 156.725 306.842 156.986 305.483 156.986H300.193C299.297 156.986 298.406 156.872 297.531 156.647C296.677 156.872 295.798 156.986 294.903 156.986H284.323C280.468 156.986 276.799 154.834 274.514 151.3C273.499 150.457 272.603 149.436 271.861 148.287C269.249 146.122 267.508 142.834 267.015 139.226C267.04 139.556 267.052 139.89 267.052 140.229C267.06 141.433 267.069 142.033 267.077 143.237C267.425 150.622 261.609 156.657 255.225 156.986H247.29C246.394 156.986 245.511 156.872 244.649 156.647C243.782 156.872 242.895 156.986 242 156.986H236.71C236.27 156.986 235.827 156.959 235.387 156.899C234.948 156.959 234.504 156.986 234.065 156.986H228.775C227.411 156.986 226.08 156.721 224.837 156.199C223.552 156.716 222.204 156.986 220.84 156.986H215.55C214.186 156.986 212.86 156.716 211.62 156.199C210.331 156.721 208.975 156.986 207.616 156.986H202.326C199.913 156.986 197.678 156.153 195.858 154.66C193.835 156.148 191.485 156.986 189.101 156.986H175.876C172.025 156.986 168.609 154.779 166.731 151.176C164.409 149.006 163.033 145.742 162.88 142.166C162.846 142.482 162.834 142.637 162.801 142.953C162.05 150.05 156.275 157.197 149.427 156.986H133.557C132.662 156.986 131.791 156.867 130.958 156.634C130.066 156.867 129.167 156.986 128.267 156.986H112.398C111.502 156.986 110.632 156.867 109.802 156.634C108.907 156.867 108.003 156.986 107.108 156.986H101.818C100.454 156.986 99.1563 156.711 97.9706 156.176C96.6233 156.707 95.2469 156.986 93.883 156.986H88.5931C81.6118 157.417 78.0216 149.308 78.9129 142.724C79.6591 138.114 80.0281 135.834 80.766 131.315C77.8558 131.301 76.4006 131.296 73.4904 131.283C72.6198 131.283 71.7824 131.168 70.9781 130.944C70.0204 131.205 69.0586 131.333 68.1051 131.328C62.4463 131.306 56.7874 131.283 51.1286 131.26C48.608 131.251 46.303 130.72 44.3297 129.708C42.5304 130.651 40.6276 131.145 38.7496 131.141C31.847 131.113 24.9445 131.081 18.0461 131.054C13.32 131.054 9.34842 127.382 8.55245 122.236C7.62796 119.974 7.39166 117.296 7.89743 114.585C14.0828 81.3866 20.2391 48.1882 26.1509 14.9303C27.266 7.74668 33.8867 1.86793 40.3705 1.75805C48.6702 1.75805 56.9698 1.75805 65.2695 1.75805C68.7602 1.75805 72.143 2.06939 75.3352 2.6829C78.7305 3.33762 81.7693 4.66995 84.4142 6.65242C86.9846 3.67642 90.4379 1.75347 93.8996 1.75347C105.715 1.75347 117.526 1.75347 129.341 1.75347C132.558 1.75347 135.282 3.56654 136.882 6.46929C142.711 2.30747 149.891 -0.302257 156.711 0.0365488C162.979 0.347884 168.961 1.51539 174.135 6.10759C176.345 3.43377 179.272 1.75347 182.285 1.75347C195.46 1.75347 208.64 1.75347 221.814 1.75347C224.804 1.75347 227.486 3.50702 229.239 6.32735C234.583 2.18843 241.229 -0.0779127 247.737 0.0411273C253.964 0.155589 260.655 1.82673 265.655 6.24494C267.541 3.48413 270.265 1.74889 273.3 1.74889C280.484 1.74889 287.669 1.74889 294.857 1.74889C297.925 1.74889 301.009 2.10601 303.936 2.66916C307.667 3.38798 312.037 5.6589 314.972 8.27778C318.575 11.4964 321.473 15.7773 323.471 20.4427C324.08 21.6194 324.656 22.8556 325.166 24.1101C327.604 30.1125 328.396 36.4262 329.001 42.9276C329.134 45.0428 329.2 46.1004 329.333 48.2157C329.888 55.1017 329.407 62.4639 326.924 68.8691C329.486 73.8596 330.85 79.514 331.455 85.1639C331.48 85.4019 331.501 85.6263 331.517 85.8461C332.056 93.7943 332.62 101.77 333.454 109.704C333.86 109.814 334.262 109.952 334.66 110.112C335.829 109.627 337.081 109.379 338.379 109.384C340.393 109.393 341.401 109.402 343.416 109.411C344.713 109.421 346.011 109.682 347.263 110.181C348.312 109.741 349.435 109.498 350.596 109.457C347.462 102.86 345.99 95.2914 345.331 87.9384C344.079 73.0035 342.893 58.064 341.757 43.1199C341.281 32.2552 341.712 20.9418 347.644 11.7437C352.859 3.63522 361.337 -0.0550204 370.147 0.0273919C376.714 0.0914903 383.575 1.87709 389.06 6.05722C390.709 3.39714 393.33 1.73058 396.443 1.73058C402.284 1.73058 408.13 1.73058 413.971 1.73058C415.285 1.73058 416.612 2.01444 417.897 2.55928C419.033 2.00987 420.289 1.73058 421.62 1.73058C428.012 1.73058 434.401 1.73058 440.793 1.73058C441.652 1.73058 442.514 1.84504 443.376 2.06939C444.168 1.84046 445.001 1.73058 445.864 1.73058C453.562 1.73058 461.257 1.73058 468.955 1.73058C472.682 1.73058 476.55 2.20674 480.434 3.15906C485.306 4.34946 489.932 6.64327 494.032 9.77493C498.294 13.0256 501.888 17.279 504.72 22.0635C505.632 23.3959 506.49 24.7831 507.261 26.1796C510.569 32.1957 512.207 38.7245 513.579 45.551C514.396 50.4637 515.217 55.381 516.042 60.2891C516.916 66.8271 517.584 73.2324 516.237 79.7475C515.175 84.8663 512.895 89.7515 509.545 93.4509C506.664 96.6329 501.938 99.3434 497.991 100.291C496.98 100.534 495.927 100.786 494.878 100.973C496.055 107.278 497.258 113.573 498.481 119.869C500.259 126.755 495.359 132.853 489.256 133.041C482.387 133.013 475.513 132.981 468.644 132.954C465.278 132.94 461.816 131.287 459.126 128.6C457.293 130.074 455.229 131.278 452.936 132.212C453.782 136.832 454.213 139.139 455.088 143.754C456.833 150.714 451.788 156.771 445.673 156.991H440.383L440.379 156.986ZM266.741 137.221C266.808 137.546 266.861 137.871 266.907 138.201C266.882 137.876 266.87 137.551 266.87 137.221C266.87 136.919 266.87 136.768 266.866 136.466C266.832 136.717 266.791 136.969 266.745 137.221H266.741ZM159.555 128.929C161.669 130.999 163.016 134.071 163.166 137.615C163.195 137.308 163.211 137.152 163.244 136.846C163.348 135.815 163.547 134.804 163.837 133.815C163.746 132.826 163.75 131.814 163.854 130.793C164.061 128.746 164.161 127.725 164.368 125.692C162.846 126.915 161.242 127.991 159.559 128.925L159.555 128.929Z" fill="url(#paint0_linear_565_7420)"/>
<path d="M438.804 148.406C437.382 148.406 435.927 147.93 434.625 147.074C433.626 147.921 432.34 148.392 430.919 148.388C428.817 148.388 427.764 148.383 425.662 148.379C424.754 148.379 423.834 148.186 422.938 147.811C422.167 148.177 421.313 148.37 420.405 148.365C416.027 148.356 411.649 148.347 407.276 148.342C406.368 148.342 405.452 148.145 404.564 147.774C403.789 148.145 402.931 148.333 402.023 148.333C396.775 148.324 391.526 148.315 386.278 148.305C382.974 148.301 379.852 145.742 378.612 142.294C378.302 142.344 377.978 142.367 377.655 142.367C376.216 142.367 375.499 142.363 374.061 142.358C373.654 145.764 371.196 148.283 367.917 148.273C365.819 148.273 364.77 148.269 362.672 148.264C362.233 148.264 361.789 148.214 361.346 148.122C360.923 148.214 360.488 148.26 360.052 148.26C357.955 148.26 356.906 148.255 354.808 148.251C353.39 148.251 351.976 147.765 350.741 146.9C349.68 147.761 348.361 148.241 346.944 148.237C344.846 148.237 343.797 148.232 341.703 148.228C341.264 148.228 340.825 148.177 340.381 148.086C339.954 148.177 339.519 148.223 339.083 148.223C336.986 148.223 335.937 148.218 333.843 148.214C332.425 148.214 331.024 147.729 329.805 146.859C328.728 147.724 327.401 148.205 325.979 148.2C323.881 148.2 322.836 148.196 320.739 148.191C320.303 148.191 319.86 148.141 319.42 148.049C318.993 148.141 318.558 148.191 318.119 148.186C316.021 148.186 314.976 148.182 312.879 148.177C311.461 148.177 310.068 147.687 308.874 146.817C307.775 147.687 306.44 148.168 305.018 148.164C302.921 148.164 301.876 148.159 299.778 148.154C298.874 148.154 297.979 147.957 297.133 147.577C296.321 147.953 295.442 148.15 294.538 148.145C290.347 148.136 288.253 148.131 284.062 148.127C281.475 148.122 279.104 146.529 277.802 144.002C276.712 143.278 275.791 142.234 275.149 140.994C272.943 139.542 271.554 136.868 271.517 133.915C271.472 130.33 271.451 128.545 271.413 124.983C271.405 124.099 271.517 123.243 271.741 122.433C270.174 121.425 268.955 119.745 268.416 117.703C268.105 117.254 267.84 116.778 267.624 116.275C266.028 118.028 264.229 119.534 262.243 120.775C262.293 121.174 262.322 121.572 262.322 121.975C262.322 125.528 262.322 127.313 262.33 130.889C262.33 131.919 262.169 132.931 261.845 133.874C262.169 134.822 262.339 135.834 262.343 136.873C262.343 138.073 262.347 138.672 262.351 139.877C262.363 144.386 259.184 148.077 255.258 148.072C252.115 148.067 250.544 148.063 247.402 148.058C246.498 148.058 245.615 147.857 244.79 147.477C243.957 147.857 243.065 148.049 242.162 148.049C240.068 148.049 239.019 148.044 236.921 148.04C236.486 148.04 236.047 147.99 235.616 147.893C235.18 147.99 234.741 148.035 234.301 148.035C232.208 148.035 231.159 148.031 229.061 148.026C227.643 148.026 226.296 147.532 225.181 146.643C223.999 147.527 222.619 148.012 221.201 148.012C219.103 148.012 218.059 148.008 215.961 148.003C214.543 148.003 213.204 147.504 212.101 146.616C210.907 147.5 209.518 147.99 208.101 147.99C206.003 147.99 204.954 147.985 202.86 147.98C200.083 147.976 197.786 146.099 196.8 143.384C196.609 143.53 196.414 143.672 196.211 143.8C194.785 146.355 192.343 147.962 189.756 147.958C185.386 147.948 181.017 147.939 176.647 147.935C174.06 147.93 171.872 146.309 170.852 143.736C168.8 142.257 167.693 139.533 167.983 136.539C168.099 135.326 168.157 134.717 168.273 133.508C168.373 132.464 168.638 131.443 169.052 130.495C168.82 129.543 168.754 128.527 168.853 127.487C169.086 125.088 169.202 123.893 169.43 121.512C169.716 118.573 171.308 115.945 173.575 114.539C174.355 113.234 175.42 112.168 176.622 111.472C178.716 88.726 180.859 65.9847 183.032 43.2481C182.128 43.2481 181.68 43.2481 180.776 43.2481C180.304 48.0601 180.072 50.4638 179.603 55.2711C179.317 58.1876 177.704 60.7332 175.553 62.0518C176.361 62.9904 176.929 64.222 177.153 65.6322C177.953 67.0103 178.301 68.7089 178.127 70.4945C177.609 75.833 177.095 81.1715 176.585 86.51C175.657 96.5734 172.634 106.944 166.25 114.356C161.947 119.356 155.894 122.561 149.787 123.875C149.589 125.619 149.489 126.494 149.286 128.247C150.608 128.252 151.268 128.256 152.59 128.261C156.454 128.279 159.211 131.951 158.738 136.507C158.609 137.72 158.547 138.329 158.419 139.551C157.884 144.025 154.592 147.747 150.422 147.884C145.173 147.875 139.925 147.866 134.676 147.857C133.769 147.857 132.906 147.651 132.127 147.262C131.248 147.651 130.336 147.848 129.428 147.848C124.175 147.838 118.923 147.829 113.67 147.82C112.762 147.82 111.904 147.614 111.125 147.22C110.238 147.61 109.322 147.811 108.414 147.811C106.312 147.811 105.259 147.806 103.157 147.802C101.735 147.802 100.441 147.294 99.4258 146.387C98.1406 147.289 96.6979 147.788 95.2718 147.788C93.1699 147.788 92.1169 147.784 90.0151 147.779C86.0725 147.77 83.4732 143.942 84.2111 139.318C85.0195 134.245 85.8321 129.172 86.6446 124.104C86.7317 123.568 86.8602 123.042 87.026 122.529C83.0047 122.51 78.9793 122.488 74.958 122.469C74.0542 122.469 73.2044 122.263 72.4415 121.879C71.5046 122.3 70.5428 122.515 69.5935 122.51C63.9553 122.483 58.3214 122.455 52.6832 122.428C49.8559 122.414 47.4389 121.558 45.7143 120.015C44.1597 121.453 42.2444 122.304 40.3415 122.295C33.4556 122.263 26.5654 122.227 19.6795 122.195C16.5163 122.181 14.1823 119.759 13.9087 116.38C13.1583 114.942 12.9344 113.175 13.2744 111.334C19.4473 78.1589 25.5912 44.9742 31.4864 11.7346C32.3777 7.34382 35.8974 3.97407 39.9974 3.82756C48.2971 3.82756 56.6009 3.82756 64.9006 3.82756C68.1466 3.82756 71.2973 4.116 74.2656 4.68373C77.8848 5.37508 81.0231 6.97754 83.6183 9.42702C84.3148 10.0817 84.9574 10.8143 85.546 11.6155C86.313 7.33008 89.899 3.82756 93.5555 3.82298C105.383 3.82298 117.211 3.82298 129.034 3.8184C131.899 3.8184 134.063 6.14426 134.415 9.43159C134.697 9.97643 134.905 10.5671 135.045 11.1897C140.655 5.10953 148.938 1.79472 156.441 2.0969C163.244 2.37619 170.711 4.33577 175.064 11.1302C175.735 7.05537 178.787 3.80467 182.062 3.80467C195.266 3.80467 208.47 3.80467 221.674 3.80009C224.377 3.80009 226.611 6.12137 227.204 9.40412C227.469 9.86655 227.689 10.3702 227.859 10.8967C233.481 4.70204 240.118 2.49065 247.65 2.08774C254.831 1.70315 262.397 5.14158 267.152 11.3774C267.313 7.17441 270.008 3.79093 273.271 3.79093C280.472 3.79093 287.673 3.79093 294.878 3.79093C297.739 3.79093 300.582 4.07479 303.335 4.64252C306.693 5.33387 309.823 6.96838 312.651 9.36749C315.569 11.8444 318.293 15.9605 319.736 19.6919C320.291 20.7541 320.809 21.8759 321.269 23.0159C323.359 28.2353 324.242 34.0179 324.536 39.709C324.656 41.8242 324.719 42.8818 324.843 44.9971C325.332 51.3337 324.93 58.3662 322.327 64.0297C322.107 64.5059 321.879 64.9592 321.655 65.3895C321.924 65.9206 322.194 66.493 322.468 67.1248C322.538 67.2484 322.575 67.3125 322.646 67.4361C325.075 71.8864 326.286 77.0463 326.8 82.1604C326.812 82.3024 326.825 82.4397 326.833 82.5725C327.434 92.169 327.944 101.852 329.213 111.389C329.913 111.389 330.261 111.394 330.958 111.398C332.322 111.408 333.669 111.884 334.842 112.745C335.883 111.898 337.156 111.435 338.524 111.44C340.543 111.449 341.55 111.458 343.573 111.467C344.941 111.476 346.293 111.952 347.483 112.813C348.515 111.966 349.783 111.504 351.152 111.508C353.175 111.518 354.186 111.527 356.209 111.536C356.632 111.536 357.059 111.586 357.486 111.682C357.776 111.618 358.071 111.577 358.365 111.559C357.594 110.377 356.873 109.123 356.213 107.804C351.964 100.969 350.488 92.7687 349.501 84.7198C348.196 69.7849 346.956 54.8453 345.766 39.9012C344.991 30.552 345.799 19.9621 350.72 12.0734C355.024 5.17363 363.07 2.12895 370.342 2.06943C377.858 2.00533 385.689 5.17363 391.149 11.0707C390.913 6.99127 393.296 3.76804 396.679 3.76346C402.529 3.76346 408.383 3.76346 414.232 3.76346C415.625 3.76346 417.026 4.29914 418.253 5.25146C419.232 4.2854 420.488 3.76346 421.889 3.76346C428.286 3.76346 434.683 3.76346 441.084 3.76346C441.963 3.76346 442.846 3.96491 443.704 4.3495C444.446 3.96491 445.279 3.76346 446.158 3.76346C453.861 3.76346 461.563 3.76346 469.262 3.76346C472.653 3.76346 476.193 4.2442 479.705 5.06374C483.61 5.97486 488.046 8.22288 491.284 10.709C494.675 13.3096 498.195 17.3569 500.384 21.3081C501.221 22.5214 502.004 23.7851 502.701 25.0533C505.57 30.2911 507.294 36.2705 508.26 42.2958C509.073 47.2039 509.89 52.112 510.71 57.0201C511.701 62.6837 511.991 68.7135 510.914 74.3221C510.147 78.3145 507.941 83.1769 505.222 86.0201C502.543 88.8221 499.235 90.8458 495.396 91.8393C493.216 92.407 490.969 92.787 488.693 92.9748C490.123 100.859 491.591 108.738 493.1 116.604C493.945 120.99 491.462 124.539 487.549 124.52C480.704 124.488 473.855 124.452 467.011 124.42C463.881 124.406 460.705 122.057 459.221 118.733C458.914 118.385 458.632 118.019 458.371 117.639C455.374 121.682 451.216 123.339 446.913 124.942C447.833 130.129 448.77 135.316 449.719 140.499C450.532 144.885 447.999 148.447 444.06 148.438C441.958 148.438 440.905 148.434 438.804 148.429V148.406ZM130.083 128.137C130.386 125.821 130.535 124.667 130.833 122.364C130.369 122.167 129.913 121.961 129.465 121.737C129.13 124.282 128.964 125.56 128.624 128.128C129.204 128.128 129.499 128.128 130.079 128.133L130.083 128.137ZM215.231 110.735C216.595 110.744 217.88 111.22 218.946 112.085C219.481 111.692 220.053 111.38 220.65 111.16C219.916 109.787 219.269 108.317 218.718 106.756C215.43 99.7646 215.231 91.7248 215.401 84.0513C216.172 70.4579 216.964 56.869 217.777 43.2802C216.885 43.2802 216.438 43.2802 215.546 43.2802C214.149 65.7558 212.81 88.2361 211.529 110.721C213.009 110.73 213.751 110.735 215.231 110.739V110.735ZM410.037 111.815C409.722 111.362 409.411 110.895 409.112 110.423C408.946 110.895 408.772 111.357 408.586 111.806C409.166 111.806 409.456 111.811 410.033 111.815H410.037ZM116.448 82.5725C116.572 81.7163 116.639 81.2905 116.763 80.4344C116.639 80.4435 116.514 80.4435 116.39 80.4435C113.368 80.4298 111.85 80.4206 108.82 80.4069C108.691 81.2585 108.625 81.6797 108.497 82.5313C111.685 82.545 113.272 82.5542 116.448 82.5679V82.5725Z" fill="#AAF3D5"/>
<path d="M500.703 26.0834C500.015 24.8244 499.268 23.6385 498.497 22.5214C496.503 18.8907 493.29 15.1547 490.181 12.7647C487.225 10.4892 483.175 8.43348 479.61 7.60478C476.272 6.82644 472.906 6.36859 469.681 6.36859C461.974 6.36859 454.263 6.36859 446.556 6.36859C445.611 6.36859 444.786 6.71198 444.152 7.3026C443.343 6.71656 442.419 6.37317 441.478 6.37317C435.073 6.37317 428.667 6.37317 422.258 6.37317C421.093 6.37317 420.057 6.92717 419.373 7.91611C419.124 8.27323 418.929 8.67614 418.792 9.11567C417.831 7.48116 416.243 6.37775 414.593 6.37775C408.731 6.37775 402.869 6.37775 397.007 6.37775C394.64 6.37775 393.006 8.73108 393.35 11.6292C393.694 14.5366 393.869 15.9925 394.217 18.9044C393.16 17.0501 391.986 15.3653 390.71 13.8681C385.598 7.86117 377.912 4.28539 370.615 4.67914C363.485 5.06373 356.873 7.06452 352.416 13.8361C347.524 21.2761 347.499 30.9595 347.914 39.8875C349.133 54.8362 350.405 69.7757 351.744 84.7152C352.694 92.3246 354.074 100.113 358.125 106.559C359.468 109.256 361.06 111.646 362.909 113.701C363.07 113.88 363.236 114.045 363.398 114.219C361.644 114.21 360.769 114.205 359.02 114.196C358.581 114.196 358.162 114.269 357.772 114.397C357.353 114.26 356.922 114.182 356.483 114.182C354.456 114.173 353.44 114.164 351.413 114.155C349.833 114.146 348.523 115.066 347.827 116.471C346.869 115.057 345.393 114.123 343.814 114.114C341.786 114.104 340.775 114.095 338.752 114.086C337.172 114.077 335.854 114.997 335.141 116.403C334.204 114.988 332.741 114.054 331.165 114.045C329.689 114.036 328.951 114.031 327.476 114.027C327.422 113.875 327.364 113.724 327.297 113.582C325.452 103.446 325.258 92.8145 324.623 82.5359C324.619 82.4443 324.611 82.3527 324.603 82.2657C324.022 77.6918 323.176 72.8845 320.863 68.7776C320.78 68.6265 320.697 68.4846 320.614 68.3426C320.287 67.578 319.943 66.8317 319.561 66.1404C319.391 65.8336 319.221 65.536 319.06 65.2476C319.503 64.4601 319.968 63.581 320.428 62.5967C322.969 57.1254 322.837 51.0269 322.72 44.9833C322.6 42.8681 322.542 41.8105 322.426 39.6998C322.165 34.3796 321.373 28.9541 319.429 24.0689C318.985 22.9564 318.492 21.9033 317.974 20.9144C316.299 16.8991 314.151 13.7262 311.577 11.5102C309.007 9.29423 306.163 7.85201 303.107 7.22934C300.454 6.68451 297.71 6.4098 294.944 6.4098C287.723 6.4098 280.497 6.4098 273.275 6.4098C271.036 6.4098 269.208 8.76771 269.191 11.6659C269.171 14.6877 269.162 16.194 269.146 19.2066C268.296 17.2195 267.255 15.4156 266.153 13.8315C261.841 7.6414 254.491 4.77071 247.576 4.71119C240.441 4.64709 233.004 7.77876 228.323 13.8132C227.548 14.8113 226.785 15.9009 226.097 17.0639C226.155 15.965 226.188 15.4156 226.246 14.3168C226.325 12.8929 225.948 11.6064 225.285 10.6586C225.048 8.25034 223.502 6.42811 221.524 6.42811C208.283 6.42811 195.042 6.43269 181.805 6.43727C179.512 6.43727 177.398 8.79976 177.091 11.6979C176.784 14.6052 176.631 16.052 176.328 18.9456C175.706 17.1005 174.894 15.4202 174.011 13.9322C170.035 7.21103 162.739 5.01795 156.122 4.73408C148.838 4.42275 140.771 7.90238 135.51 13.9002C134.461 15.0997 133.433 16.4183 132.5 17.8422C132.699 16.4412 132.799 15.7407 132.993 14.3397C133.192 12.9204 132.906 11.6292 132.284 10.6815C132.235 8.27323 130.755 6.44643 128.657 6.44643C116.813 6.44643 104.969 6.44643 93.1244 6.45101C90.6577 6.45101 88.2615 8.81807 87.7765 11.7117C87.2665 14.7792 87.0136 16.3084 86.5037 19.3531C85.5212 16.107 84.008 13.4789 81.9684 11.5651C79.6136 9.35375 76.7572 7.90696 73.4697 7.27971C70.6133 6.73487 67.5828 6.46016 64.4529 6.46016C56.1491 6.46016 47.8453 6.46016 39.5415 6.46016C36.9297 6.46016 34.3842 8.82723 33.8743 11.7208C27.975 44.9604 21.8353 78.1497 15.6665 111.33C15.397 112.786 15.6665 114.109 16.3257 115.084C16.3008 117.557 17.8803 119.447 20.1894 119.461C27.0713 119.498 33.9572 119.53 40.8391 119.566C42.9326 119.576 44.9889 118.028 46.0004 115.885C47.3519 118.591 50.3244 119.681 53.1725 119.695C58.8023 119.722 64.4321 119.75 70.062 119.777C71.0528 119.782 72.0519 119.42 72.9349 118.793C73.5899 119.383 74.4398 119.731 75.414 119.736C80.7744 119.763 86.1348 119.791 91.491 119.818C90.2307 120.803 89.273 122.346 88.9953 124.095C88.191 129.163 87.3868 134.236 86.5825 139.304C86.0933 142.39 87.8262 144.927 90.4546 144.931C92.5564 144.936 93.6053 144.94 95.703 144.945C97.3405 144.945 98.9325 143.97 100.006 142.491C100.636 143.979 101.938 144.963 103.571 144.963C105.669 144.968 106.718 144.972 108.816 144.977C109.786 144.977 110.735 144.634 111.569 144.047C112.236 144.638 113.09 144.986 114.06 144.986C119.3 145 124.54 145.009 129.785 145.023C130.755 145.023 131.696 144.684 132.521 144.098C133.197 144.688 134.055 145.032 135.025 145.036C140.261 145.05 145.497 145.059 150.733 145.073C153.353 145.078 155.741 142.582 156.064 139.529C156.193 138.306 156.259 137.697 156.387 136.484C156.711 133.444 154.874 130.99 152.287 130.976C150.028 130.967 148.896 130.962 146.633 130.953C147.072 127.158 147.292 125.271 147.727 121.521C153.991 120.587 160.338 117.634 164.724 112.539C170.682 105.62 173.459 95.8638 174.342 86.4825C174.865 81.144 175.391 75.8055 175.918 70.4716C176.059 69.066 175.706 67.7886 175.026 66.8546C174.865 64.4784 173.273 62.6791 171.142 62.6745C165.218 62.6562 159.289 62.6379 153.365 62.6196C152.528 62.6196 151.715 62.8897 150.99 63.3613C151.234 61.3834 151.355 60.3899 151.595 58.412C152.258 59.5978 153.411 60.3578 154.804 60.3624C160.716 60.3807 166.627 60.399 172.539 60.4127C174.956 60.4219 177.145 58.1098 177.431 55.2528C177.862 50.9353 178.293 46.6224 178.724 42.3049C178.782 41.7235 178.828 41.1557 178.874 40.588C179.068 40.6201 179.267 40.6475 179.475 40.6475C181.859 40.6475 183.048 40.6475 185.428 40.6567C183.193 64.5059 180.996 88.3551 178.857 112.213C178.824 112.589 178.824 112.951 178.857 113.308C177.261 113.628 175.851 114.869 175.109 116.545C173.347 117.332 171.971 119.255 171.755 121.517C171.532 123.898 171.416 125.093 171.192 127.492C171.088 128.6 171.275 129.634 171.685 130.5C171.113 131.361 170.732 132.395 170.628 133.512C170.516 134.721 170.458 135.326 170.346 136.539C170.13 138.846 171.163 140.838 172.821 141.662C173.339 143.69 174.914 145.133 176.9 145.137C181.257 145.146 185.614 145.16 189.972 145.169C191.957 145.174 193.761 143.745 194.602 141.726C196.389 140.911 197.736 138.938 197.89 136.64C198.052 134.222 198.13 133.013 198.292 130.614C198.408 128.911 197.832 127.4 196.853 126.402C197.479 126.819 198.217 127.057 199.013 127.061C199.204 127.061 199.304 127.061 199.494 127.061C199.163 132.07 198.997 134.588 198.661 139.675C198.462 142.711 200.423 145.201 203.039 145.206C205.128 145.21 206.173 145.215 208.266 145.22C209.896 145.22 211.384 144.263 212.309 142.807C213.084 144.267 214.473 145.233 216.106 145.238C218.195 145.242 219.24 145.247 221.33 145.252C222.959 145.252 224.435 144.299 225.338 142.843C226.134 144.299 227.54 145.265 229.169 145.27C231.258 145.275 232.303 145.279 234.393 145.284C234.844 145.284 235.284 145.206 235.703 145.068C236.113 145.206 236.548 145.288 237.004 145.288C239.094 145.293 240.138 145.297 242.228 145.302C243.194 145.302 244.098 144.972 244.852 144.395C245.59 144.972 246.486 145.311 247.447 145.311C250.581 145.32 252.149 145.32 255.283 145.329C257.894 145.334 260.013 142.885 260.013 139.872C260.013 138.668 260.013 138.068 260.013 136.868C260.013 135.76 259.727 134.73 259.238 133.87C259.731 133.013 260.013 131.988 260.017 130.884C260.017 127.304 260.025 125.523 260.029 121.966C260.029 121.027 259.826 120.148 259.466 119.383C262.38 117.886 264.905 115.83 267.007 113.221C267.794 112.245 268.507 111.183 269.162 110.057C269.171 111.115 269.171 111.646 269.179 112.708C269.187 114.155 269.693 115.469 270.506 116.435C270.945 118.889 272.823 120.752 275.062 120.766C275.223 120.766 275.306 120.766 275.472 120.766C274.403 121.741 273.723 123.266 273.748 124.992C273.797 128.549 273.822 130.335 273.872 133.92C273.905 136.191 275.145 138.146 276.882 138.961C277.383 140.325 278.349 141.415 279.539 141.973C280.281 143.97 282.018 145.384 284.004 145.389C288.183 145.398 290.272 145.403 294.451 145.412C295.417 145.412 296.3 145.082 297.025 144.51C297.797 145.082 298.709 145.421 299.675 145.421C301.764 145.426 302.809 145.43 304.898 145.435C306.527 145.435 307.916 144.496 308.687 143.063C309.616 144.501 311.108 145.448 312.738 145.453C314.827 145.458 315.872 145.462 317.961 145.467C318.413 145.467 318.848 145.394 319.255 145.256C319.678 145.394 320.121 145.471 320.577 145.471C322.667 145.476 323.711 145.481 325.801 145.485C327.43 145.485 328.798 144.551 329.536 143.118C330.498 144.551 332.011 145.499 333.64 145.503C335.73 145.508 336.774 145.513 338.868 145.517C339.32 145.517 339.751 145.444 340.157 145.307C340.584 145.444 341.028 145.522 341.484 145.522C343.573 145.526 344.622 145.531 346.711 145.535C348.341 145.535 349.688 144.601 350.397 143.178C351.388 144.606 352.922 145.549 354.555 145.554C356.649 145.558 357.693 145.563 359.783 145.568C360.239 145.568 360.666 145.494 361.068 145.357C361.499 145.494 361.943 145.572 362.399 145.572C364.492 145.577 365.537 145.581 367.631 145.586C370.247 145.59 372.079 143.191 371.722 140.224C371.698 140 371.681 139.89 371.656 139.67C373.932 139.68 375.072 139.68 377.348 139.689C378.53 139.689 379.549 139.199 380.271 138.384C380.366 139.13 380.416 139.506 380.511 140.257C380.893 143.214 383.33 145.622 385.95 145.632C391.186 145.645 396.422 145.655 401.658 145.668C402.628 145.668 403.478 145.343 404.142 144.785C404.975 145.348 405.928 145.677 406.894 145.682C411.26 145.691 415.629 145.705 419.995 145.714C420.965 145.714 421.81 145.389 422.47 144.835C423.315 145.398 424.269 145.728 425.239 145.728C427.337 145.732 428.386 145.737 430.483 145.742C432.121 145.742 433.402 144.826 434.007 143.42C435.106 144.83 436.714 145.76 438.352 145.76C440.449 145.764 441.502 145.769 443.6 145.774C446.229 145.778 447.916 143.411 447.377 140.481C446.295 134.575 445.242 128.659 444.214 122.744C449.205 121.837 453.998 119.255 457.123 114.777C457.766 113.857 458.321 112.85 458.806 111.778C458.947 112.566 459.018 112.964 459.159 113.752C459.416 115.194 460.158 116.503 461.157 117.46C462.024 119.896 464.262 121.746 466.551 121.755C473.391 121.792 480.227 121.824 487.068 121.86C489.679 121.874 491.334 119.512 490.77 116.581C489.107 107.873 487.495 99.1511 485.928 90.4245C488.821 90.3513 491.682 89.9484 494.451 89.2296C497.95 88.3185 500.964 86.5329 503.406 83.9231C505.881 81.2768 507.655 77.6552 508.588 73.2324C509.699 67.9626 509.297 62.3128 508.368 57.0064C507.543 52.0983 506.726 47.1947 505.918 42.282C505.014 36.6322 503.418 31.0099 500.732 26.0972L500.703 26.0834ZM78.6891 65.5635C78.6601 65.4765 78.6352 65.3849 78.6062 65.298C78.4984 65.0004 78.3865 64.7073 78.2746 64.428C78.5274 64.1304 78.7803 63.8145 79.0415 63.4895C78.9006 64.3182 78.8301 64.7348 78.6891 65.5635ZM119.549 76.8952C119.159 79.5644 118.964 80.9013 118.575 83.5843C118.492 84.1475 118.425 84.6969 118.355 85.2463C118.148 85.2097 117.94 85.1868 117.721 85.1868C113.749 85.1685 109.782 85.1502 105.81 85.1273C106.262 82.1971 106.486 80.7319 106.938 77.8155C110.88 77.8338 112.845 77.8429 116.771 77.8567C117.758 77.8567 118.716 77.5041 119.549 76.8952ZM123.981 46.4622C123.409 45.0108 122.165 44.0447 120.581 44.0402C117.211 44.0356 115.523 44.031 112.132 44.0264C112.344 42.6392 112.452 41.9432 112.663 40.556C116.717 40.5605 120.776 40.5651 124.831 40.5697C124.486 42.9276 124.316 44.1043 123.972 46.4576L123.981 46.4622ZM120.386 107.076C121.046 109.031 121.891 110.803 122.936 112.383C123.052 112.561 123.181 112.731 123.305 112.905C121.812 112.896 121.066 112.891 119.57 112.886C119.897 110.556 120.059 109.393 120.386 107.081V107.076ZM125.921 130.857C126.592 125.789 126.928 123.28 127.592 118.303C127.633 117.991 127.645 117.689 127.641 117.392C129.345 118.66 131.273 119.658 133.42 120.381C132.881 124.566 132.612 126.668 132.069 130.912C131.911 130.894 131.75 130.88 131.588 130.88C129.32 130.871 128.189 130.866 125.921 130.857ZM195.954 125.683C195.958 125.66 195.962 125.633 195.966 125.61C196.033 125.688 196.099 125.761 196.169 125.834C196.095 125.784 196.028 125.729 195.954 125.683ZM218.768 115.771C218.009 114.347 216.67 113.413 215.09 113.404C212.69 113.39 211.488 113.386 209.087 113.372C210.518 89.1334 212.022 64.9042 213.585 40.6796C216.172 40.6796 217.466 40.6842 220.049 40.6887C219.215 55.1429 218.407 69.6017 217.619 84.0651C217.267 91.1983 217.706 99.0687 220.786 105.529C221.777 108.363 223.096 110.867 224.754 113.01C224.874 113.166 225.003 113.312 225.127 113.463C224.14 113.459 223.647 113.454 222.664 113.45C221.089 113.44 219.659 114.361 218.763 115.775L218.768 115.771ZM382.091 61.0308C387.861 61.0491 393.632 61.0629 399.403 61.0812C399.523 62.0289 399.585 62.5005 399.706 63.4483C399.503 63.4162 399.299 63.3933 399.092 63.3933C393.122 63.375 387.157 63.3567 381.187 63.3384C380.35 63.3384 379.603 63.6131 378.99 64.0938C378.762 62.0701 378.65 61.0583 378.426 59.0392C379.367 60.2479 380.698 61.0263 382.091 61.0308ZM384.599 131.969C384.404 131.969 384.309 131.969 384.114 131.969C383.94 131.969 383.77 131.979 383.6 132.002C383.591 131.809 383.579 131.612 383.554 131.416C383.372 130.005 383.281 129.3 383.102 127.89C383.264 127.908 383.426 127.922 383.591 127.922C383.786 127.922 383.882 127.922 384.077 127.922C384.284 129.543 384.392 130.353 384.603 131.974L384.599 131.969ZM404.216 114.439C404.353 114.242 404.494 114.049 404.627 113.848C406.318 111.229 407.483 108.07 408.121 104.389C408.64 105.35 409.187 106.271 409.771 107.145C411.305 109.956 413.113 112.415 415.194 114.507C415.144 114.507 415.099 114.503 415.049 114.498C410.712 114.475 408.544 114.461 404.216 114.439Z" fill="url(#paint1_linear_565_7420)"/>
<path d="M55.9582 76.2131C56.0121 75.3753 55.8007 74.4779 55.4732 73.7087C55.1457 72.9395 54.5777 72.413 53.7776 72.1337C52.9775 71.8544 51.912 71.7125 50.5937 71.7079C50.1501 71.7079 49.9304 71.7079 49.4868 71.7079C47.1279 84.7886 44.7566 97.8647 42.3894 110.945C35.52 110.909 28.6465 110.872 21.7771 110.835C27.9251 77.6462 34.0566 44.4478 39.9476 11.2036C48.2473 11.2036 56.5428 11.2036 64.8424 11.199C67.7444 11.199 70.5137 11.4508 73.1504 11.9498C75.7912 12.4489 78.0464 13.5798 79.9327 15.3379C81.8148 17.096 83.1249 19.6645 83.8504 23.0206C84.7956 27.4159 84.1074 31.9531 83.5519 36.3393C83.2036 38.4179 83.0254 39.4527 82.6771 41.5267C81.8646 46.6179 80.4177 51.9473 77.4577 55.9855C75.1113 59.1904 73.2623 61.0309 72.0725 61.4934C73.0923 62.0062 74.2573 63.9978 75.5217 67.4499C76.4876 70.0871 76.753 73.814 76.0896 78.2368C74.5889 88.2224 70.6837 100.662 71.517 111.17C65.9576 111.138 60.3983 111.11 54.8389 111.078C51.626 111.106 50.2621 109.755 50.7388 107.067C52.5546 96.8482 55.3322 85.9607 55.9582 76.2223V76.2131ZM56.3645 50.8622C58.1762 50.8622 59.4655 50.4959 60.2324 49.7542C60.9994 49.0125 61.5632 47.5977 61.9322 45.5145C62.4877 42.3783 62.7613 40.8079 63.3168 37.6579C63.6982 35.4831 63.636 34.0409 63.1303 33.3358C62.6245 32.6307 61.4678 32.2782 59.6603 32.2782C58.4166 32.2782 57.7906 32.2782 56.5428 32.2782C55.4442 38.4729 54.3414 44.6675 53.2345 50.8576C54.4865 50.8576 55.1125 50.8576 56.3645 50.8622Z" fill="url(#paint2_linear_565_7420)"/>
<path d="M100.495 89.8022C106.411 89.8342 112.327 89.8617 118.243 89.8937C117.207 97.0407 116.174 104.188 115.146 111.33C102.377 111.261 89.6129 111.193 76.8442 111.124C82.4243 77.8158 88.0459 44.5166 93.5182 11.1854C105.379 11.1854 117.244 11.1808 129.105 11.1763C128.089 18.2225 127.069 25.2688 126.045 32.315C120.527 32.315 115.009 32.3104 109.487 32.3059C108.637 37.7588 107.788 43.2072 106.934 48.6601C111.643 48.6693 116.353 48.6784 121.062 48.6876C120.034 55.656 119.006 62.6199 117.982 69.5883C113.21 69.57 108.438 69.5516 103.667 69.5333C102.605 76.2911 101.548 83.0444 100.487 89.8022H100.495Z" fill="url(#paint3_linear_565_7420)"/>
<path d="M142.968 91.8442C144.618 91.8533 145.443 91.8579 147.093 91.8671C149.729 91.8808 151.271 89.967 151.723 86.1532C152.47 79.8578 153.22 73.5624 153.974 67.267C159.923 67.2899 165.873 67.3082 171.817 67.3311C171.266 72.6604 170.719 77.9852 170.176 83.3145C169.417 91.1483 167.05 100.021 162.025 105.744C157.44 110.959 150.272 113.088 143.871 113.216C137.777 113.34 131.09 111.083 127.26 105.589C122.882 99.3116 123.665 90.4615 124.395 83.0993C126.468 68.4437 128.545 53.7926 130.618 39.1369C131.608 31.1842 134.233 22.6179 139.398 16.9131C143.838 12.0141 150.343 9.34032 156.644 9.46852C162.129 9.58298 168.509 11.3732 171.668 16.9085C175.532 23.6755 175.246 31.5321 174.744 39.1827C174.292 43.5002 173.845 47.8131 173.397 52.1306C167.531 52.1169 161.661 52.1031 155.794 52.094C156.429 46.8196 157.059 41.5452 157.693 36.2662C158.153 32.4432 157.133 30.5249 154.629 30.5203C152.018 30.5203 150.467 32.4158 149.99 36.193C147.644 54.7403 145.293 73.2923 142.968 91.8442Z" fill="url(#paint4_linear_565_7420)"/>
<path d="M221.072 32.37C216.62 32.37 214.389 32.37 209.92 32.3654C208.076 58.8472 206.297 85.329 204.606 111.82C197.968 111.783 191.331 111.747 184.694 111.71C186.92 85.2512 189.217 58.7968 191.563 32.3517C187.065 32.3517 184.814 32.3517 180.295 32.3471C181 25.2871 181.709 18.2271 182.414 11.1671C195.713 11.1671 209.013 11.1625 222.312 11.158C221.893 18.2317 221.479 25.3008 221.072 32.3745V32.37Z" fill="url(#paint5_linear_565_7420)"/>
<path d="M225.479 39.2421C225.749 31.4816 227.515 22.7596 232.228 16.9038C236.229 11.9316 242.468 9.30812 248.5 9.45005C254.213 9.58283 260.597 11.5561 264.221 16.8992C268.516 23.2358 269.66 31.5411 269.598 39.2925C269.564 54.1312 269.564 68.9655 269.606 83.8043C269.681 91.3908 268.329 100.529 263.669 106.353C259.374 111.724 252.148 113.67 245.905 113.779C239.521 113.889 232.564 111.518 228.336 106.156C223.697 100.273 222.739 91.2305 223.261 83.5799C223.979 68.8006 224.721 54.0214 225.483 39.2467L225.479 39.2421ZM242.423 86.6108C242.319 90.4476 243.625 92.3797 246.332 92.3934C248.927 92.4072 250.258 90.4888 250.329 86.6521C250.635 69.8857 250.988 53.1194 251.377 36.3531C251.469 32.5026 250.304 30.5705 247.883 30.5705C245.354 30.5705 244.027 32.498 243.907 36.3439C243.376 53.0965 242.879 69.8537 242.427 86.6108H242.423Z" fill="url(#paint6_linear_565_7420)"/>
<path d="M300.491 77.2754C300.367 76.4009 299.99 75.5081 299.525 74.7206C299.061 73.9331 298.423 73.3974 297.618 73.1136C296.81 72.8297 295.79 72.6832 294.555 72.6786C294.14 72.6786 293.933 72.6786 293.518 72.6786C293.896 85.8966 294.31 99.1101 294.766 112.328C288.154 112.291 281.541 112.255 274.929 112.218C274.51 78.5299 274.336 44.8416 274.34 11.1533C281.604 11.1533 288.867 11.1533 296.13 11.1487C298.709 11.1487 301.225 11.4005 303.692 11.8995C306.158 12.3986 308.41 13.5341 310.466 15.2968C312.518 17.0595 314.222 19.6463 315.569 23.0389C317.269 27.3106 317.621 31.9669 318.028 36.55C318.135 38.6652 318.189 39.7183 318.297 41.8335C318.604 46.7325 318.5 52.2037 316.469 56.6036C314.964 59.8635 313.596 61.7636 312.576 62.2397C313.646 62.7663 315.159 64.7991 317.103 68.3291C318.587 71.0258 319.657 74.7984 320.005 79.3357C320.789 89.5182 319.906 102.512 323.052 112.552C317.642 112.52 312.236 112.493 306.826 112.461C303.717 112.488 302.108 111.147 301.992 108.459C301.544 98.0982 301.855 86.9497 300.491 77.2845V77.2754ZM295.827 51.3659C297.494 51.3659 298.609 50.9904 299.169 50.235C299.729 49.475 299.973 48.0328 299.907 45.9038C299.803 42.6989 299.753 41.0964 299.654 37.8915C299.588 35.6755 299.252 34.2104 298.659 33.4916C298.066 32.7773 296.951 32.4156 295.318 32.4156C294.194 32.4156 293.63 32.4156 292.507 32.4156C292.648 38.7293 292.797 45.0476 292.955 51.3613C294.103 51.3613 294.679 51.3613 295.827 51.3659Z" fill="url(#paint7_linear_565_7420)"/>
<path d="M377.812 93.0894C379.458 93.0986 380.283 93.1031 381.929 93.1123C384.561 93.126 385.639 91.1939 385.175 87.3297C384.404 80.9244 383.649 74.5146 382.903 68.1048C388.898 68.1276 394.892 68.146 400.887 68.1689C401.592 73.5989 402.305 79.0244 403.035 84.4499C404.096 91.9585 404.22 100.511 400.257 107.081C396.762 112.878 389.706 114.453 383.923 114.535C377.286 114.631 370.263 112.095 365.545 106.921C360.297 101.17 357.967 92.2973 357.341 84.2301C355.923 69.2906 354.576 54.3419 353.278 39.3841C352.93 31.9349 352.602 23.2038 356.868 16.8855C360.388 11.6706 366.445 9.26695 372.203 9.42262C378.239 9.58745 384.814 11.8767 389.01 16.8809C393.918 22.7322 396.331 31.5961 397.26 39.4344C397.803 43.8389 398.35 48.2388 398.901 52.6387C392.981 52.625 387.057 52.6112 381.137 52.6021C380.536 47.227 379.939 41.8473 379.354 36.4676C378.932 32.5805 377.468 30.6346 374.972 30.6346C372.369 30.6346 371.266 32.553 371.66 36.3943C373.609 55.308 375.644 74.2078 377.812 93.094V93.0894Z" fill="url(#paint8_linear_565_7420)"/>
<path d="M432.059 93.3733C433.754 93.3824 434.604 93.387 436.3 93.3962C431.93 66.0215 427.938 38.5782 424.07 11.1121C430.5 11.1121 436.926 11.1121 443.355 11.1121C447.07 36.1791 450.88 61.2279 455.001 86.2171C455.909 93.5884 456.696 101.436 452.563 107.832C448.973 113.39 441.847 114.746 436.142 114.819C429.492 114.906 422.441 112.548 417.478 107.64C412.089 102.31 409.336 93.8586 408.395 85.9928C404.962 61.0676 401.791 36.1013 398.723 11.1212C404.61 11.1212 410.493 11.1212 416.38 11.1212C419.82 36.7148 423.365 62.2855 427.208 87.8059C427.768 91.5098 429.389 93.3687 432.063 93.3824L432.059 93.3733Z" fill="url(#paint9_linear_565_7420)"/>
<path d="M485.413 113.358C478.598 113.322 471.782 113.285 464.967 113.248C458.881 79.3129 453.579 45.2262 448.45 11.103C456.178 11.103 463.91 11.103 471.637 11.0984C474.543 11.0984 477.512 11.4692 480.546 12.211C483.577 12.9527 486.441 14.3491 489.124 16.4048C491.806 18.4606 494.161 21.3541 496.192 25.0169C498.584 29.3298 499.612 34.2013 500.624 39.0774C501.428 43.9809 502.241 48.8844 503.057 53.7834C503.634 58.4351 504.313 63.1967 503.294 67.853C502.494 71.5249 501.105 74.4185 499.123 76.5338C497.146 78.649 494.733 80.0775 491.901 80.8146C489.066 81.5563 486.172 81.918 483.216 81.9043C481.815 81.8997 481.118 81.8951 479.721 81.8905C481.554 92.3935 483.444 102.887 485.413 113.363V113.358ZM471.571 32.5164C473.047 41.7741 474.539 51.0271 476.065 60.2756C477.221 60.2756 477.802 60.2802 478.963 60.2848C480.778 60.2894 481.96 59.8865 482.503 59.0669C483.046 58.252 483.129 56.7182 482.756 54.4656C481.86 49.0447 480.973 43.6192 480.099 38.1937C479.738 35.9503 479.157 34.444 478.357 33.6748C477.561 32.9056 476.256 32.521 474.452 32.5164C473.3 32.5164 472.723 32.5164 471.575 32.5164H471.571Z" fill="url(#paint10_linear_565_7420)"/>
<path d="M55.1831 73.6264C55.237 72.7885 55.0256 71.8957 54.6981 71.1266C54.3705 70.3574 53.8026 69.8309 53.0025 69.5516C52.2024 69.2723 51.1369 69.1303 49.8186 69.1258C49.375 69.1258 49.1553 69.1258 48.7117 69.1258C46.3528 82.1698 43.9898 95.2138 41.6226 108.253C34.7532 108.217 27.8838 108.18 21.0144 108.143C27.1624 74.9725 33.2856 41.7924 39.16 8.55731C47.468 8.55731 55.7718 8.55731 64.0797 8.55273C66.9817 8.55273 69.7552 8.80455 72.396 9.3036C75.0368 9.80723 77.2962 10.9427 79.1783 12.7008C81.0604 14.4635 82.3705 17.0412 83.0918 20.4018C84.037 24.8063 83.3447 29.3481 82.7892 33.7434C82.4368 35.822 82.2627 36.8614 81.9103 38.9354C81.0977 44.0312 79.6468 49.3606 76.6867 53.3988C74.3403 56.6037 72.4913 58.4442 71.3015 58.9066C72.3213 59.4194 73.4863 61.4065 74.7466 64.8586C75.7125 67.4913 75.9778 71.2136 75.3104 75.6318C73.8096 85.5853 69.9003 97.9975 70.7335 108.473C65.1783 108.441 59.6231 108.414 54.0679 108.382C50.855 108.409 49.4911 107.063 49.9678 104.384C51.7836 94.1928 54.5571 83.3373 55.1872 73.6218L55.1831 73.6264ZM55.5894 48.2892C57.4052 48.2892 58.6903 47.9229 59.4573 47.1812C60.2242 46.4395 60.7922 45.0248 61.157 42.9416C61.7125 39.8007 61.9903 38.2303 62.5417 35.0803C62.9231 32.901 62.8609 31.4588 62.3551 30.7537C61.8494 30.0486 60.6927 29.6915 58.8852 29.6915C57.6415 29.6915 57.0155 29.6915 55.7676 29.6915C54.669 35.8907 53.5663 42.09 52.4552 48.2892C53.7072 48.2892 54.3332 48.2892 55.5852 48.2938L55.5894 48.2892Z" fill="url(#paint11_linear_565_7420)"/>
<path d="M99.6912 87.1786C105.599 87.2061 111.511 87.2382 117.418 87.2656C116.378 94.3897 115.341 101.518 114.309 108.647C101.561 108.578 88.8088 108.51 76.0608 108.436C81.6616 75.1464 87.2956 41.861 92.7762 8.54358C104.633 8.54358 116.489 8.539 128.35 8.53442C127.33 15.5944 126.302 22.6544 125.274 29.7144C119.76 29.7144 114.247 29.7098 108.729 29.7098C107.875 35.1673 107.021 40.6203 106.167 46.0778C110.872 46.087 115.577 46.0915 120.283 46.1007C119.25 53.0645 118.218 60.0284 117.186 66.9922C112.418 66.9739 107.651 66.9602 102.887 66.9419C101.826 73.6859 100.761 80.43 99.6995 87.1786H99.6912Z" fill="url(#paint12_linear_565_7420)"/>
<path d="M142.097 89.2115C143.747 89.2206 144.568 89.2252 146.214 89.2344C148.847 89.2481 150.389 87.3389 150.845 83.5342C151.599 77.2479 152.354 70.9617 153.112 64.6755C159.049 64.6938 164.986 64.7167 170.922 64.735C170.367 70.0552 169.811 75.3799 169.26 80.7001C168.493 88.5201 166.122 97.3749 161.097 103.084C156.516 108.285 149.365 110.405 142.972 110.533C136.895 110.657 130.22 108.409 126.402 102.924C122.036 96.6606 122.828 87.8288 123.562 80.4895C125.647 65.843 127.737 51.1965 129.818 36.5454C130.817 28.5835 133.445 20.0035 138.615 14.2895C143.051 9.38601 149.547 6.69845 155.849 6.82665C161.325 6.94111 167.697 8.74503 170.839 14.285C174.687 21.0657 174.388 28.9315 173.878 36.5866C173.422 40.9041 172.97 45.2216 172.514 49.5391C166.656 49.5254 160.799 49.5162 154.945 49.5025C155.583 44.2235 156.222 38.9491 156.86 33.6702C157.324 29.8426 156.309 27.9242 153.809 27.9196C151.201 27.9196 149.651 29.8197 149.17 33.5969C146.807 52.1351 144.44 70.6733 142.093 89.2115H142.097Z" fill="url(#paint13_linear_565_7420)"/>
<path d="M220.115 29.7556C215.671 29.7556 213.449 29.7556 208.992 29.751C207.114 56.2054 205.298 82.6689 203.57 109.137C196.949 109.1 190.332 109.064 183.712 109.027C185.971 82.591 188.305 56.1642 190.681 29.7419C186.195 29.7419 183.944 29.7419 179.438 29.7373C180.151 22.6681 180.868 15.5944 181.585 8.52527C194.855 8.52527 208.121 8.52069 221.392 8.51611C220.965 15.5944 220.542 22.6773 220.119 29.7556H220.115Z" fill="url(#paint14_linear_565_7420)"/>
<path d="M224.501 36.6279C224.783 28.8628 226.557 20.1363 231.267 14.2667C235.255 9.29904 241.482 6.66185 247.505 6.80378C253.206 6.93656 259.569 8.91903 263.168 14.2621C267.446 20.6078 268.57 28.9177 268.495 36.6691C268.437 51.4987 268.416 66.3284 268.429 81.1626C268.491 88.7445 267.131 97.8648 262.471 103.679C258.185 109.036 250.975 110.982 244.744 111.092C238.381 111.202 231.449 108.835 227.237 103.483C222.615 97.6038 221.678 88.5751 222.213 80.9428C222.95 66.1681 223.713 51.398 224.501 36.6279ZM241.324 83.9692C241.216 87.8013 242.514 89.7289 245.213 89.7426C247.8 89.7563 249.13 87.838 249.205 84.0058C249.537 67.244 249.918 50.4869 250.333 33.7297C250.428 29.8792 249.271 27.9471 246.854 27.9471C244.334 27.9471 243.007 29.8747 242.879 33.7251C242.323 50.4731 241.801 67.2211 241.324 83.9692Z" fill="url(#paint15_linear_565_7420)"/>
<path d="M299.24 74.6335C299.119 73.7636 298.742 72.8663 298.282 72.0833C297.822 71.3004 297.187 70.7602 296.383 70.4763C295.579 70.1924 294.559 70.0459 293.328 70.0414C292.913 70.0414 292.71 70.0414 292.296 70.0414C292.652 83.2456 293.042 96.4453 293.473 109.645C286.881 109.608 280.286 109.572 273.694 109.535C273.333 75.8606 273.213 42.186 273.267 8.51141C280.509 8.51141 287.748 8.51141 294.99 8.50684C297.561 8.50684 300.069 8.75865 302.527 9.2577C304.981 9.75676 307.228 10.8922 309.276 12.6595C311.32 14.4222 313.012 17.009 314.355 20.4017C316.046 24.678 316.39 29.3343 316.784 33.9127C316.888 36.028 316.942 37.081 317.045 39.1963C317.344 44.0952 317.232 49.5665 315.2 53.9664C313.696 57.2262 312.332 59.1263 311.312 59.5979C312.377 60.1244 313.882 62.1527 315.818 65.6827C317.294 68.3748 318.355 72.1474 318.695 76.6801C319.458 86.8535 318.558 99.8242 321.676 109.865C316.282 109.833 310.893 109.805 305.5 109.773C302.399 109.801 300.798 108.464 300.686 105.776C300.259 95.4289 300.583 84.2941 299.24 74.6335ZM294.63 48.7378C296.292 48.7378 297.403 48.3623 297.963 47.6069C298.522 46.8469 298.767 45.4047 298.705 43.2757C298.609 40.0707 298.56 38.4683 298.464 35.2634C298.398 33.0474 298.071 31.5823 297.478 30.8635C296.885 30.1492 295.778 29.7875 294.149 29.7875C293.025 29.7875 292.466 29.7875 291.346 29.7875C291.479 36.1012 291.616 42.4195 291.765 48.7332C292.909 48.7332 293.481 48.7332 294.63 48.7378Z" fill="url(#paint16_linear_565_7420)"/>
<path d="M376.312 90.4247C377.953 90.4339 378.774 90.4384 380.416 90.4476C383.04 90.4613 384.122 88.5338 383.662 84.665C382.903 78.2597 382.157 71.8545 381.423 65.4492C387.401 65.4675 393.379 65.4904 399.357 65.5087C400.054 70.9342 400.759 76.3597 401.48 81.7852C402.529 89.2938 402.637 97.8418 398.677 104.407C395.187 110.194 388.147 111.774 382.368 111.856C375.752 111.953 368.75 109.416 364.053 104.247C358.825 98.4965 356.516 89.6281 355.907 81.57C354.518 66.635 353.191 51.6909 351.918 36.7468C351.578 29.2931 351.263 20.5711 355.525 14.2483C359.032 9.04257 365.073 6.62972 370.823 6.78539C376.846 6.95021 383.397 9.24402 387.575 14.2437C392.467 20.095 394.863 28.9589 395.78 36.788C396.314 41.1879 396.858 45.5878 397.405 49.9877C391.497 49.974 385.594 49.9649 379.686 49.9511C379.093 44.576 378.505 39.2009 377.928 33.8212C377.51 29.9341 376.055 27.9928 373.567 27.9882C370.972 27.9882 369.869 29.9066 370.259 33.7479C372.178 52.6524 374.185 71.5431 376.316 90.4201L376.312 90.4247Z" fill="url(#paint17_linear_565_7420)"/>
<path d="M430.429 90.6994C432.121 90.7086 432.966 90.7132 434.662 90.7223C430.342 63.3569 426.387 35.9273 422.544 8.47485C428.958 8.47485 435.371 8.47485 441.78 8.47485C445.474 33.5282 449.255 58.5632 453.334 83.5433C454.23 90.9192 455.001 98.7621 450.868 105.158C447.277 110.712 440.168 112.072 434.463 112.145C427.83 112.232 420.791 109.874 415.853 104.966C410.48 99.632 407.752 91.1847 406.824 83.3281C403.437 58.4121 400.299 33.4549 397.256 8.48401C403.126 8.48401 408.996 8.48401 414.866 8.48401C418.282 34.0639 421.794 59.6254 425.591 85.1366C426.147 88.836 427.76 90.6949 430.429 90.7086V90.6994Z" fill="url(#paint18_linear_565_7420)"/>
<path d="M483.664 110.689C476.857 110.652 470.054 110.616 463.247 110.579C457.227 76.6526 451.97 42.5797 446.867 8.47015C454.578 8.47015 462.293 8.47015 470.004 8.46558C472.906 8.46558 475.87 8.83643 478.896 9.57356C481.923 10.3153 484.779 11.7071 487.461 13.7629C490.14 15.814 492.49 18.7076 494.513 22.3658C496.901 26.6741 497.925 31.541 498.933 36.4125C499.733 41.3115 500.541 46.2104 501.354 51.1094C501.926 55.7611 502.601 60.5181 501.577 65.1744C500.773 68.8463 499.384 71.7399 497.403 73.8551C495.421 75.9704 493.017 77.3989 490.185 78.1406C487.354 78.8823 484.46 79.244 481.512 79.2303C480.115 79.2257 479.419 79.2211 478.022 79.2165C479.838 89.7241 481.716 100.213 483.66 110.693L483.664 110.689ZM469.929 29.8607C471.397 39.1138 472.881 48.3623 474.394 57.6062C475.551 57.6062 476.127 57.6062 477.284 57.6153C479.1 57.6153 480.277 57.217 480.82 56.3975C481.363 55.5825 481.446 54.0487 481.077 51.7961C480.186 46.3798 479.307 40.9589 478.436 35.5334C478.076 33.29 477.499 31.7837 476.703 31.0145C475.907 30.2453 474.606 29.8607 472.802 29.8607C471.654 29.8607 471.078 29.8607 469.929 29.8607Z" fill="url(#paint19_linear_565_7420)"/>
<path d="M100.052 116.407C100.143 115.812 100.189 115.519 100.28 114.924C101.822 114.933 102.597 114.938 104.139 114.942C105.682 114.952 106.453 114.956 107.995 114.961C107.908 115.551 107.862 115.849 107.775 116.444C107.688 117.039 107.642 117.337 107.555 117.928C108.069 117.928 108.326 117.928 108.841 117.932C109.355 117.932 109.612 117.932 110.126 117.937C110.039 118.532 109.993 118.83 109.906 119.425C109.819 120.02 109.773 120.318 109.686 120.917C110.2 120.917 110.462 120.917 110.976 120.922C111.49 120.922 111.751 120.922 112.265 120.926C111.834 123.912 111.618 125.413 111.183 128.431C110.748 131.448 110.528 132.968 110.093 136.022C109.052 136.022 108.53 136.017 107.485 136.012C106.444 136.012 105.922 136.008 104.877 136.003C105.056 134.781 105.147 134.172 105.325 132.954C105.503 131.736 105.594 131.132 105.773 129.919C104.214 129.914 103.435 129.909 101.88 129.9C100.321 129.896 99.5418 129.891 97.983 129.882C97.7965 131.095 97.7052 131.7 97.5187 132.917C97.3321 134.135 97.2409 134.744 97.0544 135.971C96.0097 135.971 95.4873 135.967 94.4467 135.962C93.402 135.962 92.8797 135.958 91.8391 135.953C92.3159 132.89 92.5522 131.37 93.0248 128.344C93.4974 125.317 93.7295 123.815 94.198 120.83C94.7162 120.83 94.9732 120.83 95.4915 120.835C96.0097 120.835 96.2667 120.835 96.7849 120.839C96.8761 120.24 96.9217 119.942 97.0171 119.347C97.1083 118.752 97.1539 118.454 97.2492 117.859C97.7633 117.859 98.0245 117.859 98.5385 117.863C99.0526 117.863 99.3138 117.863 99.8278 117.868C99.919 117.273 99.9646 116.975 100.056 116.38L100.052 116.407ZM104.753 119.411C104.844 118.816 104.886 118.518 104.977 117.923C104.463 117.923 104.206 117.923 103.687 117.918C103.173 117.918 102.916 117.918 102.398 117.914C102.307 118.509 102.261 118.807 102.174 119.402C102.083 119.997 102.037 120.295 101.946 120.894C101.428 120.894 101.171 120.894 100.657 120.89C100.139 120.89 99.8817 120.89 99.3635 120.885C99.1811 122.08 99.0899 122.68 98.9034 123.88C98.7209 125.079 98.6256 125.683 98.4432 126.888C99.9978 126.897 100.777 126.897 102.332 126.906C103.886 126.915 104.666 126.915 106.216 126.924C106.395 125.72 106.482 125.116 106.66 123.916C106.838 122.717 106.925 122.117 107.104 120.922C106.589 120.922 106.328 120.922 105.814 120.917C105.3 120.917 105.039 120.917 104.525 120.913C104.616 120.318 104.658 120.015 104.749 119.42L104.753 119.411Z" fill="url(#paint20_linear_565_7420)"/>
<path d="M116.788 125.459C117.381 121.252 117.671 119.168 118.26 115.02C119.284 115.025 119.798 115.029 120.822 115.034C121.846 115.039 122.36 115.043 123.384 115.048C122.894 118.601 122.65 120.386 122.161 123.98C121.667 127.574 121.423 129.387 120.925 133.032C123.002 133.041 124.043 133.046 126.116 133.055C128.193 133.064 129.229 133.069 131.306 133.078C131.227 133.682 131.19 133.989 131.111 134.598C131.032 135.207 130.995 135.509 130.916 136.118C127.795 136.104 126.236 136.099 123.11 136.09C119.988 136.077 118.425 136.072 115.3 136.063C115.897 131.787 116.195 129.671 116.784 125.464L116.788 125.459Z" fill="url(#paint21_linear_565_7420)"/>
<path d="M137.429 125.555C137.952 121.357 138.213 119.274 138.731 115.13C139.751 115.135 140.265 115.139 141.285 115.144C142.304 115.148 142.819 115.153 143.838 115.158C143.407 118.706 143.196 120.491 142.761 124.086C142.329 127.675 142.11 129.484 141.674 133.119C143.747 133.128 144.784 133.133 146.856 133.142C148.929 133.151 149.966 133.156 152.039 133.165C151.972 133.769 151.939 134.071 151.873 134.68C151.806 135.289 151.773 135.591 151.703 136.2C148.585 136.186 147.026 136.182 143.909 136.173C140.791 136.159 139.233 136.154 136.111 136.145C136.637 131.883 136.903 129.767 137.425 125.569L137.429 125.555Z" fill="url(#paint22_linear_565_7420)"/>
<path d="M179.35 116.829C179.404 116.238 179.429 115.94 179.479 115.35C181.51 115.359 182.526 115.368 184.557 115.377C186.589 115.386 187.604 115.396 189.631 115.405C189.586 115.995 189.561 116.293 189.515 116.884C189.47 117.474 189.445 117.772 189.399 118.362C189.909 118.362 190.162 118.362 190.672 118.367C191.182 118.372 191.435 118.367 191.945 118.372C191.899 118.962 191.878 119.26 191.833 119.855C191.787 120.45 191.766 120.748 191.721 121.338C190.701 121.334 190.191 121.329 189.167 121.325C188.147 121.32 187.637 121.316 186.613 121.311C186.663 120.716 186.684 120.418 186.734 119.828C186.783 119.232 186.804 118.939 186.854 118.344C185.834 118.34 185.328 118.335 184.308 118.33C183.289 118.326 182.783 118.321 181.763 118.317C181.663 119.503 181.61 120.098 181.51 121.288C181.411 122.479 181.357 123.074 181.257 124.269C183.305 124.278 184.329 124.282 186.381 124.292C188.429 124.301 189.453 124.305 191.501 124.314C191.456 124.91 191.435 125.207 191.389 125.807C191.344 126.407 191.323 126.704 191.277 127.304C191.791 127.304 192.048 127.304 192.562 127.309C193.077 127.309 193.334 127.309 193.848 127.313C193.761 128.508 193.719 129.108 193.632 130.312C193.545 131.512 193.504 132.116 193.416 133.32C192.898 133.32 192.641 133.32 192.127 133.316C191.609 133.316 191.352 133.316 190.838 133.311C190.792 133.916 190.772 134.218 190.726 134.817C190.68 135.422 190.66 135.724 190.614 136.328C188.023 136.319 186.729 136.315 184.134 136.305C181.543 136.296 180.246 136.292 177.655 136.283C177.708 135.678 177.733 135.376 177.787 134.767C177.841 134.163 177.866 133.861 177.92 133.256C177.402 133.256 177.145 133.256 176.626 133.252C176.108 133.252 175.851 133.252 175.333 133.247C175.387 132.643 175.416 132.341 175.47 131.741C175.524 131.136 175.553 130.839 175.607 130.234C176.639 130.234 177.153 130.239 178.185 130.244C179.218 130.248 179.732 130.248 180.764 130.253C180.714 130.853 180.689 131.155 180.635 131.759C180.586 132.363 180.561 132.661 180.507 133.265C182.057 133.27 182.833 133.275 184.383 133.279C185.934 133.284 186.709 133.288 188.259 133.293C188.35 132.089 188.4 131.484 188.491 130.285C188.583 129.085 188.632 128.485 188.724 127.286C186.667 127.277 185.643 127.272 183.587 127.263C181.531 127.254 180.503 127.249 178.451 127.24C178.504 126.64 178.529 126.343 178.583 125.743C178.637 125.143 178.662 124.846 178.716 124.25C178.202 124.25 177.949 124.25 177.435 124.246C176.921 124.246 176.668 124.246 176.154 124.241C176.262 123.046 176.316 122.451 176.423 121.261C176.531 120.07 176.585 119.475 176.693 118.289C177.203 118.289 177.456 118.289 177.966 118.294C178.475 118.298 178.728 118.294 179.238 118.298C179.292 117.703 179.317 117.41 179.371 116.815L179.35 116.829Z" fill="url(#paint23_linear_565_7420)"/>
<path d="M199.681 116.939C199.722 116.348 199.743 116.05 199.78 115.46C202.823 115.478 204.341 115.483 207.383 115.501C210.422 115.519 211.944 115.524 214.982 115.542C214.953 116.133 214.937 116.43 214.904 117.021C214.871 117.612 214.858 117.909 214.825 118.5C213.809 118.495 213.299 118.491 212.284 118.486C211.268 118.482 210.758 118.477 209.742 118.472C209.539 122.025 209.44 123.811 209.237 127.396C209.033 130.981 208.934 132.785 208.731 136.406C207.694 136.406 207.176 136.402 206.144 136.397C205.107 136.397 204.589 136.392 203.553 136.388C203.773 132.762 203.885 130.962 204.104 127.373C204.324 123.783 204.436 122.002 204.66 118.445C203.644 118.44 203.134 118.436 202.118 118.431C201.103 118.427 200.593 118.422 199.577 118.417C199.619 117.827 199.639 117.529 199.677 116.939H199.681Z" fill="url(#paint24_linear_565_7420)"/>
<path d="M222.507 117.058C222.532 116.467 222.544 116.169 222.573 115.579C224.091 115.588 224.849 115.593 226.371 115.597C227.888 115.606 228.647 115.611 230.164 115.615C230.143 116.206 230.131 116.499 230.11 117.09C230.089 117.68 230.077 117.978 230.056 118.569C230.562 118.569 230.819 118.569 231.325 118.573C231.83 118.573 232.088 118.573 232.593 118.578C232.573 119.168 232.564 119.466 232.544 120.057C232.523 120.647 232.515 120.945 232.494 121.54C233.004 121.54 233.257 121.54 233.767 121.545C234.276 121.545 234.529 121.545 235.039 121.549C234.952 124.516 234.907 126.004 234.82 128.989C234.732 131.974 234.691 133.471 234.608 136.484C233.572 136.484 233.058 136.48 232.021 136.475C230.985 136.475 230.471 136.47 229.434 136.466C229.476 135.262 229.496 134.662 229.534 133.458C229.575 132.258 229.596 131.658 229.637 130.459C228.095 130.454 227.324 130.45 225.782 130.441C224.24 130.436 223.469 130.431 221.926 130.422C221.877 131.622 221.852 132.222 221.798 133.421C221.748 134.621 221.723 135.225 221.669 136.429C220.633 136.429 220.115 136.425 219.083 136.42C218.046 136.42 217.528 136.415 216.496 136.411C216.637 133.394 216.711 131.892 216.852 128.902C216.997 125.912 217.068 124.42 217.213 121.453C217.723 121.453 217.976 121.453 218.486 121.458C218.995 121.458 219.248 121.458 219.758 121.462C219.787 120.867 219.8 120.574 219.829 119.979C219.858 119.388 219.87 119.091 219.899 118.5C220.405 118.5 220.662 118.5 221.168 118.504C221.674 118.504 221.931 118.504 222.436 118.509C222.461 117.918 222.474 117.621 222.503 117.03L222.507 117.058ZM227.465 120.047C227.486 119.457 227.498 119.159 227.523 118.569H226.255C225.749 118.559 225.492 118.559 224.986 118.555C224.961 119.145 224.949 119.443 224.924 120.034C224.899 120.624 224.886 120.922 224.862 121.517C224.352 121.517 224.099 121.517 223.589 121.513C223.079 121.513 222.826 121.513 222.316 121.508C222.266 122.694 222.237 123.289 222.188 124.479C222.138 125.67 222.109 126.265 222.059 127.46C223.597 127.469 224.364 127.469 225.902 127.478C227.44 127.487 228.207 127.487 229.745 127.497C229.787 126.302 229.807 125.706 229.849 124.516C229.89 123.326 229.911 122.73 229.952 121.545C229.443 121.545 229.19 121.545 228.68 121.54C228.17 121.54 227.917 121.54 227.407 121.535C227.428 120.94 227.44 120.647 227.465 120.052V120.047Z" fill="url(#paint25_linear_565_7420)"/>
<path d="M237.468 126.036C237.58 121.87 237.634 119.796 237.75 115.666C240.785 115.684 242.302 115.689 245.337 115.707C248.372 115.725 249.889 115.73 252.919 115.748C252.911 116.339 252.911 116.632 252.903 117.222C252.895 117.813 252.895 118.106 252.886 118.701C253.392 118.701 253.649 118.701 254.155 118.706C254.661 118.706 254.918 118.706 255.423 118.71C255.411 120.482 255.403 121.371 255.39 123.152C255.378 124.933 255.369 125.821 255.361 127.606C254.337 127.602 253.823 127.597 252.799 127.593C251.775 127.588 251.261 127.583 250.237 127.579C250.229 128.174 250.225 128.472 250.221 129.067C250.212 129.662 250.208 129.96 250.204 130.56C250.718 130.56 250.975 130.56 251.489 130.564C252.003 130.564 252.26 130.564 252.774 130.569C252.77 131.164 252.766 131.466 252.762 132.061C252.758 132.656 252.754 132.959 252.749 133.558C253.263 133.558 253.525 133.558 254.039 133.563C254.553 133.563 254.814 133.563 255.328 133.568C255.328 134.167 255.324 134.465 255.32 135.065C255.32 135.664 255.316 135.962 255.311 136.566C253.761 136.562 252.986 136.557 251.431 136.553C249.881 136.548 249.105 136.544 247.551 136.539C247.559 135.939 247.563 135.637 247.571 135.037C247.58 134.437 247.584 134.14 247.592 133.54C247.078 133.54 246.817 133.54 246.303 133.536C245.789 133.536 245.528 133.535 245.014 133.531C245.022 132.931 245.03 132.634 245.038 132.034C245.047 131.434 245.055 131.136 245.063 130.541C244.549 130.541 244.292 130.541 243.778 130.537C243.264 130.537 243.007 130.537 242.493 130.532C242.468 131.727 242.456 132.327 242.431 133.526C242.406 134.726 242.394 135.326 242.373 136.53C241.336 136.53 240.822 136.525 239.786 136.521C238.749 136.521 238.235 136.516 237.199 136.512C237.307 132.299 237.361 130.207 237.468 126.041V126.036ZM250.312 121.645C250.328 120.459 250.337 119.869 250.349 118.688C248.828 118.678 248.065 118.674 246.543 118.669C245.022 118.66 244.259 118.656 242.738 118.651C242.7 120.423 242.68 121.316 242.642 123.097C242.605 124.878 242.584 125.77 242.551 127.556C243.575 127.561 244.089 127.565 245.113 127.57C246.137 127.574 246.651 127.579 247.675 127.584C247.683 126.988 247.688 126.691 247.696 126.096C247.704 125.5 247.708 125.203 247.717 124.608C248.227 124.608 248.484 124.608 248.993 124.612C249.503 124.612 249.76 124.612 250.27 124.617C250.287 123.431 250.291 122.836 250.308 121.65L250.312 121.645Z" fill="url(#paint26_linear_565_7420)"/>
<path d="M283.282 117.387C283.27 116.797 283.262 116.504 283.249 115.913C285.272 115.922 286.284 115.931 288.303 115.941C290.326 115.95 291.337 115.959 293.361 115.968C293.381 116.559 293.39 116.852 293.41 117.442C293.431 118.033 293.439 118.326 293.46 118.917C293.966 118.917 294.223 118.917 294.729 118.921C295.234 118.921 295.491 118.921 295.997 118.926C296.018 119.516 296.03 119.809 296.051 120.4C296.072 120.991 296.084 121.284 296.105 121.879C295.085 121.874 294.579 121.87 293.56 121.865C292.54 121.861 292.034 121.856 291.014 121.851C290.993 121.261 290.985 120.963 290.968 120.373C290.948 119.782 290.939 119.489 290.923 118.898C289.907 118.894 289.401 118.889 288.386 118.885C287.37 118.88 286.864 118.875 285.849 118.871C285.865 119.461 285.873 119.754 285.886 120.345C285.902 120.936 285.911 121.233 285.923 121.824C285.413 121.824 285.16 121.824 284.65 121.819C284.141 121.819 283.888 121.819 283.378 121.815C283.419 123.591 283.44 124.479 283.486 126.256C283.527 128.037 283.552 128.925 283.597 130.715C284.112 130.715 284.369 130.715 284.883 130.72C285.397 130.72 285.654 130.72 286.168 130.724C286.184 131.32 286.193 131.617 286.209 132.212C286.226 132.808 286.234 133.105 286.251 133.7C287.283 133.7 287.797 133.705 288.829 133.71C289.862 133.71 290.376 133.714 291.408 133.719C291.387 133.124 291.379 132.826 291.358 132.231C291.337 131.636 291.329 131.338 291.308 130.743C292.337 130.743 292.851 130.747 293.879 130.752C294.907 130.752 295.421 130.756 296.449 130.761C296.474 131.356 296.482 131.654 296.507 132.249C296.532 132.844 296.544 133.142 296.565 133.737C296.051 133.737 295.79 133.737 295.276 133.732C294.762 133.732 294.501 133.732 293.987 133.728C294.007 134.323 294.02 134.621 294.04 135.22C294.061 135.816 294.074 136.113 294.094 136.713C292.026 136.704 290.989 136.699 288.921 136.695C286.852 136.686 285.815 136.681 283.747 136.676C283.73 136.077 283.722 135.779 283.709 135.184C283.693 134.589 283.685 134.286 283.672 133.691C283.158 133.691 282.897 133.691 282.383 133.687C281.869 133.687 281.608 133.687 281.093 133.682C281.081 133.087 281.073 132.785 281.06 132.19C281.048 131.594 281.04 131.297 281.027 130.702C280.513 130.702 280.256 130.702 279.742 130.697C279.228 130.692 278.971 130.697 278.457 130.692C278.424 128.907 278.407 128.014 278.37 126.233C278.337 124.452 278.32 123.564 278.287 121.787C278.797 121.787 279.05 121.787 279.56 121.792C280.07 121.792 280.322 121.792 280.832 121.796C280.82 121.206 280.816 120.908 280.803 120.318C280.791 119.727 280.787 119.429 280.774 118.839C281.28 118.839 281.537 118.839 282.043 118.843C282.549 118.843 282.806 118.843 283.311 118.848C283.299 118.257 283.291 117.964 283.278 117.374L283.282 117.387Z" fill="url(#paint27_linear_565_7420)"/>
<path d="M298.833 126.334C298.663 122.185 298.58 120.116 298.414 115.995C299.426 116 299.932 116.005 300.943 116.009C301.955 116.014 302.46 116.018 303.472 116.023C303.551 117.79 303.592 118.674 303.671 120.446C303.75 122.217 303.791 123.101 303.874 124.878C305.408 124.887 306.171 124.887 307.705 124.896C309.239 124.905 310.006 124.905 311.535 124.914C311.436 123.138 311.39 122.254 311.295 120.482C311.2 118.71 311.15 117.827 311.059 116.064C312.07 116.069 312.576 116.073 313.587 116.078C314.599 116.082 315.105 116.087 316.121 116.092C316.361 120.212 316.485 122.277 316.738 126.421C316.991 130.564 317.12 132.643 317.381 136.809C316.344 136.809 315.826 136.804 314.794 136.8C313.757 136.8 313.239 136.795 312.207 136.791C312.103 135.005 312.054 134.112 311.954 132.327C311.855 130.541 311.805 129.653 311.705 127.876C310.167 127.867 309.4 127.867 307.862 127.858C306.324 127.849 305.557 127.849 304.019 127.84C304.102 129.621 304.144 130.509 304.231 132.295C304.318 134.08 304.359 134.973 304.446 136.763C303.41 136.763 302.896 136.759 301.859 136.754C300.823 136.754 300.309 136.75 299.272 136.745C299.09 132.565 299.003 130.486 298.833 126.338V126.334Z" fill="url(#paint28_linear_565_7420)"/>
<path d="M323.819 117.602C323.778 117.012 323.761 116.719 323.72 116.133C325.241 116.142 326 116.147 327.517 116.151C329.038 116.16 329.797 116.165 331.319 116.169C331.364 116.755 331.385 117.053 331.431 117.639C331.476 118.23 331.497 118.523 331.542 119.113C332.052 119.113 332.305 119.113 332.815 119.118C333.325 119.118 333.578 119.118 334.088 119.123C334.133 119.713 334.158 120.006 334.204 120.597C334.25 121.187 334.274 121.48 334.32 122.071C334.83 122.071 335.087 122.071 335.597 122.076C336.107 122.076 336.364 122.076 336.874 122.08C337.114 125.029 337.234 126.508 337.483 129.465C337.728 132.423 337.856 133.906 338.109 136.873C337.073 136.873 336.555 136.869 335.518 136.864C334.482 136.864 333.964 136.86 332.927 136.855C332.832 135.665 332.786 135.074 332.691 133.884C332.595 132.698 332.55 132.102 332.459 130.917C330.916 130.912 330.141 130.908 328.599 130.898C327.057 130.894 326.282 130.889 324.739 130.88C324.822 132.066 324.864 132.661 324.947 133.847C325.03 135.033 325.071 135.628 325.158 136.818C324.122 136.818 323.603 136.814 322.571 136.809C321.535 136.809 321.017 136.805 319.984 136.8C319.789 133.824 319.69 132.341 319.499 129.374C319.309 126.411 319.213 124.933 319.031 121.98C319.541 121.98 319.794 121.98 320.303 121.984C320.813 121.984 321.066 121.984 321.576 121.989C321.539 121.398 321.518 121.105 321.481 120.514C321.444 119.924 321.423 119.631 321.386 119.04C321.895 119.04 322.148 119.04 322.654 119.045C323.164 119.045 323.417 119.045 323.923 119.049C323.881 118.459 323.865 118.166 323.823 117.575L323.819 117.602ZM329.109 120.574C329.067 119.983 329.043 119.69 329.001 119.1C328.491 119.1 328.238 119.1 327.728 119.095C327.218 119.095 326.966 119.095 326.46 119.09C326.501 119.681 326.522 119.974 326.563 120.565C326.605 121.155 326.626 121.448 326.667 122.039C326.157 122.039 325.904 122.039 325.394 122.034C324.884 122.034 324.632 122.034 324.122 122.03C324.2 123.211 324.242 123.802 324.325 124.983C324.408 126.164 324.445 126.755 324.528 127.941C326.066 127.95 326.837 127.95 328.375 127.959C329.913 127.968 330.684 127.968 332.222 127.977C332.131 126.796 332.086 126.201 331.994 125.02C331.903 123.838 331.858 123.248 331.77 122.066C331.261 122.066 331.003 122.067 330.494 122.062C329.984 122.062 329.731 122.062 329.221 122.057C329.179 121.467 329.155 121.174 329.113 120.583L329.109 120.574Z" fill="url(#paint29_linear_565_7420)"/>
<path d="M339.792 126.526C339.44 122.392 339.266 120.327 338.926 116.211C339.941 116.215 340.447 116.22 341.463 116.224C342.479 116.229 342.984 116.234 344 116.238C344.05 116.824 344.079 117.122 344.129 117.708C344.178 118.294 344.207 118.591 344.257 119.178C344.767 119.178 345.02 119.178 345.53 119.182C346.04 119.187 346.293 119.182 346.803 119.187C346.856 119.777 346.881 120.07 346.935 120.661C346.989 121.252 347.018 121.545 347.072 122.135C347.582 122.135 347.839 122.135 348.349 122.14C348.859 122.14 349.116 122.14 349.626 122.144C349.572 121.554 349.543 121.261 349.489 120.67C349.435 120.079 349.406 119.786 349.352 119.196C349.862 119.196 350.115 119.196 350.625 119.2C351.135 119.2 351.388 119.2 351.898 119.205C351.84 118.614 351.815 118.321 351.757 117.735C351.699 117.149 351.674 116.852 351.616 116.266C352.631 116.27 353.137 116.275 354.157 116.279C355.173 116.284 355.683 116.289 356.698 116.293C357.113 120.409 357.32 122.469 357.747 126.599C358.174 130.729 358.39 132.798 358.833 136.947C357.797 136.947 357.279 136.942 356.242 136.937C355.206 136.937 354.688 136.933 353.651 136.928C353.473 135.152 353.382 134.264 353.204 132.487C353.025 130.711 352.938 129.827 352.764 128.055C352.25 128.055 351.993 128.055 351.479 128.051C350.965 128.051 350.708 128.051 350.194 128.046C350.252 128.637 350.281 128.934 350.335 129.525C350.393 130.115 350.422 130.413 350.476 131.004C349.962 131.004 349.705 131.004 349.186 130.999C348.668 130.995 348.415 130.999 347.897 130.995C347.843 130.404 347.814 130.106 347.756 129.516C347.698 128.925 347.673 128.627 347.619 128.037C347.105 128.037 346.848 128.037 346.334 128.032C345.82 128.032 345.563 128.032 345.049 128.028C345.211 129.8 345.289 130.688 345.455 132.464C345.617 134.241 345.7 135.129 345.866 136.91C344.829 136.91 344.311 136.905 343.275 136.901C342.238 136.901 341.72 136.896 340.684 136.892C340.319 132.734 340.14 130.665 339.788 126.526H339.792Z" fill="url(#paint30_linear_565_7420)"/>
<path d="M360.309 126.627C359.874 122.497 359.658 120.437 359.235 116.325C362.287 116.344 363.812 116.348 366.863 116.366C369.915 116.385 371.444 116.389 374.5 116.408C374.57 116.994 374.603 117.287 374.674 117.877C374.744 118.463 374.777 118.761 374.848 119.347C375.358 119.347 375.615 119.347 376.125 119.352C376.635 119.356 376.892 119.352 377.402 119.356C377.613 121.119 377.721 122.002 377.937 123.77C378.152 125.537 378.26 126.421 378.48 128.188C377.966 128.188 377.709 128.188 377.19 128.183C376.676 128.183 376.419 128.183 375.905 128.179C375.976 128.769 376.013 129.062 376.083 129.653C376.154 130.244 376.191 130.537 376.262 131.127C374.197 131.118 373.165 131.114 371.1 131.104C369.036 131.095 368.003 131.091 365.943 131.082C366.076 132.263 366.142 132.853 366.275 134.035C366.407 135.216 366.478 135.807 366.611 136.992C365.574 136.992 365.056 136.988 364.015 136.983C362.979 136.983 362.461 136.979 361.42 136.974C360.968 132.831 360.744 130.761 360.309 126.631V126.627ZM372.804 123.742C372.597 121.975 372.493 121.091 372.29 119.329C370.76 119.32 369.993 119.315 368.464 119.31C366.934 119.301 366.167 119.297 364.637 119.292C364.828 121.055 364.927 121.938 365.118 123.706C365.313 125.473 365.412 126.357 365.607 128.128C367.149 128.138 367.921 128.138 369.467 128.147C371.009 128.156 371.784 128.156 373.327 128.165C373.115 126.398 373.011 125.514 372.804 123.747V123.742Z" fill="url(#paint31_linear_565_7420)"/>
<path d="M382.323 117.914C382.248 117.328 382.211 117.035 382.14 116.444C385.2 116.462 386.73 116.467 389.793 116.485C392.857 116.504 394.387 116.508 397.454 116.527C397.533 117.113 397.575 117.406 397.658 117.996C397.741 118.582 397.778 118.875 397.861 119.466C396.837 119.461 396.323 119.457 395.299 119.452C394.275 119.448 393.761 119.443 392.737 119.438C393.131 122.378 393.33 123.847 393.732 126.787C394.134 129.731 394.337 131.2 394.752 134.149C395.788 134.149 396.306 134.154 397.343 134.158C398.379 134.158 398.897 134.163 399.934 134.167C400.021 134.758 400.062 135.051 400.145 135.642C400.232 136.232 400.274 136.525 400.361 137.116C397.239 137.102 395.68 137.098 392.563 137.088C389.445 137.075 387.886 137.07 384.769 137.061C384.69 136.47 384.653 136.177 384.574 135.587C384.495 134.996 384.458 134.703 384.379 134.112C385.415 134.112 385.934 134.117 386.97 134.122C388.007 134.122 388.525 134.126 389.561 134.131C389.163 131.182 388.964 129.708 388.574 126.769C388.185 123.829 387.99 122.355 387.609 119.416C386.585 119.411 386.075 119.406 385.051 119.402C384.027 119.397 383.517 119.393 382.493 119.388C382.418 118.802 382.381 118.504 382.31 117.918L382.323 117.914Z" fill="url(#paint32_linear_565_7420)"/>
<path d="M402.773 118.024C402.691 117.438 402.649 117.145 402.566 116.554C405.124 116.568 406.405 116.572 408.963 116.586C411.525 116.6 412.806 116.604 415.368 116.618C415.455 117.204 415.501 117.497 415.592 118.083C415.683 118.669 415.725 118.962 415.816 119.548C416.33 119.548 416.587 119.548 417.101 119.553C417.615 119.553 417.872 119.553 418.386 119.557C418.842 122.492 419.07 123.957 419.534 126.897C419.999 129.831 420.235 131.301 420.708 134.241C420.189 134.241 419.928 134.241 419.41 134.236C418.892 134.236 418.631 134.236 418.112 134.231C418.208 134.817 418.253 135.115 418.349 135.701C418.444 136.287 418.49 136.585 418.585 137.171C415.982 137.162 414.68 137.157 412.076 137.148C409.473 137.139 408.171 137.134 405.572 137.125C405.485 136.534 405.439 136.241 405.352 135.655C405.265 135.065 405.219 134.772 405.132 134.186C404.614 134.186 404.353 134.186 403.835 134.181C403.317 134.181 403.055 134.181 402.537 134.176C402.106 131.232 401.89 129.763 401.472 126.823C401.053 123.884 400.842 122.414 400.427 119.48C400.941 119.48 401.194 119.48 401.708 119.484C402.222 119.489 402.475 119.484 402.989 119.489C402.906 118.903 402.865 118.61 402.782 118.019L402.773 118.024ZM414.369 126.883C413.917 123.944 413.693 122.478 413.25 119.544C411.707 119.535 410.94 119.53 409.398 119.525C407.86 119.516 407.089 119.512 405.551 119.507C405.978 122.442 406.19 123.912 406.625 126.851C407.06 129.79 407.28 131.26 407.723 134.204C409.282 134.208 410.057 134.213 411.616 134.218C413.175 134.222 413.954 134.227 415.513 134.231C415.049 131.292 414.821 129.822 414.369 126.888V126.883Z" fill="url(#paint33_linear_565_7420)"/>
<path d="M422.121 126.92C421.462 122.808 421.138 120.757 420.5 116.65C421.528 116.655 422.038 116.659 423.066 116.664C424.094 116.668 424.608 116.673 425.632 116.678C425.728 117.264 425.773 117.557 425.865 118.143C425.96 118.729 426.005 119.022 426.101 119.608C426.615 119.608 426.872 119.608 427.386 119.612C427.9 119.612 428.157 119.612 428.675 119.617C428.771 120.203 428.816 120.496 428.916 121.082C429.015 121.668 429.061 121.961 429.156 122.547C429.67 122.547 429.931 122.547 430.446 122.552C430.964 122.552 431.221 122.552 431.735 122.556C431.83 123.142 431.88 123.435 431.979 124.021C432.079 124.608 432.124 124.901 432.224 125.487C432.742 125.487 432.999 125.487 433.517 125.491C434.036 125.491 434.293 125.491 434.811 125.496C434.512 123.738 434.367 122.859 434.073 121.096C433.779 119.338 433.634 118.459 433.343 116.696C434.371 116.701 434.886 116.705 435.918 116.71C436.946 116.714 437.464 116.719 438.492 116.723C439.18 120.826 439.529 122.881 440.238 126.984C440.947 131.086 441.307 133.137 442.037 137.244C440.992 137.244 440.47 137.239 439.429 137.235C438.389 137.23 437.862 137.23 436.822 137.226C436.718 136.64 436.668 136.347 436.565 135.761C436.461 135.175 436.411 134.882 436.312 134.296C435.789 134.296 435.532 134.296 435.01 134.291C434.488 134.291 434.231 134.291 433.708 134.286C433.609 133.7 433.559 133.407 433.459 132.821C433.36 132.235 433.31 131.942 433.211 131.356C432.692 131.356 432.431 131.356 431.913 131.352C431.395 131.352 431.134 131.352 430.615 131.347C430.516 130.761 430.466 130.468 430.371 129.882C430.271 129.296 430.226 129.003 430.126 128.417C429.608 128.417 429.347 128.417 428.833 128.412C428.315 128.412 428.058 128.412 427.539 128.408C427.83 130.17 427.975 131.049 428.269 132.808C428.563 134.566 428.708 135.449 429.007 137.212C427.966 137.212 427.444 137.207 426.399 137.203C425.359 137.203 424.836 137.198 423.796 137.194C423.116 133.082 422.784 131.027 422.125 126.915L422.121 126.92Z" fill="url(#paint34_linear_565_7420)"/>
</g>
<defs>
<linearGradient id="paint0_linear_565_7420" x1="7.62796" y1="78.5022" x2="517.003" y2="78.5022" gradientUnits="userSpaceOnUse">
<stop stop-color="#260F5D"/>
<stop offset="1" stop-color="#190A2A"/>
</linearGradient>
<linearGradient id="paint1_linear_565_7420" x1="15.5546" y1="75.2058" x2="509.23" y2="75.2058" gradientUnits="userSpaceOnUse">
<stop stop-color="#260F5D"/>
<stop offset="1" stop-color="#190A2A"/>
</linearGradient>
<linearGradient id="paint2_linear_565_7420" x1="53.048" y1="112.772" x2="53.048" y2="9.50952" gradientUnits="userSpaceOnUse">
<stop stop-color="#6427A8"/>
<stop offset="1" stop-color="#A27DCB"/>
</linearGradient>
<linearGradient id="paint3_linear_565_7420" x1="102.979" y1="113.015" x2="102.979" y2="9.49139" gradientUnits="userSpaceOnUse">
<stop stop-color="#6427A8"/>
<stop offset="1" stop-color="#A27DCB"/>
</linearGradient>
<linearGradient id="paint4_linear_565_7420" x1="149.427" y1="113.226" x2="149.427" y2="9.46394" gradientUnits="userSpaceOnUse">
<stop stop-color="#6427A8"/>
<stop offset="1" stop-color="#A27DCB"/>
</linearGradient>
<linearGradient id="paint5_linear_565_7420" x1="201.306" y1="113.514" x2="201.306" y2="9.46393" gradientUnits="userSpaceOnUse">
<stop stop-color="#6427A8"/>
<stop offset="1" stop-color="#A27DCB"/>
</linearGradient>
<linearGradient id="paint6_linear_565_7420" x1="246.365" y1="113.779" x2="246.365" y2="9.44089" gradientUnits="userSpaceOnUse">
<stop stop-color="#6427A8"/>
<stop offset="1" stop-color="#A27DCB"/>
</linearGradient>
<linearGradient id="paint7_linear_565_7420" x1="298.696" y1="114.178" x2="298.696" y2="9.43634" gradientUnits="userSpaceOnUse">
<stop stop-color="#6427A8"/>
<stop offset="1" stop-color="#A27DCB"/>
</linearGradient>
<linearGradient id="paint8_linear_565_7420" x1="378.38" y1="114.535" x2="378.38" y2="9.41347" gradientUnits="userSpaceOnUse">
<stop stop-color="#6427A8"/>
<stop offset="1" stop-color="#A27DCB"/>
</linearGradient>
<linearGradient id="paint9_linear_565_7420" x1="427.221" y1="114.814" x2="427.221" y2="9.39056" gradientUnits="userSpaceOnUse">
<stop stop-color="#6427A8"/>
<stop offset="1" stop-color="#A27DCB"/>
</linearGradient>
<linearGradient id="paint10_linear_565_7420" x1="476.135" y1="115.08" x2="476.135" y2="9.38146" gradientUnits="userSpaceOnUse">
<stop stop-color="#6427A8"/>
<stop offset="1" stop-color="#A27DCB"/>
</linearGradient>
<linearGradient id="paint11_linear_565_7420" x1="52.2853" y1="110.085" x2="52.2853" y2="6.87244" gradientUnits="userSpaceOnUse">
<stop stop-color="white"/>
<stop offset="1" stop-color="#F7C9F9"/>
</linearGradient>
<linearGradient id="paint12_linear_565_7420" x1="102.203" y1="110.327" x2="102.203" y2="6.85413" gradientUnits="userSpaceOnUse">
<stop stop-color="white"/>
<stop offset="1" stop-color="#F7C9F9"/>
</linearGradient>
<linearGradient id="paint13_linear_565_7420" x1="148.581" y1="110.533" x2="148.581" y2="6.82207" gradientUnits="userSpaceOnUse">
<stop stop-color="white"/>
<stop offset="1" stop-color="#F7C9F9"/>
</linearGradient>
<linearGradient id="paint14_linear_565_7420" x1="200.411" y1="110.831" x2="200.411" y2="6.82666" gradientUnits="userSpaceOnUse">
<stop stop-color="white"/>
<stop offset="1" stop-color="#F7C9F9"/>
</linearGradient>
<linearGradient id="paint15_linear_565_7420" x1="245.287" y1="111.097" x2="245.287" y2="6.80379" gradientUnits="userSpaceOnUse">
<stop stop-color="white"/>
<stop offset="1" stop-color="#F7C9F9"/>
</linearGradient>
<linearGradient id="paint16_linear_565_7420" x1="297.465" y1="111.499" x2="297.465" y2="6.79907" gradientUnits="userSpaceOnUse">
<stop stop-color="white"/>
<stop offset="1" stop-color="#F7C9F9"/>
</linearGradient>
<linearGradient id="paint17_linear_565_7420" x1="376.921" y1="111.856" x2="376.921" y2="6.77623" gradientUnits="userSpaceOnUse">
<stop stop-color="white"/>
<stop offset="1" stop-color="#F7C9F9"/>
</linearGradient>
<linearGradient id="paint18_linear_565_7420" x1="425.654" y1="112.14" x2="425.654" y2="6.75335" gradientUnits="userSpaceOnUse">
<stop stop-color="white"/>
<stop offset="1" stop-color="#F7C9F9"/>
</linearGradient>
<linearGradient id="paint19_linear_565_7420" x1="474.49" y1="112.406" x2="474.49" y2="6.74408" gradientUnits="userSpaceOnUse">
<stop stop-color="white"/>
<stop offset="1" stop-color="#F7C9F9"/>
</linearGradient>
<linearGradient id="paint20_linear_565_7420" x1="102.054" y1="136.04" x2="102.054" y2="114.924" gradientUnits="userSpaceOnUse">
<stop stop-color="white"/>
<stop offset="1" stop-color="#ADF5D7"/>
</linearGradient>
<linearGradient id="paint21_linear_565_7420" x1="123.305" y1="136.118" x2="123.305" y2="115.02" gradientUnits="userSpaceOnUse">
<stop stop-color="white"/>
<stop offset="1" stop-color="#ADF5D7"/>
</linearGradient>
<linearGradient id="paint22_linear_565_7420" x1="144.079" y1="136.191" x2="144.079" y2="115.13" gradientUnits="userSpaceOnUse">
<stop stop-color="white"/>
<stop offset="1" stop-color="#ADF5D7"/>
</linearGradient>
<linearGradient id="paint23_linear_565_7420" x1="184.586" y1="136.338" x2="184.586" y2="115.35" gradientUnits="userSpaceOnUse">
<stop stop-color="white"/>
<stop offset="1" stop-color="#ADF5D7"/>
</linearGradient>
<linearGradient id="paint24_linear_565_7420" x1="207.28" y1="136.402" x2="207.28" y2="115.46" gradientUnits="userSpaceOnUse">
<stop stop-color="white"/>
<stop offset="1" stop-color="#ADF5D7"/>
</linearGradient>
<linearGradient id="paint25_linear_565_7420" x1="225.774" y1="136.498" x2="225.774" y2="115.583" gradientUnits="userSpaceOnUse">
<stop stop-color="white"/>
<stop offset="1" stop-color="#ADF5D7"/>
</linearGradient>
<linearGradient id="paint26_linear_565_7420" x1="246.311" y1="136.576" x2="246.311" y2="115.666" gradientUnits="userSpaceOnUse">
<stop stop-color="white"/>
<stop offset="1" stop-color="#ADF5D7"/>
</linearGradient>
<linearGradient id="paint27_linear_565_7420" x1="287.432" y1="136.718" x2="287.432" y2="115.913" gradientUnits="userSpaceOnUse">
<stop stop-color="white"/>
<stop offset="1" stop-color="#ADF5D7"/>
</linearGradient>
<linearGradient id="paint28_linear_565_7420" x1="307.904" y1="136.804" x2="307.904" y2="115.995" gradientUnits="userSpaceOnUse">
<stop stop-color="white"/>
<stop offset="1" stop-color="#ADF5D7"/>
</linearGradient>
<linearGradient id="paint29_linear_565_7420" x1="328.562" y1="136.882" x2="328.562" y2="116.133" gradientUnits="userSpaceOnUse">
<stop stop-color="white"/>
<stop offset="1" stop-color="#ADF5D7"/>
</linearGradient>
<linearGradient id="paint30_linear_565_7420" x1="348.88" y1="136.96" x2="348.88" y2="116.215" gradientUnits="userSpaceOnUse">
<stop stop-color="white"/>
<stop offset="1" stop-color="#ADF5D7"/>
</linearGradient>
<linearGradient id="paint31_linear_565_7420" x1="368.853" y1="136.988" x2="368.853" y2="116.321" gradientUnits="userSpaceOnUse">
<stop stop-color="white"/>
<stop offset="1" stop-color="#ADF5D7"/>
</linearGradient>
<linearGradient id="paint32_linear_565_7420" x1="391.253" y1="137.111" x2="391.253" y2="116.444" gradientUnits="userSpaceOnUse">
<stop stop-color="white"/>
<stop offset="1" stop-color="#ADF5D7"/>
</linearGradient>
<linearGradient id="paint33_linear_565_7420" x1="410.563" y1="137.18" x2="410.563" y2="116.554" gradientUnits="userSpaceOnUse">
<stop stop-color="white"/>
<stop offset="1" stop-color="#ADF5D7"/>
</linearGradient>
<linearGradient id="paint34_linear_565_7420" x1="431.27" y1="137.267" x2="431.27" y2="116.65" gradientUnits="userSpaceOnUse">
<stop stop-color="white"/>
<stop offset="1" stop-color="#ADF5D7"/>
</linearGradient>
<clipPath id="clip0_565_7420">
<rect width="535" height="157" fill="white"/>
</clipPath>
</defs>
</svg>
