<svg width="1728" height="102" viewBox="0 0 1728 102" fill="none" xmlns="http://www.w3.org/2000/svg">
<path d="M1786.85 3.05029H-60.5381V96.5497H1786.85V3.05029Z" fill="url(#paint0_linear_400_2457)"/>
<g opacity="0.6">
<mask id="mask0_400_2457" style="mask-type:luminance" maskUnits="userSpaceOnUse" x="-62" y="3" width="1848" height="94">
<path d="M1785.46 3.146H-61.9299V96.6454H1785.46V3.146Z" fill="white"/>
</mask>
<g mask="url(#mask0_400_2457)">
<path style="mix-blend-mode:multiply" d="M865.348 157.648C1808.63 157.648 2573.31 106.509 2573.31 43.4263C2573.31 -19.6569 1808.63 -70.7959 865.348 -70.7959C-77.9335 -70.7959 -842.614 -19.6569 -842.614 43.4263C-842.614 106.509 -77.9335 157.648 865.348 157.648Z" fill="url(#paint1_radial_400_2457)"/>
<g opacity="0.64">
<path style="mix-blend-mode:overlay" d="M-543.805 -8.35478L-681.855 -2.24951L404.143 114.73L542.193 108.625L-543.805 -8.35478Z" fill="url(#paint2_linear_400_2457)"/>
<path style="mix-blend-mode:overlay" d="M121.012 -9.95084L-17.0381 -3.85498L1068.98 112.946L1207.03 106.85L121.012 -9.95084Z" fill="url(#paint3_linear_400_2457)"/>
<path style="mix-blend-mode:overlay" d="M785.809 -11.5573L647.759 -5.46143L1733.78 111.34L1871.83 105.244L785.809 -11.5573Z" fill="url(#paint4_linear_400_2457)"/>
<path style="mix-blend-mode:overlay" d="M1450.62 -13.1618L1312.57 -7.06592L2398.59 109.735L2536.64 103.639L1450.62 -13.1618Z" fill="url(#paint5_linear_400_2457)"/>
</g>
</g>
</g>
<path d="M1831.15 3.05015H1786.89H1786.85V92.8472H1786.4H1786.37H1785.46H1784.56H1784.52H1783.62H1782.71H1782.68H1781.77H1780.87H1780.83H1779.93H1779.02H1778.99H1778.08H1777.18H1777.15H1776.24H1775.34H1775.3H1774.4H1773.49H1773.46H1772.55H1771.65H1771.61H1770.71H1769.8H1769.77H1768.86H1767.96H1767.92H1767.02H1766.12H1766.08H1765.18H1764.27H1764.24H1763.33H1762.43H1762.39H1761.49H1760.58H1760.55H1759.64H1758.74H1758.7H1757.8H1756.89H1756.86H1755.95H1755.05H1755.02H1754.11H1753.21H1753.17H1752.27H1751.36H1751.33H1750.42H1749.52H1749.48H1748.58H1747.67H1747.64H1746.73H1745.83H1745.79H1744.89H1743.95V95.8973H1711.24H1710.23H1672.76H1671.78H1634.24H1633.26H1595.79H1594.74H1557.27H1556.26H1518.75H1517.78H1480.3H1479.26H1441.78H1440.77H1403.3H1402.29H1364.78H1363.8H1326.29H1325.32H1287.77H1286.8H1249.32H1248.28H1210.81H1209.83H1172.32H1171.31H1133.84H1132.83H1095.32H1094.34H1056.8H1055.82H1018.35H1017.3H979.83H978.855H941.345H940.336H902.861H901.852H864.341H863.367H825.857H824.848H787.373H786.363H748.854H747.879H710.369H709.36H671.885H670.876H633.365H632.391H594.881H593.872H556.397H555.387H517.878H516.903H479.428H478.384H440.909H439.934H402.389H401.415H363.905H362.896H325.421H324.411H286.936H285.927H248.452H247.443H209.933H208.958H171.413H170.439H132.929H131.92H94.4447H93.4355H55.9605H54.9513H17.4759H16.4667H-16.2412V92.8472H-17.1808H-18.0855H-18.1204H-19.0251H-19.9298H-19.9647H-20.8346H-20.8694H-21.7741H-21.8089H-22.7132H-23.618H-23.6528H-24.5575H-25.4623H-25.4971H-26.4018H-27.3066H-27.3414H-28.2461H-29.1509H-29.1857H-30.0904H-30.9947H-31.0295H-31.9343H-32.839H-32.8738H-33.7786H-34.6833H-34.7181H-35.6229H-36.5276H-36.5624H-37.4672H-38.3715H-38.4063H-39.311H-40.2158H-40.2506H-41.1553H-42.06H-42.0949H-42.9996H-43.9043H-43.9392H-44.8439H-45.7486H-45.783H-46.6878H-47.5925H-47.6273H-48.532H-49.4368H-49.4716H-50.3763H-51.2811H-51.3159H-52.2206H-53.1254H-53.1598H-54.0645H-54.9692H-55.0041H-55.9088H-56.8135H-56.8483H-57.7531H-58.6578H-58.6926H-59.5974H-60.5021V90.9313V68.9664V47.0015V46.9823V25.0174V6.10269H-59.5974H-59.5625H-58.6578H-57.7531H-57.7182H-56.8135H-55.9088H-55.874H-54.9692H-54.0645H-54.0297H-53.1254H-52.2206H-52.1858H-51.2811H-50.3763H-50.3415H-49.4368H-48.532H-48.4972H-47.5925H-46.6878H-46.6529H-45.7486H-44.8439H-44.8091H-43.9043H-42.9996H-42.9648H-42.06H-41.1553H-41.1205H-40.2158H-39.311H-39.2762H-38.3715H-37.4672H-37.4323H-36.5276H-35.6229H-35.588H-34.6833H-33.7786H-33.7437H-32.839H-31.9343H-31.8995H-30.9947H-30.9603H-30.0904H-30.0556H-29.1509H-29.116H-28.2461H-28.2113H-27.3066H-27.2717H-26.4018H-26.367H-25.4623H-25.4274H-24.5575H-24.5227H-23.618H-23.5832H-22.7132H-22.6788H-21.7741H-21.7393H-20.8694H-20.8346H-19.9298H-19.895H-19.0251H-18.9903H-18.0855H-18.0507H-17.1808H-17.146H-16.2064V3.05015H16.4323H17.4062H54.8816H55.8908H93.3314H94.3402H131.781H132.79H170.265H171.24H208.75H209.724H247.234H248.208H285.683H286.693H324.098H325.142H362.583H363.592H401.067H402.042H439.552H440.526H478.001H479.01H516.451H517.46H554.901H555.944H593.385H594.394H631.869H632.843H670.354H671.328H708.803H709.812H747.288H748.262H785.703H786.746H824.187H825.196H862.671H863.646H901.155H902.13H939.605H940.614H978.055H979.064H1016.5H1017.55H1054.99H1055.96H1093.47H1094.45H1131.96H1132.93H1170.41H1171.42H1208.86H1209.87H1247.31H1248.35H1285.79H1286.77H1324.28H1325.25H1362.76H1363.73H1401.21H1402.22H1439.66H1440.67H1478.11H1479.15H1516.59H1517.57H1555.08H1556.05H1593.53H1594.54H1632.01H1632.99H1670.46H1671.47H1708.91H1709.95H1742.59V6.10269H1743.5H1743.53H1744.44H1745.34H1745.38H1746.28H1747.19H1747.22H1748.13H1749.03H1749.07H1749.97H1750.87H1750.91H1751.81H1752.72H1752.75H1753.66H1754.56H1754.6H1755.5H1756.41H1756.44H1757.35H1758.25H1758.29H1759.19H1760.1H1760.13H1761.03H1761.94H1761.97H1762.88H1763.78H1763.82H1764.72H1765.63H1765.66H1766.57H1767.47H1767.51H1768.41H1769.32H1769.35H1770.26H1771.16H1771.2H1772.1H1773H1773.04H1773.94H1774.85H1774.88H1775.79H1776.69H1776.73H1777.63H1778.54H1778.57H1779.48H1780.38H1780.42H1781.32H1782.23H1782.26H1783.17H1784.07H1784.1H1785.01H1785.91H1785.95H1786.85V3.05015V0H1748.37H1747.39H1709.95H1708.91H1671.47H1670.46H1632.99H1632.01H1594.54H1593.53H1556.05H1555.08H1517.57H1516.59H1479.15H1478.11H1440.67H1439.66H1402.22H1401.21H1363.73H1362.76H1325.25H1324.28H1286.77H1285.79H1248.35H1247.31H1209.87H1208.86H1171.42H1170.41H1132.93H1131.96H1094.45H1093.47H1055.96H1054.99H1017.55H1016.5H979.064H978.055H940.614H939.605H902.13H901.155H863.646H862.671H825.196H824.187H786.746H785.703H748.262H747.288H709.812H708.803H671.328H670.354H632.843H631.869H594.394H593.385H555.944H554.901H517.46H516.451H479.01H478.001H440.526H439.552H402.042H401.067H363.592H362.583H325.142H324.098H286.693H285.683H248.208H247.234H209.724H208.75H171.24H170.265H132.79H131.781H94.3402H93.3314H55.8908H54.8816H17.4062H16.4323H-21.0779H-22.0523H-60.5369V3.05015H-104.797V25.0174V46.9823V47.0015V68.9664V90.9313V95.8973H-60.5369V98.9499H-22.0175H-21.0431H16.4667H17.4759H54.9513H55.9605H93.4355H94.4447H131.92H132.929H170.439H171.413H208.958H209.933H247.443H248.452H285.927H286.936H324.411H325.421H362.896H363.905H401.415H402.389H439.934H440.909H478.384H479.428H516.903H517.878H555.387H556.397H593.872H594.881H632.391H633.365H670.876H671.885H709.36H710.369H747.879H748.854H786.363H787.373H824.848H825.857H863.367H864.341H901.852H902.861H940.336H941.345H978.855H979.83H1017.3H1018.35H1055.82H1056.8H1094.34H1095.32H1132.83H1133.84H1171.31H1172.32H1209.83H1210.81H1248.28H1249.32H1286.8H1287.77H1325.32H1326.29H1363.8H1364.78H1402.29H1403.3H1440.77H1441.78H1479.26H1480.3H1517.78H1518.75H1556.26H1557.27H1594.74H1595.79H1633.26H1634.24H1671.78H1672.76H1710.23H1711.24H1748.75H1749.73H1788.25V95.8973H1831.15V3.05015Z" fill="url(#paint6_linear_400_2457)"/>
<defs>
<linearGradient id="paint0_linear_400_2457" x1="1786.85" y1="49.8024" x2="-60.5381" y2="49.8024" gradientUnits="userSpaceOnUse">
<stop stop-color="#E979EE"/>
<stop offset="1" stop-color="#6427A6"/>
</linearGradient>
<radialGradient id="paint1_radial_400_2457" cx="0" cy="0" r="1" gradientUnits="userSpaceOnUse" gradientTransform="translate(865.348 43.4356) rotate(-180) scale(1707.96 114.17)">
<stop offset="0.33" stop-color="#140037" stop-opacity="0"/>
<stop offset="0.75" stop-color="#1E4275"/>
</radialGradient>
<linearGradient id="paint2_linear_400_2457" x1="-1266.52" y1="40.8115" x2="-1096.14" y2="402.264" gradientUnits="userSpaceOnUse">
<stop stop-color="#FDE699"/>
<stop offset="1" stop-color="#B1CDF6"/>
</linearGradient>
<linearGradient id="paint3_linear_400_2457" x1="-560.951" y1="39.5657" x2="-390.991" y2="400.677" gradientUnits="userSpaceOnUse">
<stop stop-color="#FDE699"/>
<stop offset="1" stop-color="#B1CDF6"/>
</linearGradient>
<linearGradient id="paint4_linear_400_2457" x1="144.615" y1="38.3872" x2="314.575" y2="399.499" gradientUnits="userSpaceOnUse">
<stop stop-color="#FDE699"/>
<stop offset="1" stop-color="#B1CDF6"/>
</linearGradient>
<linearGradient id="paint5_linear_400_2457" x1="850.153" y1="37.2087" x2="1020.11" y2="398.32" gradientUnits="userSpaceOnUse">
<stop stop-color="#FDE699"/>
<stop offset="1" stop-color="#B1CDF6"/>
</linearGradient>
<linearGradient id="paint6_linear_400_2457" x1="-394.3" y1="31.5589" x2="-144.509" y2="780.991" gradientUnits="userSpaceOnUse">
<stop stop-color="#AFCBF4"/>
<stop offset="1" stop-color="#AAF3D5"/>
</linearGradient>
</defs>
</svg>
